STARTFONT 2.1
COMMENT
COMMENT Converted from OpenType font "NimbusSans-Regular.otf" by "otf2bdf 3.0".
COMMENT
FONT -FreeType-Nimbus Sans-Medium-R-Normal--97-700-100-100-P-504-ISO10646-1
SIZE 70 100 100
FONTBOUNDINGBOX 120 134 -20 -29
STARTPROPERTIES 19
FOUNDRY "FreeType"
FAMILY_NAME "Nimbus Sans"
WEIGHT_NAME "Medium"
SLANT "R"
SETWIDTH_NAME "Normal"
ADD_STYLE_NAME ""
PIXEL_SIZE 97
POINT_SIZE 700
RESOLUTION_X 100
RESOLUTION_Y 100
SPACING "P"
AVERAGE_WIDTH 504
CHARSET_REGISTRY "ISO10646"
CHARSET_ENCODING "1"
FONT_ASCENT 70
FONT_DESCENT 26
COPYRIGHT "(URW)++,Copyright 2014 by (URW)++ Design & Development"
_OTF_FONTFILE "NimbusSans-Regular.otf"
_OTF_PSNAME "NimbusSans-Regular"
ENDPROPERTIES
CHARS 854
STARTCHAR 0020
ENCODING 32
SWIDTH 277 0
DWIDTH 27 0
BBX 0 0 0 0
BITMAP
ENDCHAR
STARTCHAR 0021
ENCODING 33
SWIDTH 277 0
DWIDTH 27 0
BBX 8 71 12 0
BITMAP
FF
FF
FF
FF
FF
FF
FF
FF
FF
FF
FF
FF
FF
FF
FF
FF
FF
FF
FF
FF
FF
FF
FF
FF
FF
FF
FF
FF
FF
FF
FF
FF
FF
FF
FF
FF
FF
7F
7F
7F
7E
7E
7E
7E
7E
7E
7E
3E
3E
3E
3C
3C
3C
3C
3C
00
00
00
00
00
00
FF
FF
FF
FF
FF
FF
FF
FF
FF
FF
ENDCHAR
STARTCHAR 0022
ENCODING 34
SWIDTH 360 0
DWIDTH 35 0
BBX 25 24 5 45
BITMAP
FF80FF80
FF80FF80
FF80FF80
FF80FF80
FF80FF80
FF80FF80
FF80FF80
FF80FF80
FF80FF80
FF80FF80
FF80FF80
FF80FF80
FF80FF00
7F80FF00
7F00FF00
7F007F00
7F007F00
7F007E00
3F007E00
3E007E00
3E003E00
3E003C00
3E003C00
1E003C00
ENDCHAR
STARTCHAR 0023
ENCODING 35
SWIDTH 555 0
DWIDTH 54 0
BBX 52 70 1 -2
BITMAP
00001FE001FC00
00001FC003FC00
00001FC003FC00
00001FC003FC00
00003FC003F800
00003FC003F800
00003F8003F800
00003F8007F800
00003F8007F800
00003F8007F000
00007F8007F000
00007F8007F000
00007F000FF000
00007F000FF000
00007F000FF000
0000FF000FE000
0000FF000FE000
0000FE000FE000
0000FE001FE000
0FFFFFFFFFFFF0
0FFFFFFFFFFFF0
0FFFFFFFFFFFF0
0FFFFFFFFFFFF0
0FFFFFFFFFFFF0
0FFFFFFFFFFFF0
0FFFFFFFFFFFF0
0003FC003F8000
0003FC003F8000
0003F8003F8000
0003F8007F8000
0003F8007F8000
0007F8007F0000
0007F8007F0000
0007F8007F0000
0007F000FF0000
0007F000FF0000
0007F000FF0000
000FF000FE0000
000FF000FE0000
000FE000FE0000
000FE001FE0000
000FE001FE0000
000FE001FC0000
FFFFFFFFFFFF80
FFFFFFFFFFFF80
FFFFFFFFFFFF80
FFFFFFFFFFFF80
FFFFFFFFFFFF80
FFFFFFFFFFFF80
FFFFFFFFFFFF80
003F8003F80000
003F8007F80000
003F8007F80000
007F8007F00000
007F8007F00000
007F8007F00000
007F000FF00000
007F000FF00000
007F000FF00000
00FF000FE00000
00FF000FE00000
00FE000FE00000
00FE001FE00000
00FE001FE00000
01FE001FC00000
01FE001FC00000
01FE001FC00000
01FC003FC00000
01FC003FC00000
01FC003FC00000
ENDCHAR
STARTCHAR 0024
ENCODING 36
SWIDTH 555 0
DWIDTH 54 0
BBX 47 87 4 -12
BITMAP
00000FC00000
00000FC00000
00000FC00000
00000FC00000
00000FC00000
00000FE00000
0001FFFF0000
000FFFFFE000
003FFFFFF800
007FFFFFFC00
01FFFFFFFE00
03FFFFFFFF00
07FFEFCFFF80
07FF0FC1FFC0
0FFC0FC07FC0
1FF80FC03FE0
1FF00FC01FE0
3FE00FC01FF0
3FC00FC00FF0
3FC00FC00FF0
3F800FC007F8
7F800FC007F8
7F800FC007F8
7F800FC007F8
7F800FC007F8
7F800FC00000
7F800FC00000
7FC00FC00000
7FC00FC00000
3FE00FC00000
3FE00FC00000
3FF00FC00000
1FF80FC00000
1FFE0FC00000
0FFF8FC00000
0FFFFFC00000
07FFFFC00000
03FFFFFC0000
01FFFFFF8000
007FFFFFF000
003FFFFFFC00
0007FFFFFF00
0001FFFFFF80
00003FFFFFC0
00000FFFFFE0
00000FCFFFF0
00000FC3FFF8
00000FC07FF8
00000FC01FFC
00000FC00FFC
00000FC007FC
00000FC003FE
00000FC003FE
00000FC001FE
00000FC001FE
FF000FC001FE
FF000FC001FE
FF000FC001FE
FF000FC001FE
FF000FC001FE
FF000FC001FE
FF800FC003FC
7F800FC003FC
7F800FC003FC
7FC00FC007FC
7FC00FC00FF8
3FE00FC01FF8
3FF80FC03FF0
1FFC0FC07FF0
0FFF0FC1FFE0
0FFFFFFFFFC0
07FFFFFFFF80
01FFFFFFFF00
00FFFFFFFE00
003FFFFFF800
000FFFFFE000
0001FFFE0000
00000FC00000
00000FC00000
00000FC00000
00000FC00000
00000FC00000
00000FC00000
00000FC00000
00000FC00000
00000FC00000
00000FC00000
ENDCHAR
STARTCHAR 0025
ENCODING 37
SWIDTH 884 0
DWIDTH 86 0
BBX 81 71 3 -2
BITMAP
00000000000000FC000000
00000000000001FC000000
0003E000000001F8000000
003FFE00000003F8000000
00FFFF80000003F0000000
01FFFFC0000007F0000000
07FFFFF0000007E0000000
0FFFFFF800000FC0000000
0FFFFFF800000FC0000000
1FF81FFC00001F80000000
3FE003FE00003F80000000
3FC001FE00003F00000000
7F8000FF00007F00000000
7F00007F00007E00000000
FF00007F0000FE00000000
FE00003F8000FC00000000
FE00003F8001FC00000000
FE00003F8001F800000000
FE00003F8003F800000000
FE00003F8003F000000000
FE00003F8007E000000000
FE00003F8007E000000000
FE00003F800FC000000000
FF00007F001FC000000000
7F00007F001F8000000000
7F8000FF003F8000000000
3FC001FE003F0000000000
3FE003FE007F0000000000
1FF80FFC007E0000000000
1FFFFFF800FE0000000000
0FFFFFF000FC0000000000
07FFFFE001FC0000000000
03FFFFC001F80000000000
00FFFF8003F00000000000
003FFE0007F00000000000
0007E00007E00000000000
000000000FE00000000000
000000000FC00000000000
000000001FC0000FF00000
000000001F80007FFE0000
000000003F8001FFFF8000
000000003F0003FFFFC000
000000007F0007FFFFE000
000000007E000FFFFFF000
00000000FE001FFFFFF800
00000000FC003FF00FFC00
00000001F8007FC007FE00
00000003F8007F8001FE00
00000003F0007F0000FE00
00000007F000FE0000FF00
00000007E000FE00007F00
0000000FE000FE00007F00
0000000FC001FC00003F00
0000001FC001FC00003F80
0000001F8001FC00003F80
0000003F8001FC00003F00
0000003F0001FC00003F00
0000007F0000FE00007F00
0000007E0000FE00007F00
000000FC0000FF0000FF00
000001FC0000FF0000FE00
000001F800007F8001FE00
000003F800007FC003FC00
000003F000003FF00FFC00
000007F000001FFFFFF800
000007E000000FFFFFF000
00000FE0000007FFFFE000
00000FC0000003FFFFC000
00001FC0000001FFFF8000
00001F800000007FFE0000
00003F000000000FF00000
ENDCHAR
STARTCHAR 0026
ENCODING 38
SWIDTH 668 0
DWIDTH 65 0
BBX 57 71 5 -2
BITMAP
00000FF800000000
00007FFF00000000
0001FFFFC0000000
0003FFFFE0000000
0007FFFFF0000000
000FFFFFF8000000
001FFFFFFC000000
003FF80FFE000000
003FE003FE000000
007FC001FE000000
007F8001FF000000
00FF8000FF000000
00FF0000FF000000
00FF00007F000000
00FF00007F000000
00FF00007F000000
00FF00007F000000
00FF0000FF000000
00FF0000FF000000
007F8000FF000000
007FC001FF000000
007FC003FE000000
003FE007FE000000
003FF00FFC000000
001FF81FF8000000
000FF87FF0000000
000FFCFFE0000000
0007FFFFC0000000
0003FFFF80000000
0001FFFE00000000
0001FFFC00000000
0001FFF000000000
0007FFE000000000
000FFFF000000000
003FFFF800000000
007FFFFC00000000
00FFEFFE001FE000
03FFC7FE001FE000
07FF03FF001FE000
0FFE01FF801FE000
0FFC00FFC01FC000
1FF800FFE03FC000
3FF0007FE03FC000
3FE0003FF03FC000
7FC0001FF87FC000
7FC0000FFC7F8000
7F80000FFE7F8000
FF800007FFFF8000
FF000003FFFF0000
FF000001FFFF0000
FF000000FFFE0000
FF000000FFFE0000
FF0000007FFC0000
FF8000003FFC0000
FF8000001FF80000
FF8000000FFC0000
7FC000001FFE0000
7FC000003FFF0000
7FE000007FFF0000
7FF00001FFFF8000
3FF80003FFFFC000
3FFC000FFF7FE000
1FFF003FFE7FF000
0FFFFFFFFC3FF000
0FFFFFFFF81FF800
07FFFFFFF00FFC00
03FFFFFFC00FFE00
00FFFFFF8007FF00
007FFFFE0003FF80
001FFFF800000000
0001FF8000000000
ENDCHAR
STARTCHAR 0027
ENCODING 39
SWIDTH 195 0
DWIDTH 19 0
BBX 9 24 5 45
BITMAP
FF80
FF80
FF80
FF80
FF80
FF80
FF80
FF80
FF80
FF80
FF80
FF80
FF00
FF00
FF00
7F00
7F00
7E00
7E00
7E00
3E00
3E00
3C00
3C00
ENDCHAR
STARTCHAR 0028
ENCODING 40
SWIDTH 329 0
DWIDTH 32 0
BBX 21 91 7 -20
BITMAP
0000F8
0001F0
0003F0
0003E0
0007E0
000FC0
000FC0
001F80
003F80
003F00
007F00
007E00
00FE00
00FC00
01FC00
01FC00
01F800
03F800
03F800
07F000
07F000
07F000
0FE000
0FE000
0FE000
1FE000
1FC000
1FC000
3FC000
3FC000
3FC000
3F8000
3F8000
7F8000
7F8000
7F8000
7F8000
7F0000
7F0000
FF0000
FF0000
FF0000
FF0000
FF0000
FF0000
FF0000
FF0000
FF0000
FF0000
FF0000
FF0000
FF0000
FF0000
7F0000
7F8000
7F8000
7F8000
7F8000
7F8000
3F8000
3F8000
3FC000
3FC000
1FC000
1FC000
1FE000
1FE000
0FE000
0FE000
0FF000
07F000
07F000
07F800
03F800
03F800
01FC00
01FC00
00FC00
00FE00
007E00
007F00
003F00
003F80
001F80
001FC0
000FC0
000FE0
0007E0
0003F0
0003F0
0001F8
ENDCHAR
STARTCHAR 0029
ENCODING 41
SWIDTH 329 0
DWIDTH 32 0
BBX 21 91 4 -20
BITMAP
F80000
7C0000
7E0000
3F0000
3F0000
1F8000
1FC000
0FC000
0FE000
07E000
07F000
03F000
03F800
01F800
01FC00
01FC00
00FE00
00FE00
00FE00
007F00
007F00
007F80
003F80
003F80
003FC0
003FC0
001FC0
001FC0
001FE0
001FE0
000FE0
000FE0
000FF0
000FF0
000FF0
000FF0
000FF0
0007F0
0007F0
0007F8
0007F8
0007F8
0007F8
0007F8
0007F8
0007F8
0007F8
0007F8
0007F8
0007F8
0007F8
0007F8
0007F8
0007F0
0007F0
000FF0
000FF0
000FF0
000FF0
000FE0
000FE0
001FE0
001FE0
001FC0
001FC0
001FC0
003FC0
003F80
003F80
003F80
007F00
007F00
007F00
00FE00
00FE00
00FC00
01FC00
01F800
03F800
03F000
03F000
07E000
07E000
0FC000
0FC000
1F8000
1F8000
3F0000
3E0000
7E0000
FC0000
ENDCHAR
STARTCHAR 002A
ENCODING 42
SWIDTH 390 0
DWIDTH 38 0
BBX 29 28 4 43
BITMAP
000FC000
000FC000
000FC000
000FC000
000F8000
000F8000
000F8000
200F8010
780F80F0
7F0F87F0
7FEFBFF8
FFFFFFF8
FFFFFFF8
3FFFFFE0
07FFFF00
007FF000
003FE000
007FF000
00FFF800
00FDFC00
01FCFE00
03F8FE00
07F07F00
0FF03F80
0FE03FC0
07C01F00
03C00E00
00800800
ENDCHAR
STARTCHAR 002B
ENCODING 43
SWIDTH 586 0
DWIDTH 57 0
BBX 47 47 5 -1
BITMAP
00000FE00000
00000FE00000
00000FE00000
00000FE00000
00000FE00000
00000FE00000
00000FE00000
00000FE00000
00000FE00000
00000FE00000
00000FE00000
00000FE00000
00000FE00000
00000FE00000
00000FE00000
00000FE00000
00000FE00000
00000FE00000
00000FE00000
00000FE00000
FFFFFFFFFFFE
FFFFFFFFFFFE
FFFFFFFFFFFE
FFFFFFFFFFFE
FFFFFFFFFFFE
FFFFFFFFFFFE
FFFFFFFFFFFE
00000FE00000
00000FE00000
00000FE00000
00000FE00000
00000FE00000
00000FE00000
00000FE00000
00000FE00000
00000FE00000
00000FE00000
00000FE00000
00000FE00000
00000FE00000
00000FE00000
00000FE00000
00000FE00000
00000FE00000
00000FE00000
00000FE00000
00000FE00000
ENDCHAR
STARTCHAR 002C
ENCODING 44
SWIDTH 277 0
DWIDTH 27 0
BBX 11 24 8 -14
BITMAP
FFE0
FFE0
FFE0
FFE0
FFE0
FFE0
FFE0
FFE0
FFE0
FFE0
03E0
03E0
03E0
03E0
03C0
03C0
03C0
03C0
0780
0F80
3F00
FF00
FE00
F800
ENDCHAR
STARTCHAR 002D
ENCODING 45
SWIDTH 329 0
DWIDTH 32 0
BBX 24 7 4 23
BITMAP
FFFFFF
FFFFFF
FFFFFF
FFFFFF
FFFFFF
FFFFFF
FFFFFF
ENDCHAR
STARTCHAR 002E
ENCODING 46
SWIDTH 277 0
DWIDTH 27 0
BBX 11 10 8 0
BITMAP
FFE0
FFE0
FFE0
FFE0
FFE0
FFE0
FFE0
FFE0
FFE0
FFE0
ENDCHAR
STARTCHAR 002F
ENCODING 47
SWIDTH 277 0
DWIDTH 27 0
BBX 28 73 -1 -2
BITMAP
000001F0
000001F0
000003F0
000003E0
000003E0
000003E0
000007E0
000007C0
000007C0
00000FC0
00000F80
00000F80
00001F80
00001F00
00001F00
00003F00
00003E00
00003E00
00007E00
00007C00
00007C00
0000FC00
0000F800
0000F800
0000F800
0001F800
0001F000
0001F000
0003F000
0003E000
0003E000
0007E000
0007C000
0007C000
000FC000
000F8000
000F8000
001F8000
001F0000
001F0000
003F0000
003E0000
003E0000
003E0000
007E0000
007C0000
007C0000
00FC0000
00F80000
00F80000
01F80000
01F00000
01F00000
03F00000
03E00000
03E00000
07E00000
07C00000
07C00000
0FC00000
0FC00000
0F800000
0F800000
1F800000
1F000000
1F000000
3F000000
3E000000
3E000000
7E000000
7C000000
7C000000
FC000000
ENDCHAR
STARTCHAR 0030
ENCODING 48
SWIDTH 555 0
DWIDTH 54 0
BBX 45 72 4 -2
BITMAP
00003FE00000
0001FFFE0000
0007FFFF8000
001FFFFFC000
003FFFFFF000
007FFFFFF800
00FFFFFFFC00
01FFFFFFFC00
03FFC01FFE00
03FF0007FF00
07FE0003FF00
07FC0001FF80
0FFC0000FF80
0FF80000FFC0
1FF000007FC0
1FF000007FE0
1FF000003FE0
3FE000003FE0
3FE000001FE0
3FE000001FF0
3FC000001FF0
7FC000001FF0
7FC000000FF0
7FC000000FF0
7FC000000FF8
7FC000000FF8
7F8000000FF8
7F8000000FF8
FF8000000FF8
FF8000000FF8
FF8000000FF8
FF8000000FF8
FF8000000FF8
FF80000007F8
FF80000007F8
FF80000007F8
FF80000007F8
FF80000007F8
FF80000007F8
FF8000000FF8
FF8000000FF8
FF8000000FF8
FF8000000FF8
FF8000000FF8
7F8000000FF8
7F8000000FF8
7FC000000FF8
7FC000000FF8
7FC000000FF0
7FC000000FF0
7FC000001FF0
3FC000001FF0
3FE000001FF0
3FE000001FE0
3FE000003FE0
1FF000003FE0
1FF000003FE0
1FF000007FC0
0FF800007FC0
0FF80000FF80
07FC0000FF80
07FE0001FF00
03FF0003FF00
03FF800FFE00
01FFF03FFC00
00FFFFFFFC00
007FFFFFF800
003FFFFFF000
001FFFFFC000
0007FFFF8000
0001FFFE0000
00003FE00000
ENDCHAR
STARTCHAR 0031
ENCODING 49
SWIDTH 555 0
DWIDTH 54 0
BBX 24 70 10 0
BITMAP
00003F
00003F
00007F
00007F
00007F
0000FF
0000FF
0001FF
0003FF
0003FF
000FFF
003FFF
01FFFF
3FFFFF
FFFFFF
FFFFFF
FFFFFF
FFFFFF
FFFFFF
FFFFFF
0001FF
0001FF
0001FF
0001FF
0001FF
0001FF
0001FF
0001FF
0001FF
0001FF
0001FF
0001FF
0001FF
0001FF
0001FF
0001FF
0001FF
0001FF
0001FF
0001FF
0001FF
0001FF
0001FF
0001FF
0001FF
0001FF
0001FF
0001FF
0001FF
0001FF
0001FF
0001FF
0001FF
0001FF
0001FF
0001FF
0001FF
0001FF
0001FF
0001FF
0001FF
0001FF
0001FF
0001FF
0001FF
0001FF
0001FF
0001FF
0001FF
0001FF
ENDCHAR
STARTCHAR 0032
ENCODING 50
SWIDTH 555 0
DWIDTH 54 0
BBX 47 70 3 0
BITMAP
00001FFC0000
0001FFFFC000
0007FFFFF000
001FFFFFFC00
003FFFFFFE00
007FFFFFFF00
00FFFFFFFF80
01FFFFFFFFC0
03FFE003FFE0
07FF8000FFF0
07FF00007FF0
0FFE00003FF8
0FFC00001FF8
1FF800000FFC
1FF000000FFC
1FF0000007FC
1FF0000007FC
3FE0000003FE
3FE0000003FE
3FE0000003FE
3FE0000003FE
3FE0000003FE
3FE0000003FE
3FC0000003FC
0000000007FC
0000000007FC
0000000007FC
000000000FF8
000000000FF8
000000001FF8
000000003FF0
000000007FF0
00000000FFE0
00000003FFC0
00000007FF80
0000001FFF00
0000007FFE00
000000FFFC00
000003FFF800
00000FFFE000
00001FFFC000
00007FFF0000
0001FFFC0000
0003FFF80000
000FFFE00000
001FFF800000
003FFE000000
007FFC000000
00FFF0000000
01FFE0000000
03FF80000000
07FF00000000
07FE00000000
0FFC00000000
0FF800000000
1FF000000000
1FF000000000
3FE000000000
3FE000000000
3FC000000000
3FC000000000
7FC000000000
7FFFFFFFFFFC
7FFFFFFFFFFC
7FFFFFFFFFFC
7FFFFFFFFFFC
7FFFFFFFFFFC
FFFFFFFFFFFC
FFFFFFFFFFFC
FFFFFFFFFFFC
ENDCHAR
STARTCHAR 0033
ENCODING 51
SWIDTH 555 0
DWIDTH 54 0
BBX 46 72 3 -2
BITMAP
00003FF80000
0003FFFF8000
000FFFFFE000
003FFFFFF800
007FFFFFFC00
00FFFFFFFE00
01FFFFFFFF00
03FFFFFFFF80
07FFC007FF80
07FF0001FFC0
0FFC0000FFC0
0FF800007FE0
1FF000003FE0
1FF000003FF0
1FE000001FF0
3FE000001FF0
3FE000001FF0
3FE000001FF0
3FC000001FF0
3FC000001FF0
3FC000001FF0
3FC000001FF0
3FC000001FF0
000000001FF0
000000001FE0
000000003FE0
000000007FE0
00000000FFC0
00000001FFC0
00000007FF80
00001FFFFF00
00003FFFFC00
00003FFFF800
00003FFFE000
00003FFFF800
00003FFFFE00
00003FFFFF00
00003FFFFFC0
00000007FFE0
00000000FFE0
000000007FF0
000000003FF8
000000001FF8
000000000FF8
000000000FFC
0000000007FC
0000000007FC
0000000007FC
0000000007FC
FF80000007FC
FF80000007FC
FF80000007FC
FF80000007FC
7F80000007FC
7F80000007FC
7FC0000007FC
7FC000000FF8
7FC000000FF8
3FE000001FF8
3FF000001FF0
3FF000003FF0
1FF800007FE0
1FFE0001FFE0
0FFF8007FFC0
07FFFFFFFF80
03FFFFFFFF00
01FFFFFFFE00
00FFFFFFFC00
007FFFFFF800
001FFFFFE000
0007FFFF0000
00007FF00000
ENDCHAR
STARTCHAR 0034
ENCODING 52
SWIDTH 555 0
DWIDTH 54 0
BBX 48 70 3 0
BITMAP
00000003F800
00000003F800
00000007F800
0000000FF800
0000000FF800
0000001FF800
0000003FF800
0000003FF800
0000007FF800
000000FFF800
000001FFF800
000001FFF800
000003FFF800
000007FFF800
000007FFF800
00000FF7F800
00001FE7F800
00003FE7F800
00003FC7F800
00007F87F800
0000FF07F800
0000FF07F800
0001FE07F800
0003FC07F800
0007FC07F800
0007F807F800
000FF007F800
001FF007F800
001FE007F800
003FC007F800
007FC007F800
007F8007F800
00FF0007F800
01FE0007F800
03FE0007F800
03FC0007F800
07F80007F800
0FF80007F800
0FF00007F800
1FE00007F800
3FE00007F800
7FC00007F800
7F800007F800
FF000007F800
FF000007F800
FFFFFFFFFFFF
FFFFFFFFFFFF
FFFFFFFFFFFF
FFFFFFFFFFFF
FFFFFFFFFFFF
FFFFFFFFFFFF
FFFFFFFFFFFF
FFFFFFFFFFFF
00000007F800
00000007F800
00000007F800
00000007F800
00000007F800
00000007F800
00000007F800
00000007F800
00000007F800
00000007F800
00000007F800
00000007F800
00000007F800
00000007F800
00000007F800
00000007F800
00000007F800
ENDCHAR
STARTCHAR 0035
ENCODING 53
SWIDTH 555 0
DWIDTH 54 0
BBX 46 71 4 -2
BITMAP
01FFFFFFFFC0
03FFFFFFFFC0
03FFFFFFFFC0
03FFFFFFFFC0
03FFFFFFFFC0
03FFFFFFFFC0
03FFFFFFFFC0
03FFFFFFFFC0
03FC00000000
07F800000000
07F800000000
07F800000000
07F800000000
07F800000000
07F800000000
07F800000000
0FF000000000
0FF000000000
0FF000000000
0FF000000000
0FF000000000
0FF000000000
0FF000000000
1FE001800000
1FE07FFE0000
1FE3FFFFC000
1FE7FFFFF000
1FFFFFFFF800
1FFFFFFFFC00
1FFFFFFFFE00
3FFFFFFFFF00
3FFFC03FFF80
3FFE0007FFC0
3FF80001FFE0
3FF00000FFE0
3FE000007FF0
3FC000003FF0
000000001FF0
000000001FF8
000000000FF8
000000000FF8
000000000FF8
0000000007FC
0000000007FC
0000000007FC
0000000007FC
0000000007FC
0000000007FC
0000000007FC
0000000007FC
0000000007FC
0000000007F8
FF00000007F8
FF0000000FF8
FF8000000FF8
FF8000000FF0
7FC000001FF0
7FC000003FF0
7FE000003FE0
3FF000007FE0
3FF80000FFC0
1FFC0003FF80
1FFF800FFF80
0FFFFFFFFF00
07FFFFFFFE00
03FFFFFFFC00
01FFFFFFF800
007FFFFFE000
001FFFFF8000
0007FFFE0000
00007FE00000
ENDCHAR
STARTCHAR 0036
ENCODING 54
SWIDTH 555 0
DWIDTH 54 0
BBX 46 72 4 -2
BITMAP
00000FFC0000
00007FFF8000
0001FFFFE000
0007FFFFF000
000FFFFFFC00
003FFFFFFE00
007FFFFFFF00
00FFFFFFFF00
00FFE007FF80
01FFC001FFC0
03FF0000FFC0
03FE00007FE0
07FC00003FE0
07FC00003FE0
0FF800001FF0
0FF800001FF0
1FF000001FF0
1FF000000FF0
1FE000000000
3FE000000000
3FE000000000
3FC000000000
3FC000000000
7FC000000000
7FC000000000
7FC000000000
7F8000000000
7F800FFC0000
7F807FFF8000
7F81FFFFE000
FF87FFFFF800
FF8FFFFFFC00
FF9FFFFFFE00
FFBFFFFFFF00
FFFFFFFFFF80
FFFFC007FFC0
FFFF0001FFE0
FFFE0000FFE0
FFFC00007FF0
FFF800003FF0
FFF000001FF8
FFE000001FF8
FFE000000FF8
FFC000000FF8
FFC0000007FC
FFC0000007FC
7FC0000007FC
7F80000007FC
7F80000007FC
7F80000007FC
7FC0000007FC
7FC0000007FC
7FC0000007FC
3FC0000007F8
3FC000000FF8
3FE000000FF8
1FE000000FF8
1FF000001FF0
1FF000001FF0
0FF800003FF0
0FFC00007FE0
07FE0000FFE0
07FF8003FFC0
03FFE00FFF80
01FFFFFFFF00
00FFFFFFFE00
007FFFFFFC00
003FFFFFF800
001FFFFFF000
0007FFFFC000
0001FFFF0000
00003FF00000
ENDCHAR
STARTCHAR 0037
ENCODING 55
SWIDTH 555 0
DWIDTH 54 0
BBX 47 69 4 0
BITMAP
FFFFFFFFFFFE
FFFFFFFFFFFE
FFFFFFFFFFFE
FFFFFFFFFFFE
FFFFFFFFFFFE
FFFFFFFFFFFE
FFFFFFFFFFFE
FFFFFFFFFFFC
0000000003FC
0000000007F8
000000000FF0
000000000FE0
000000001FE0
000000003FC0
000000003F80
000000007F80
00000000FF00
00000000FE00
00000001FE00
00000003FC00
00000003F800
00000007F800
0000000FF000
0000000FF000
0000001FE000
0000001FC000
0000003FC000
0000007F8000
0000007F8000
000000FF0000
000000FF0000
000001FE0000
000001FE0000
000003FC0000
000003FC0000
000007F80000
000007F80000
00000FF00000
00000FF00000
00001FE00000
00001FE00000
00003FC00000
00003FC00000
00007FC00000
00007F800000
00007F800000
0000FF800000
0000FF000000
0001FF000000
0001FE000000
0001FE000000
0003FE000000
0003FE000000
0003FC000000
0007FC000000
0007FC000000
0007F8000000
000FF8000000
000FF8000000
000FF8000000
000FF0000000
001FF0000000
001FF0000000
001FF0000000
001FE0000000
003FE0000000
003FE0000000
003FE0000000
003FE0000000
ENDCHAR
STARTCHAR 0038
ENCODING 56
SWIDTH 555 0
DWIDTH 54 0
BBX 46 72 4 -2
BITMAP
00003FF00000
0003FFFF0000
000FFFFFC000
003FFFFFF000
007FFFFFF800
00FFFFFFFC00
01FFFFFFFE00
03FFFFFFFF00
07FF800FFF80
0FFE0003FF80
0FFC0001FFC0
1FF80000FFC0
1FF000007FE0
1FF000003FE0
3FE000003FE0
3FE000003FE0
3FE000003FE0
3FE000001FE0
3FE000001FE0
3FE000001FE0
3FE000001FE0
3FE000003FE0
3FE000003FE0
1FF000003FE0
1FF000007FE0
1FF800007FC0
0FFC0000FFC0
07FE0001FF80
07FF8007FF00
03FFF03FFE00
00FFFFFFFC00
007FFFFFF800
003FFFFFE000
001FFFFFE000
007FFFFFF800
01FFFFFFFC00
03FFFFFFFE00
07FFC01FFF80
0FFF0003FF80
1FFC0001FFC0
3FF800007FE0
3FF000003FF0
7FE000001FF0
7FC000001FF8
7FC000000FF8
FF8000000FF8
FF80000007FC
FF80000007FC
FF80000007FC
FF00000007FC
FF00000007FC
FF00000007FC
FF00000007FC
FF80000007FC
FF80000007FC
FF8000000FF8
FFC000000FF8
7FC000000FF8
7FE000001FF0
7FE000003FF0
3FF000007FF0
3FF80000FFE0
1FFE0001FFC0
0FFF800FFFC0
07FFFFFFFF80
03FFFFFFFF00
01FFFFFFFE00
00FFFFFFFC00
007FFFFFF000
001FFFFFC000
0003FFFF0000
00007FF00000
ENDCHAR
STARTCHAR 0039
ENCODING 57
SWIDTH 555 0
DWIDTH 54 0
BBX 45 72 4 -2
BITMAP
00007FE00000
0003FFFE0000
000FFFFF8000
003FFFFFE000
00FFFFFFF000
01FFFFFFF800
03FFFFFFFC00
07FFFFFFFE00
0FFF801FFF00
0FFE0007FF00
1FFC0001FF80
1FF80000FF80
3FF000007FC0
3FE000007FC0
7FC000003FE0
7FC000001FE0
7F8000001FE0
FF8000001FF0
FF8000000FF0
FF8000000FF0
FF8000000FF0
FF0000000FF8
FF0000000FF8
FF8000000FF8
FF8000000FF8
FF8000000FF8
FF8000000FF8
FF8000000FF8
FF8000001FF8
FFC000001FF8
7FC000003FF8
7FE000003FF8
7FE000007FF8
3FF00000FFF8
3FF80001FFF8
1FFE0003FFF8
0FFF801FFFF8
0FFFFFFFF7F8
07FFFFFFF7F8
03FFFFFFE7F8
01FFFFFFC7F8
007FFFFF07F8
003FFFFE0FF8
0007FFF80FF8
0000FFC00FF8
000000000FF8
000000000FF8
000000000FF0
000000000FF0
000000001FF0
000000001FF0
000000001FF0
000000001FE0
000000003FE0
7FC000003FE0
7FC000003FC0
3FE000007FC0
3FE000007FC0
3FE00000FF80
1FF00001FF80
1FF80003FF00
1FFC0007FF00
0FFE000FFE00
07FF803FFC00
07FFFFFFF800
03FFFFFFF000
01FFFFFFE000
00FFFFFFC000
007FFFFF8000
001FFFFE0000
0007FFF80000
0000FF800000
ENDCHAR
STARTCHAR 003A
ENCODING 58
SWIDTH 277 0
DWIDTH 27 0
BBX 10 51 11 0
BITMAP
FFC0
FFC0
FFC0
FFC0
FFC0
FFC0
FFC0
FFC0
FFC0
FFC0
0000
0000
0000
0000
0000
0000
0000
0000
0000
0000
0000
0000
0000
0000
0000
0000
0000
0000
0000
0000
0000
0000
0000
0000
0000
0000
0000
0000
0000
0000
0000
FFC0
FFC0
FFC0
FFC0
FFC0
FFC0
FFC0
FFC0
FFC0
FFC0
ENDCHAR
STARTCHAR 003B
ENCODING 59
SWIDTH 277 0
DWIDTH 27 0
BBX 10 65 11 -14
BITMAP
FFC0
FFC0
FFC0
FFC0
FFC0
FFC0
FFC0
FFC0
FFC0
FFC0
0000
0000
0000
0000
0000
0000
0000
0000
0000
0000
0000
0000
0000
0000
0000
0000
0000
0000
0000
0000
0000
0000
0000
0000
0000
0000
0000
0000
0000
0000
0000
FFC0
FFC0
FFC0
FFC0
FFC0
FFC0
FFC0
FFC0
FFC0
FFC0
03C0
03C0
03C0
03C0
07C0
07C0
0780
0780
0F80
0F00
7F00
FE00
FC00
F000
ENDCHAR
STARTCHAR 003C
ENCODING 60
SWIDTH 586 0
DWIDTH 57 0
BBX 48 47 4 -1
BITMAP
000000000001
00000000000F
00000000003F
0000000000FF
0000000007FF
000000001FFF
000000007FFF
00000003FFFF
0000000FFFFC
0000003FFFF0
000001FFFF80
000007FFFE00
00003FFFF000
0000FFFFC000
0003FFFE0000
001FFFF80000
007FFFC00000
01FFFF000000
0FFFFC000000
3FFFE0000000
FFFF80000000
FFFC00000000
FFF000000000
FFC000000000
FFF000000000
FFFE00000000
FFFF80000000
3FFFF0000000
0FFFFC000000
01FFFF000000
007FFFE00000
001FFFF80000
0003FFFF0000
0000FFFFC000
00003FFFF000
000007FFFE00
000001FFFF80
0000007FFFF0
0000000FFFFC
00000003FFFF
000000007FFF
000000001FFF
0000000007FF
0000000000FF
00000000003F
00000000000F
000000000001
ENDCHAR
STARTCHAR 003D
ENCODING 61
SWIDTH 586 0
DWIDTH 57 0
BBX 47 23 5 11
BITMAP
FFFFFFFFFFFE
FFFFFFFFFFFE
FFFFFFFFFFFE
FFFFFFFFFFFE
FFFFFFFFFFFE
FFFFFFFFFFFE
FFFFFFFFFFFE
000000000000
000000000000
000000000000
000000000000
000000000000
000000000000
000000000000
000000000000
000000000000
FFFFFFFFFFFE
FFFFFFFFFFFE
FFFFFFFFFFFE
FFFFFFFFFFFE
FFFFFFFFFFFE
FFFFFFFFFFFE
FFFFFFFFFFFE
ENDCHAR
STARTCHAR 003E
ENCODING 62
SWIDTH 586 0
DWIDTH 57 0
BBX 47 47 5 -1
BITMAP
800000000000
E00000000000
FC0000000000
FF0000000000
FFC000000000
FFF800000000
FFFE00000000
FFFF80000000
3FFFF0000000
0FFFFC000000
03FFFF800000
007FFFE00000
001FFFF80000
0003FFFF0000
0000FFFFC000
00001FFFF000
000007FFFE00
000001FFFF80
0000003FFFE0
0000000FFFFC
00000001FFFE
000000007FFE
000000001FFE
0000000003FE
000000000FFE
000000003FFE
00000001FFFE
00000007FFFC
0000003FFFF0
000000FFFF80
000007FFFE00
00001FFFF800
00007FFFC000
0003FFFF0000
000FFFF80000
007FFFE00000
01FFFF800000
0FFFFC000000
3FFFF0000000
FFFFC0000000
FFFE00000000
FFF800000000
FFE000000000
FF0000000000
FC0000000000
E00000000000
800000000000
ENDCHAR
STARTCHAR 003F
ENCODING 63
SWIDTH 555 0
DWIDTH 54 0
BBX 42 72 7 0
BITMAP
0000FFE00000
000FFFFE0000
003FFFFF8000
007FFFFFE000
01FFFFFFF000
03FFFFFFF800
07FFFFFFFC00
0FFFFFFFFE00
0FFF001FFF00
1FFC0007FF00
1FF00003FF80
3FF00001FF80
3FE00000FFC0
3FC000007FC0
7FC000007FC0
7FC000007FC0
7F8000003FC0
7F8000003FC0
7F8000003FC0
7F8000003FC0
7F8000003FC0
7F8000007FC0
FF8000007FC0
000000007FC0
00000000FFC0
00000000FF80
00000001FF80
00000003FF00
00000003FF00
00000007FE00
0000000FFC00
0000003FF800
0000007FF000
000000FFE000
000001FFC000
000003FF8000
000007FF0000
00000FFE0000
00001FFC0000
00001FF80000
00003FF00000
00003FE00000
00007FE00000
00007FC00000
00007FC00000
0000FF800000
0000FF800000
0000FF800000
0000FF800000
0000FF800000
0000FF800000
0000FF800000
0000FF800000
000000000000
000000000000
000000000000
000000000000
000000000000
000000000000
000000000000
000000000000
000000000000
0000FF800000
0000FF800000
0000FF800000
0000FF800000
0000FF800000
0000FF800000
0000FF800000
0000FF800000
0000FF800000
0000FF800000
ENDCHAR
STARTCHAR 0040
ENCODING 64
SWIDTH 1018 0
DWIDTH 99 0
BBX 89 86 3 -14
BITMAP
00000000003FFE0000000000
0000000007FFFFF000000000
000000007FFFFFFE00000000
00000003FFFFFFFFC0000000
0000000FFFFFFFFFF0000000
0000003FFFFFFFFFFC000000
000000FFFFFFFFFFFF000000
000003FFFFFFFFFFFF800000
000007FFFC0001FFFFE00000
00001FFFE000001FFFF00000
00003FFF00000003FFF80000
00007FFC00000000FFFC0000
0000FFF0000000003FFE0000
0001FFE0000000001FFF0000
0003FF800000000007FF8000
0007FF000000000003FFC000
000FFC000000000001FFE000
001FF8000000000000FFF000
003FF00000000000007FF000
007FE00000000000003FF800
007FC00000000000001FF800
00FF8000001FE000000FFC00
01FF800000FFFC00000FFC00
01FF000003FFFE07FC07FE00
03FE00000FFFFF07F803FE00
03FE00001FFFFF87F803FF00
07FC00007FFFFFCFF801FF00
07F80000FFF87FEFF001FF00
0FF80001FFC00FEFF001FF80
0FF00003FF0007FFF000FF80
1FF00007FE0003FFE000FF80
1FE0000FFC0001FFE000FF80
1FE0000FF80001FFE0007F80
3FE0001FF00000FFC0007F80
3FC0003FF00000FFC0007F80
3FC0003FE00000FFC0007F80
3FC0007FC00000FF80007F80
7FC0007FC00000FF80007F80
7F80007F800000FF80007F80
7F8000FF800000FF00007F80
7F8000FF800000FF00007F80
7F8000FF000000FF00007F80
7F8001FF000001FF0000FF80
FF8001FF000001FE0000FF80
FF8001FF000001FE0000FF00
FF8001FF000003FE0000FF00
FF8001FE000003FC0001FF00
FF8001FE000003FC0001FE00
FF8001FE000007FC0001FE00
FF8001FF000007F80003FE00
FF8001FF000007F80003FC00
7F8001FF00000FF80007FC00
7F8001FF00000FF0000FF800
7FC001FF80001FF0000FF000
7FC000FF80003FF0001FF000
7FC000FFC0003FF0003FE000
3FE000FFC0007FF0007FC000
3FE0007FE001FFF000FFC000
3FE0007FF803FFF803FF8000
1FF0003FFE1FFFFE0FFF0000
1FF0001FFFFFE7FFFFFE0000
1FF8000FFFFFC7FFFFFC0000
0FFC0007FFFF87FFFFF80000
0FFC0003FFFE03FFFFE00000
07FE0000FFF801FFFF800000
07FF00001FC0007FFE000000
03FF80000000000FE0000000
01FFC0000000000000000000
01FFE0000000000000000000
00FFF0000000000000000000
007FF8000000000000000000
003FFC000000000000000000
001FFF000000000000000000
000FFF800000000000000000
0007FFE00000000000000000
0003FFF80000000000000000
0001FFFF0000000F00000000
00007FFFF00001FF80000000
00003FFFFFFFFFFF80000000
00000FFFFFFFFFFFC0000000
000003FFFFFFFFFFC0000000
000000FFFFFFFFFFC0000000
0000003FFFFFFFFF80000000
00000007FFFFFFFC00000000
00000000FFFFFFC000000000
0000000007FFF00000000000
ENDCHAR
STARTCHAR 0041
ENCODING 65
SWIDTH 668 0
DWIDTH 65 0
BBX 61 71 2 0
BITMAP
0000007FF8000000
000000FFF8000000
000000FFF8000000
000000FFFC000000
000001FFFC000000
000001FFFE000000
000001FFFE000000
000003FFFE000000
000003FFFF000000
000003FFFF000000
000007FDFF000000
000007FDFF800000
00000FFCFF800000
00000FF8FF800000
00000FF8FFC00000
00001FF87FC00000
00001FF07FC00000
00001FF07FE00000
00003FE03FE00000
00003FE03FE00000
00003FE03FF00000
00007FC01FF00000
00007FC01FF00000
00007FC01FF80000
0000FF800FF80000
0000FF800FFC0000
0001FF800FFC0000
0001FF0007FC0000
0001FF0007FE0000
0003FF0007FE0000
0003FE0003FE0000
0003FE0003FF0000
0007FC0003FF0000
0007FC0001FF0000
0007FC0001FF8000
000FF80001FF8000
000FF80000FF8000
000FF80000FFC000
001FF00000FFC000
001FF000007FC000
001FF000007FE000
003FE000007FE000
003FFFFFFFFFF000
007FFFFFFFFFF000
007FFFFFFFFFF000
007FFFFFFFFFF800
00FFFFFFFFFFF800
00FFFFFFFFFFF800
00FFFFFFFFFFFC00
01FFFFFFFFFFFC00
01FF0000000FFC00
01FF00000007FE00
03FF00000007FE00
03FE00000007FE00
03FE00000003FF00
07FE00000003FF00
07FC00000003FF00
0FFC00000001FF80
0FFC00000001FF80
0FF800000001FF80
1FF800000000FFC0
1FF800000000FFC0
1FF000000000FFE0
3FF0000000007FE0
3FF0000000007FE0
3FE0000000007FF0
7FE0000000003FF0
7FC0000000003FF0
7FC0000000003FF8
FFC0000000001FF8
FF80000000001FF8
ENDCHAR
STARTCHAR 0042
ENCODING 66
SWIDTH 668 0
DWIDTH 65 0
BBX 53 71 8 0
BITMAP
FFFFFFFFC00000
FFFFFFFFFC0000
FFFFFFFFFF0000
FFFFFFFFFFC000
FFFFFFFFFFE000
FFFFFFFFFFF000
FFFFFFFFFFF800
FFFFFFFFFFFC00
FF800000FFFE00
FF8000001FFE00
FF8000000FFF00
FF80000003FF00
FF80000003FF80
FF80000001FF80
FF80000001FF80
FF80000000FF80
FF80000000FF80
FF80000000FF80
FF80000000FF80
FF80000000FF80
FF80000000FF80
FF80000000FF80
FF80000000FF80
FF80000000FF80
FF80000000FF80
FF80000001FF00
FF80000003FF00
FF80000003FE00
FF8000000FFC00
FF8000001FFC00
FF800000FFF800
FFFFFFFFFFF000
FFFFFFFFFFC000
FFFFFFFFFF0000
FFFFFFFFFF8000
FFFFFFFFFFE000
FFFFFFFFFFF800
FFFFFFFFFFFC00
FFFFFFFFFFFF00
FF8000001FFF80
FF80000003FF80
FF80000001FFC0
FF80000000FFE0
FF800000007FE0
FF800000003FF0
FF800000003FF0
FF800000001FF0
FF800000001FF0
FF800000001FF0
FF800000001FF8
FF800000000FF8
FF800000000FF8
FF800000001FF8
FF800000001FF0
FF800000001FF0
FF800000001FF0
FF800000001FF0
FF800000003FF0
FF800000007FE0
FF800000007FE0
FF80000001FFC0
FF80000003FFC0
FF8000001FFF80
FFFFFFFFFFFF00
FFFFFFFFFFFF00
FFFFFFFFFFFE00
FFFFFFFFFFFC00
FFFFFFFFFFF000
FFFFFFFFFFE000
FFFFFFFFFF8000
FFFFFFFFF80000
ENDCHAR
STARTCHAR 0043
ENCODING 67
SWIDTH 720 0
DWIDTH 70 0
BBX 61 74 5 -2
BITMAP
0000003FFE000000
000007FFFFE00000
00001FFFFFF80000
00007FFFFFFE0000
0001FFFFFFFF8000
0007FFFFFFFFC000
000FFFFFFFFFE000
001FFFFFFFFFF000
003FFFC00FFFF800
007FFE0000FFFC00
00FFF800003FFE00
01FFE000000FFE00
01FFC0000007FF00
03FF80000003FF00
07FF00000001FF80
07FE00000001FF80
0FFC00000000FFC0
0FFC00000000FFC0
1FF8000000007FC0
1FF0000000007FE0
1FF0000000003FE0
3FE0000000003FE0
3FE0000000003FE0
3FE0000000000000
7FC0000000000000
7FC0000000000000
7FC0000000000000
7FC0000000000000
FF80000000000000
FF80000000000000
FF80000000000000
FF80000000000000
FF80000000000000
FF80000000000000
FF80000000000000
FF80000000000000
FF80000000000000
FF80000000000000
FF80000000000000
FF80000000000000
FF80000000000000
FF80000000000000
FF80000000000000
FF80000000000000
FF80000000000000
FFC0000000000000
FFC0000000001FF8
7FC0000000001FF8
7FC0000000001FF0
7FE0000000001FF0
7FE0000000001FF0
3FE0000000003FF0
3FF0000000003FF0
3FF0000000003FE0
1FF8000000007FE0
1FF8000000007FE0
0FFC000000007FC0
0FFC00000000FFC0
07FE00000001FFC0
07FF00000001FF80
03FF80000003FF80
03FFC0000007FF00
01FFF000000FFF00
00FFF800003FFE00
007FFE0000FFFC00
003FFFE007FFF800
001FFFFFFFFFF000
000FFFFFFFFFE000
0007FFFFFFFFC000
0003FFFFFFFF8000
0000FFFFFFFE0000
00003FFFFFF80000
000007FFFFC00000
0000007FFC000000
ENDCHAR
STARTCHAR 0044
ENCODING 68
SWIDTH 720 0
DWIDTH 70 0
BBX 56 71 9 0
BITMAP
FFFFFFFF800000
FFFFFFFFF80000
FFFFFFFFFE0000
FFFFFFFFFF8000
FFFFFFFFFFE000
FFFFFFFFFFF000
FFFFFFFFFFF800
FFFFFFFFFFFC00
FF800001FFFE00
FF8000003FFF00
FF8000000FFF80
FF80000003FFC0
FF80000001FFC0
FF80000000FFE0
FF800000007FE0
FF800000003FF0
FF800000003FF0
FF800000001FF8
FF800000000FF8
FF800000000FFC
FF800000000FFC
FF8000000007FC
FF8000000007FC
FF8000000007FE
FF8000000003FE
FF8000000003FE
FF8000000003FE
FF8000000003FE
FF8000000003FE
FF8000000003FF
FF8000000001FF
FF8000000001FF
FF8000000001FF
FF8000000001FF
FF8000000001FF
FF8000000001FF
FF8000000001FF
FF8000000001FF
FF8000000001FF
FF8000000001FF
FF8000000001FF
FF8000000001FF
FF8000000003FE
FF8000000003FE
FF8000000003FE
FF8000000003FE
FF8000000003FE
FF8000000007FE
FF8000000007FC
FF8000000007FC
FF8000000007FC
FF800000000FFC
FF800000000FF8
FF800000001FF8
FF800000001FF0
FF800000003FF0
FF800000007FE0
FF80000000FFE0
FF80000001FFC0
FF80000003FFC0
FF8000000FFF80
FF8000003FFF00
FF800001FFFE00
FFFFFFFFFFFC00
FFFFFFFFFFF800
FFFFFFFFFFF000
FFFFFFFFFFE000
FFFFFFFFFF8000
FFFFFFFFFE0000
FFFFFFFFF80000
FFFFFFFF000000
ENDCHAR
STARTCHAR 0045
ENCODING 69
SWIDTH 668 0
DWIDTH 65 0
BBX 51 71 9 0
BITMAP
FFFFFFFFFFFF80
FFFFFFFFFFFF80
FFFFFFFFFFFF80
FFFFFFFFFFFF80
FFFFFFFFFFFF80
FFFFFFFFFFFF80
FFFFFFFFFFFF80
FFFFFFFFFFFF80
FF800000000000
FF800000000000
FF800000000000
FF800000000000
FF800000000000
FF800000000000
FF800000000000
FF800000000000
FF800000000000
FF800000000000
FF800000000000
FF800000000000
FF800000000000
FF800000000000
FF800000000000
FF800000000000
FF800000000000
FF800000000000
FF800000000000
FF800000000000
FF800000000000
FF800000000000
FF800000000000
FFFFFFFFFFFE00
FFFFFFFFFFFE00
FFFFFFFFFFFE00
FFFFFFFFFFFE00
FFFFFFFFFFFE00
FFFFFFFFFFFE00
FFFFFFFFFFFE00
FFFFFFFFFFFE00
FF800000000000
FF800000000000
FF800000000000
FF800000000000
FF800000000000
FF800000000000
FF800000000000
FF800000000000
FF800000000000
FF800000000000
FF800000000000
FF800000000000
FF800000000000
FF800000000000
FF800000000000
FF800000000000
FF800000000000
FF800000000000
FF800000000000
FF800000000000
FF800000000000
FF800000000000
FF800000000000
FF800000000000
FFFFFFFFFFFFE0
FFFFFFFFFFFFE0
FFFFFFFFFFFFE0
FFFFFFFFFFFFE0
FFFFFFFFFFFFE0
FFFFFFFFFFFFE0
FFFFFFFFFFFFE0
FFFFFFFFFFFFE0
ENDCHAR
STARTCHAR 0046
ENCODING 70
SWIDTH 606 0
DWIDTH 59 0
BBX 47 71 9 0
BITMAP
FFFFFFFFFFFE
FFFFFFFFFFFE
FFFFFFFFFFFE
FFFFFFFFFFFE
FFFFFFFFFFFE
FFFFFFFFFFFE
FFFFFFFFFFFE
FFFFFFFFFFFE
FF8000000000
FF8000000000
FF8000000000
FF8000000000
FF8000000000
FF8000000000
FF8000000000
FF8000000000
FF8000000000
FF8000000000
FF8000000000
FF8000000000
FF8000000000
FF8000000000
FF8000000000
FF8000000000
FF8000000000
FF8000000000
FF8000000000
FF8000000000
FF8000000000
FF8000000000
FF8000000000
FFFFFFFFFFE0
FFFFFFFFFFE0
FFFFFFFFFFE0
FFFFFFFFFFE0
FFFFFFFFFFE0
FFFFFFFFFFE0
FFFFFFFFFFE0
FFFFFFFFFFE0
FF8000000000
FF8000000000
FF8000000000
FF8000000000
FF8000000000
FF8000000000
FF8000000000
FF8000000000
FF8000000000
FF8000000000
FF8000000000
FF8000000000
FF8000000000
FF8000000000
FF8000000000
FF8000000000
FF8000000000
FF8000000000
FF8000000000
FF8000000000
FF8000000000
FF8000000000
FF8000000000
FF8000000000
FF8000000000
FF8000000000
FF8000000000
FF8000000000
FF8000000000
FF8000000000
FF8000000000
FF8000000000
ENDCHAR
STARTCHAR 0047
ENCODING 71
SWIDTH 781 0
DWIDTH 76 0
BBX 65 74 4 -2
BITMAP
0000000FFF80000000
000001FFFFF8000000
00000FFFFFFF000000
00003FFFFFFFE00000
0000FFFFFFFFF00000
0001FFFFFFFFFC0000
0003FFFFFFFFFE0000
000FFFFFFFFFFF0000
001FFFF800FFFF8000
003FFF80001FFFC000
007FFE000003FFE000
007FF8000001FFF000
00FFF00000007FF000
01FFC00000003FF800
03FF800000001FF800
03FF000000000FFC00
07FF000000000FFC00
07FE0000000007FE00
0FFC0000000007FE00
0FF80000000003FE00
1FF80000000003FF00
1FF00000000001FF00
1FF000000000000000
3FF000000000000000
3FE000000000000000
3FE000000000000000
7FE000000000000000
7FC000000000000000
7FC000000000000000
7FC000000000000000
7FC000000000000000
7FC000000000000000
FFC000000000000000
FF8000000000000000
FF8000001FFFFFFF80
FF8000001FFFFFFF80
FF8000001FFFFFFF80
FF8000001FFFFFFF80
FF8000001FFFFFFF80
FF8000001FFFFFFF80
FFC000001FFFFFFF80
FFC000001FFFFFFF80
7FC000000000007F80
7FC000000000007F80
7FC000000000007F80
7FC000000000007F80
7FE000000000007F80
7FE000000000007F80
3FE000000000007F80
3FF00000000000FF80
3FF00000000000FF80
1FF00000000000FF80
1FF80000000001FF80
1FF80000000001FF80
0FFC0000000001FF80
0FFC0000000003FF80
07FE0000000007FF80
07FF0000000007FF80
03FF800000000FFF80
03FFC00000001FFF80
01FFE00000003FFF80
00FFF00000007FFF80
00FFF8000001FFFF80
007FFE000003FF7F80
003FFFC0001FFE7F80
001FFFF800FFFC3F80
000FFFFFFFFFF83F80
0007FFFFFFFFF03F80
0001FFFFFFFFC03F80
0000FFFFFFFF801F80
00003FFFFFFE001F80
00000FFFFFF8001F80
000001FFFFE0000000
0000001FFC00000000
ENDCHAR
STARTCHAR 0048
ENCODING 72
SWIDTH 720 0
DWIDTH 70 0
BBX 55 71 8 0
BITMAP
FF8000000003FE
FF8000000003FE
FF8000000003FE
FF8000000003FE
FF8000000003FE
FF8000000003FE
FF8000000003FE
FF8000000003FE
FF8000000003FE
FF8000000003FE
FF8000000003FE
FF8000000003FE
FF8000000003FE
FF8000000003FE
FF8000000003FE
FF8000000003FE
FF8000000003FE
FF8000000003FE
FF8000000003FE
FF8000000003FE
FF8000000003FE
FF8000000003FE
FF8000000003FE
FF8000000003FE
FF8000000003FE
FF8000000003FE
FF8000000003FE
FF8000000003FE
FF8000000003FE
FF8000000003FE
FF8000000003FE
FFFFFFFFFFFFFE
FFFFFFFFFFFFFE
FFFFFFFFFFFFFE
FFFFFFFFFFFFFE
FFFFFFFFFFFFFE
FFFFFFFFFFFFFE
FFFFFFFFFFFFFE
FFFFFFFFFFFFFE
FF8000000003FE
FF8000000003FE
FF8000000003FE
FF8000000003FE
FF8000000003FE
FF8000000003FE
FF8000000003FE
FF8000000003FE
FF8000000003FE
FF8000000003FE
FF8000000003FE
FF8000000003FE
FF8000000003FE
FF8000000003FE
FF8000000003FE
FF8000000003FE
FF8000000003FE
FF8000000003FE
FF8000000003FE
FF8000000003FE
FF8000000003FE
FF8000000003FE
FF8000000003FE
FF8000000003FE
FF8000000003FE
FF8000000003FE
FF8000000003FE
FF8000000003FE
FF8000000003FE
FF8000000003FE
FF8000000003FE
FF8000000003FE
ENDCHAR
STARTCHAR 0049
ENCODING 73
SWIDTH 277 0
DWIDTH 27 0
BBX 9 71 10 0
BITMAP
FF80
FF80
FF80
FF80
FF80
FF80
FF80
FF80
FF80
FF80
FF80
FF80
FF80
FF80
FF80
FF80
FF80
FF80
FF80
FF80
FF80
FF80
FF80
FF80
FF80
FF80
FF80
FF80
FF80
FF80
FF80
FF80
FF80
FF80
FF80
FF80
FF80
FF80
FF80
FF80
FF80
FF80
FF80
FF80
FF80
FF80
FF80
FF80
FF80
FF80
FF80
FF80
FF80
FF80
FF80
FF80
FF80
FF80
FF80
FF80
FF80
FF80
FF80
FF80
FF80
FF80
FF80
FF80
FF80
FF80
FF80
ENDCHAR
STARTCHAR 004A
ENCODING 74
SWIDTH 504 0
DWIDTH 49 0
BBX 39 73 2 -2
BITMAP
00000003FE
00000003FE
00000003FE
00000003FE
00000003FE
00000003FE
00000003FE
00000003FE
00000003FE
00000003FE
00000003FE
00000003FE
00000003FE
00000003FE
00000003FE
00000003FE
00000003FE
00000003FE
00000003FE
00000003FE
00000003FE
00000003FE
00000003FE
00000003FE
00000003FE
00000003FE
00000003FE
00000003FE
00000003FE
00000003FE
00000003FE
00000003FE
00000003FE
00000003FE
00000003FE
00000003FE
00000003FE
00000003FE
00000003FE
00000003FE
00000003FE
00000003FE
00000003FE
00000003FE
00000003FE
00000003FE
00000003FE
00000003FE
FF800003FE
FF800003FE
FF800003FE
FF800003FE
FF800003FE
FF800003FE
FF800003FE
FF800003FE
FF800003FE
FF800003FE
FFC00007FE
FFC00007FE
FFE00007FC
7FE0000FFC
7FF0001FFC
3FF8003FF8
3FFE00FFF0
1FFFFFFFF0
0FFFFFFFE0
07FFFFFFC0
03FFFFFF80
01FFFFFF00
00FFFFFC00
001FFFF000
0003FF0000
ENDCHAR
STARTCHAR 004B
ENCODING 75
SWIDTH 668 0
DWIDTH 65 0
BBX 56 71 8 0
BITMAP
FF800000000FFE
FF800000001FFC
FF800000003FF8
FF800000007FF0
FF80000000FFE0
FF80000001FFC0
FF80000003FF80
FF80000007FF00
FF8000000FFE00
FF8000001FFC00
FF8000003FF800
FF8000007FF000
FF800000FFE000
FF800001FFC000
FF800003FF8000
FF800007FF0000
FF80000FFE0000
FF80001FFC0000
FF80003FF80000
FF80007FF00000
FF8000FFE00000
FF8001FFC00000
FF8003FF800000
FF8007FF000000
FF800FFE000000
FF801FFC000000
FF803FF8000000
FF807FF0000000
FF80FFE0000000
FF81FFE0000000
FF83FFF0000000
FF87FFF8000000
FF8FFFF8000000
FF9FFFFC000000
FFBFFFFE000000
FFFFE7FE000000
FFFFC3FF000000
FFFF83FF800000
FFFF01FF800000
FFFE00FFC00000
FFFC00FFE00000
FFF8007FF00000
FFF0003FF00000
FFE0003FF80000
FFC0001FFC0000
FF80000FFC0000
FF80000FFE0000
FF800007FF0000
FF800003FF0000
FF800003FF8000
FF800001FFC000
FF800000FFC000
FF8000007FE000
FF8000007FF000
FF8000003FF800
FF8000001FF800
FF8000001FFC00
FF8000000FFE00
FF80000007FE00
FF80000007FF00
FF80000003FF80
FF80000001FF80
FF80000001FFC0
FF80000000FFE0
FF800000007FE0
FF800000007FF0
FF800000003FF8
FF800000001FFC
FF800000000FFC
FF800000000FFE
FF8000000007FF
ENDCHAR
STARTCHAR 004C
ENCODING 76
SWIDTH 555 0
DWIDTH 54 0
BBX 44 71 8 0
BITMAP
FF8000000000
FF8000000000
FF8000000000
FF8000000000
FF8000000000
FF8000000000
FF8000000000
FF8000000000
FF8000000000
FF8000000000
FF8000000000
FF8000000000
FF8000000000
FF8000000000
FF8000000000
FF8000000000
FF8000000000
FF8000000000
FF8000000000
FF8000000000
FF8000000000
FF8000000000
FF8000000000
FF8000000000
FF8000000000
FF8000000000
FF8000000000
FF8000000000
FF8000000000
FF8000000000
FF8000000000
FF8000000000
FF8000000000
FF8000000000
FF8000000000
FF8000000000
FF8000000000
FF8000000000
FF8000000000
FF8000000000
FF8000000000
FF8000000000
FF8000000000
FF8000000000
FF8000000000
FF8000000000
FF8000000000
FF8000000000
FF8000000000
FF8000000000
FF8000000000
FF8000000000
FF8000000000
FF8000000000
FF8000000000
FF8000000000
FF8000000000
FF8000000000
FF8000000000
FF8000000000
FF8000000000
FF8000000000
FF8000000000
FFFFFFFFFFF0
FFFFFFFFFFF0
FFFFFFFFFFF0
FFFFFFFFFFF0
FFFFFFFFFFF0
FFFFFFFFFFF0
FFFFFFFFFFF0
FFFFFFFFFFF0
ENDCHAR
STARTCHAR 004D
ENCODING 77
SWIDTH 833 0
DWIDTH 81 0
BBX 67 71 7 0
BITMAP
FFF80000000003FFE0
FFF80000000003FFE0
FFFC0000000003FFE0
FFFC0000000007FFE0
FFFC0000000007FFE0
FFFE0000000007FFE0
FFFE000000000FFFE0
FFFE000000000FFFE0
FFFF000000000FFFE0
FFFF000000001FFFE0
FFFF000000001FFFE0
FFFF800000001FFFE0
FFFF800000003FFFE0
FFBF800000003FFFE0
FFBFC00000003FBFE0
FFBFC00000007FBFE0
FF9FC00000007FBFE0
FF9FE00000007F3FE0
FF9FE0000000FF3FE0
FF8FE0000000FF3FE0
FF8FF0000000FE3FE0
FF8FF0000001FE3FE0
FF87F0000001FE3FE0
FF87F8000001FC3FE0
FF87F8000003FC3FE0
FF83F8000003FC3FE0
FF83FC000003F83FE0
FF83FC000007F83FE0
FF81FE000007F83FE0
FF81FE000007F03FE0
FF81FE00000FF03FE0
FF80FF00000FF03FE0
FF80FF00000FE03FE0
FF80FF00001FE03FE0
FF807F80001FE03FE0
FF807F80001FC03FE0
FF807F80003FC03FE0
FF803FC0003FC03FE0
FF803FC0003F803FE0
FF803FC0007F803FE0
FF801FE0007F803FE0
FF801FE0007F003FE0
FF801FE000FF003FE0
FF800FF000FF003FE0
FF800FF000FE003FE0
FF800FF001FE003FE0
FF8007F801FE003FE0
FF8007F801FC003FE0
FF8007F803FC003FE0
FF8003FC03FC003FE0
FF8003FC03F8003FE0
FF8003FC07F8003FE0
FF8001FE07F8003FE0
FF8001FE07F0003FE0
FF8001FE0FF0003FE0
FF8000FF0FF0003FE0
FF8000FF0FE0003FE0
FF8000FF1FE0003FE0
FF80007F9FE0003FE0
FF80007F9FC0003FE0
FF80007FBFC0003FE0
FF80003FFFC0003FE0
FF80003FFF80003FE0
FF80003FFF80003FE0
FF80001FFF80003FE0
FF80001FFF00003FE0
FF80001FFF00003FE0
FF80000FFF00003FE0
FF80000FFE00003FE0
FF80000FFE00003FE0
FF800007FE00003FE0
ENDCHAR
STARTCHAR 004E
ENCODING 78
SWIDTH 720 0
DWIDTH 70 0
BBX 56 71 7 0
BITMAP
FFE000000001FF
FFE000000001FF
FFF000000001FF
FFF000000001FF
FFF800000001FF
FFFC00000001FF
FFFC00000001FF
FFFE00000001FF
FFFF00000001FF
FFFF00000001FF
FFFF80000001FF
FFFFC0000001FF
FFFFC0000001FF
FFFFE0000001FF
FFBFE0000001FF
FFBFF0000001FF
FF9FF8000001FF
FF9FF8000001FF
FF8FFC000001FF
FF87FE000001FF
FF87FE000001FF
FF83FF000001FF
FF81FF800001FF
FF81FF800001FF
FF80FFC00001FF
FF807FC00001FF
FF807FE00001FF
FF803FF00001FF
FF801FF00001FF
FF801FF80001FF
FF800FFC0001FF
FF800FFC0001FF
FF8007FE0001FF
FF8003FF0001FF
FF8003FF0001FF
FF8001FF8001FF
FF8000FF8001FF
FF8000FFC001FF
FF80007FE001FF
FF80003FE001FF
FF80003FF001FF
FF80001FF801FF
FF80001FF801FF
FF80000FFC01FF
FF800007FE01FF
FF800007FE01FF
FF800003FF01FF
FF800001FF81FF
FF800001FF81FF
FF800000FFC1FF
FF8000007FC1FF
FF8000007FE1FF
FF8000003FF1FF
FF8000003FF1FF
FF8000001FF9FF
FF8000000FFDFF
FF8000000FFDFF
FF80000007FFFF
FF80000003FFFF
FF80000003FFFF
FF80000001FFFF
FF80000000FFFF
FF80000000FFFF
FF800000007FFF
FF800000007FFF
FF800000003FFF
FF800000001FFF
FF800000001FFF
FF800000000FFF
FF8000000007FF
FF8000000007FF
ENDCHAR
STARTCHAR 004F
ENCODING 79
SWIDTH 781 0
DWIDTH 76 0
BBX 68 74 4 -2
BITMAP
0000000FFF00000000
000001FFFFF8000000
00000FFFFFFF000000
00003FFFFFFFC00000
0000FFFFFFFFF00000
0001FFFFFFFFF80000
0007FFFFFFFFFE0000
000FFFFFFFFFFF0000
001FFFF001FFFF8000
003FFF80001FFFC000
007FFE000007FFE000
00FFF8000001FFF000
01FFE0000000FFF800
01FFC00000003FF800
03FF800000001FFC00
07FF000000000FFE00
07FE0000000007FE00
0FFC0000000007FF00
0FFC0000000003FF00
1FF80000000001FF80
1FF80000000001FF80
3FF00000000000FFC0
3FF00000000000FFC0
3FE000000000007FC0
7FE000000000007FE0
7FC000000000007FE0
7FC000000000003FE0
7FC000000000003FE0
FFC000000000003FE0
FF8000000000003FF0
FF8000000000001FF0
FF8000000000001FF0
FF8000000000001FF0
FF8000000000001FF0
FF8000000000001FF0
FF8000000000001FF0
FF8000000000001FF0
FF8000000000001FF0
FF8000000000001FF0
FF8000000000001FF0
FF8000000000001FF0
FF8000000000001FF0
FF8000000000001FF0
FF8000000000001FF0
FF8000000000003FF0
FFC000000000003FE0
7FC000000000003FE0
7FC000000000003FE0
7FC000000000007FE0
7FE000000000007FC0
3FE000000000007FC0
3FF00000000000FFC0
3FF00000000000FF80
1FF80000000001FF80
1FF80000000001FF80
0FFC0000000003FF00
0FFC0000000007FF00
07FE0000000007FE00
07FF000000000FFE00
03FF800000001FFC00
03FFC00000003FF800
01FFE0000000FFF800
00FFF8000001FFF000
007FFE000007FFE000
003FFF80001FFFC000
001FFFF801FFFF8000
000FFFFFFFFFFF0000
0007FFFFFFFFFE0000
0001FFFFFFFFF80000
0000FFFFFFFFF00000
00003FFFFFFFC00000
00000FFFFFFE000000
000001FFFFF8000000
0000001FFF00000000
ENDCHAR
STARTCHAR 0050
ENCODING 80
SWIDTH 668 0
DWIDTH 65 0
BBX 51 71 9 0
BITMAP
FFFFFFFFE00000
FFFFFFFFFE0000
FFFFFFFFFF8000
FFFFFFFFFFE000
FFFFFFFFFFF000
FFFFFFFFFFF800
FFFFFFFFFFFC00
FFFFFFFFFFFE00
FF800000FFFF00
FF8000001FFF00
FF80000007FF80
FF80000003FF80
FF80000001FFC0
FF80000000FFC0
FF80000000FFC0
FF800000007FE0
FF800000007FE0
FF800000007FE0
FF800000007FE0
FF800000003FE0
FF800000003FE0
FF800000003FE0
FF800000007FE0
FF800000007FE0
FF800000007FE0
FF800000007FE0
FF80000000FFC0
FF80000000FFC0
FF80000001FFC0
FF80000003FF80
FF80000007FF80
FF8000001FFF00
FF800000FFFF00
FFFFFFFFFFFE00
FFFFFFFFFFFC00
FFFFFFFFFFF800
FFFFFFFFFFF000
FFFFFFFFFFE000
FFFFFFFFFF8000
FFFFFFFFFE0000
FFFFFFFFF00000
FF800000000000
FF800000000000
FF800000000000
FF800000000000
FF800000000000
FF800000000000
FF800000000000
FF800000000000
FF800000000000
FF800000000000
FF800000000000
FF800000000000
FF800000000000
FF800000000000
FF800000000000
FF800000000000
FF800000000000
FF800000000000
FF800000000000
FF800000000000
FF800000000000
FF800000000000
FF800000000000
FF800000000000
FF800000000000
FF800000000000
FF800000000000
FF800000000000
FF800000000000
FF800000000000
ENDCHAR
STARTCHAR 0051
ENCODING 81
SWIDTH 781 0
DWIDTH 76 0
BBX 68 77 4 -5
BITMAP
0000000FFF00000000
000001FFFFF8000000
00000FFFFFFF000000
00003FFFFFFFC00000
0000FFFFFFFFF00000
0001FFFFFFFFF80000
0007FFFFFFFFFE0000
000FFFFFFFFFFF0000
001FFFF001FFFF8000
003FFF80001FFFC000
007FFE000007FFE000
00FFF8000001FFF000
01FFE0000000FFF800
01FFC00000003FF800
03FF800000001FFC00
07FF000000000FFE00
07FE0000000007FE00
0FFC0000000007FF00
0FFC0000000003FF00
1FF80000000001FF80
1FF80000000001FF80
3FF00000000000FFC0
3FF00000000000FFC0
3FE000000000007FC0
7FE000000000007FE0
7FC000000000007FE0
7FC000000000003FE0
7FC000000000003FE0
FFC000000000003FE0
FF8000000000003FF0
FF8000000000001FF0
FF8000000000001FF0
FF8000000000001FF0
FF8000000000001FF0
FF8000000000001FF0
FF8000000000001FF0
FF8000000000001FF0
FF8000000000001FF0
FF8000000000001FF0
FF8000000000001FF0
FF8000000000001FF0
FF8000000000001FF0
FF8000000000001FF0
FF8000000000001FF0
FF8000000000003FF0
FFC000000000003FE0
7FC000000000003FE0
7FC000000000003FE0
7FC000000000007FE0
7FE000000000007FC0
3FE000000000007FC0
3FF00000000000FFC0
3FF00000002000FF80
1FF80000007801FF80
1FF80000007C01FF80
0FFC000000FE03FF00
0FFC000001FF07FF00
07FE000003FFC7FE00
07FF000000FFEFFE00
03FF8000007FFFFC00
03FFC000003FFFF800
01FFE000001FFFF800
00FFF800000FFFF000
007FFE000007FFE000
003FFF80001FFFC000
001FFFF801FFFFE000
000FFFFFFFFFFFF800
0007FFFFFFFFFFFC00
0001FFFFFFFFFFFE00
0000FFFFFFFFF7FF00
00003FFFFFFFC3FFC0
00000FFFFFFF01FFE0
000001FFFFF8007FE0
0000001FFF00003FC0
000000000000001F80
000000000000000F00
000000000000000700
ENDCHAR
STARTCHAR 0052
ENCODING 82
SWIDTH 720 0
DWIDTH 70 0
BBX 57 71 9 0
BITMAP
FFFFFFFFFE000000
FFFFFFFFFFE00000
FFFFFFFFFFF80000
FFFFFFFFFFFE0000
FFFFFFFFFFFF0000
FFFFFFFFFFFF8000
FFFFFFFFFFFFC000
FFFFFFFFFFFFE000
FF8000000FFFF000
FF80000001FFF000
FF800000007FF800
FF800000003FF800
FF800000001FFC00
FF800000001FFC00
FF800000000FFC00
FF800000000FFC00
FF8000000007FC00
FF8000000007FC00
FF8000000007FC00
FF8000000007FC00
FF8000000007FC00
FF8000000007FC00
FF8000000007FC00
FF8000000007FC00
FF800000000FFC00
FF800000000FF800
FF800000000FF800
FF800000001FF000
FF800000003FF000
FF800000007FE000
FF80000000FFC000
FF80000007FF8000
FFFFFFFFFFFF0000
FFFFFFFFFFFE0000
FFFFFFFFFFF80000
FFFFFFFFFFE00000
FFFFFFFFFFF80000
FFFFFFFFFFFE0000
FFFFFFFFFFFF0000
FFFFFFFFFFFF8000
FF80000007FFC000
FF80000001FFE000
FF800000007FE000
FF800000003FF000
FF800000003FF000
FF800000001FF000
FF800000001FF000
FF800000000FF000
FF800000000FF800
FF800000000FF800
FF800000000FF800
FF800000000FF800
FF800000000FF800
FF800000000FF800
FF800000000FF800
FF800000000FF800
FF800000000FF800
FF800000000FF800
FF800000000FF800
FF800000000FF800
FF800000000FF800
FF800000000FF800
FF800000000FF800
FF800000000FFC00
FF800000000FFC00
FF800000000FFC00
FF8000000007FE00
FF8000000007FF00
FF8000000007FF80
FF8000000007FF80
FF8000000003FF80
ENDCHAR
STARTCHAR 0053
ENCODING 83
SWIDTH 668 0
DWIDTH 65 0
BBX 55 74 5 -2
BITMAP
000007FFC00000
0000FFFFFC0000
0003FFFFFF8000
000FFFFFFFE000
003FFFFFFFF000
007FFFFFFFFC00
00FFFFFFFFFE00
01FFFFFFFFFF00
03FFF0003FFF80
07FF800007FF80
0FFF000001FFC0
0FFC000000FFE0
1FF80000007FE0
1FF80000003FF0
1FF00000001FF0
3FF00000001FF0
3FE00000001FF8
3FE00000000FF8
3FE00000000FF8
3FE00000000FF8
3FE00000000FF8
3FE00000000FF8
3FE00000000000
3FF00000000000
3FF00000000000
3FF80000000000
1FFC0000000000
1FFF0000000000
1FFFC000000000
0FFFF800000000
07FFFF80000000
07FFFFF0000000
03FFFFFF000000
00FFFFFFF00000
007FFFFFFF0000
001FFFFFFFE000
0007FFFFFFF800
00007FFFFFFE00
000007FFFFFF80
000000FFFFFFC0
0000000FFFFFE0
00000000FFFFF0
000000001FFFF0
0000000003FFF8
0000000000FFFC
00000000003FFC
00000000001FFC
00000000000FFE
000000000007FE
FF0000000003FE
FF0000000003FE
FF0000000003FE
FF0000000003FE
FF8000000003FE
FF8000000003FE
FF8000000003FE
FFC000000003FE
7FC000000003FE
7FE000000007FC
7FE000000007FC
3FF00000000FFC
3FF80000001FF8
1FFE0000003FF8
0FFF0000007FF0
0FFFC00001FFE0
07FFFC001FFFE0
03FFFFFFFFFFC0
01FFFFFFFFFF80
00FFFFFFFFFF00
003FFFFFFFFC00
001FFFFFFFF000
0003FFFFFFC000
0000FFFFFE0000
000007FFE00000
ENDCHAR
STARTCHAR 0054
ENCODING 84
SWIDTH 606 0
DWIDTH 59 0
BBX 56 71 2 0
BITMAP
FFFFFFFFFFFFFF
FFFFFFFFFFFFFF
FFFFFFFFFFFFFF
FFFFFFFFFFFFFF
FFFFFFFFFFFFFF
FFFFFFFFFFFFFF
FFFFFFFFFFFFFF
FFFFFFFFFFFFFF
000001FF000000
000001FF000000
000001FF000000
000001FF000000
000001FF000000
000001FF000000
000001FF000000
000001FF000000
000001FF000000
000001FF000000
000001FF000000
000001FF000000
000001FF000000
000001FF000000
000001FF000000
000001FF000000
000001FF000000
000001FF000000
000001FF000000
000001FF000000
000001FF000000
000001FF000000
000001FF000000
000001FF000000
000001FF000000
000001FF000000
000001FF000000
000001FF000000
000001FF000000
000001FF000000
000001FF000000
000001FF000000
000001FF000000
000001FF000000
000001FF000000
000001FF000000
000001FF000000
000001FF000000
000001FF000000
000001FF000000
000001FF000000
000001FF000000
000001FF000000
000001FF000000
000001FF000000
000001FF000000
000001FF000000
000001FF000000
000001FF000000
000001FF000000
000001FF000000
000001FF000000
000001FF000000
000001FF000000
000001FF000000
000001FF000000
000001FF000000
000001FF000000
000001FF000000
000001FF000000
000001FF000000
000001FF000000
000001FF000000
ENDCHAR
STARTCHAR 0055
ENCODING 85
SWIDTH 720 0
DWIDTH 70 0
BBX 55 73 8 -2
BITMAP
FF8000000003FE
FF8000000003FE
FF8000000003FE
FF8000000003FE
FF8000000003FE
FF8000000003FE
FF8000000003FE
FF8000000003FE
FF8000000003FE
FF8000000003FE
FF8000000003FE
FF8000000003FE
FF8000000003FE
FF8000000003FE
FF8000000003FE
FF8000000003FE
FF8000000003FE
FF8000000003FE
FF8000000003FE
FF8000000003FE
FF8000000003FE
FF8000000003FE
FF8000000003FE
FF8000000003FE
FF8000000003FE
FF8000000003FE
FF8000000003FE
FF8000000003FE
FF8000000003FE
FF8000000003FE
FF8000000003FE
FF8000000003FE
FF8000000003FE
FF8000000003FE
FF8000000003FE
FF8000000003FE
FF8000000003FE
FF8000000003FE
FF8000000003FE
FF8000000003FE
FF8000000003FE
FF8000000003FE
FF8000000003FE
FF8000000003FE
FF8000000003FE
FF8000000003FE
FF8000000003FE
FF8000000003FE
FF8000000003FE
FF8000000003FE
FF8000000003FE
FF8000000003FE
FFC000000007FE
7FC000000007FC
7FC000000007FC
7FC000000007FC
7FE00000000FFC
7FE00000000FF8
3FF00000001FF8
3FF80000003FF8
1FFC0000007FF0
1FFE000000FFF0
0FFF000001FFE0
0FFFE0000FFFC0
07FFFC007FFF80
03FFFFFFFFFF80
01FFFFFFFFFE00
00FFFFFFFFFC00
003FFFFFFFF800
000FFFFFFFE000
0003FFFFFF8000
0000FFFFFC0000
000007FFC00000
ENDCHAR
STARTCHAR 0056
ENCODING 86
SWIDTH 668 0
DWIDTH 65 0
BBX 60 71 3 0
BITMAP
FFC0000000003FF0
FFC0000000003FE0
7FC0000000007FE0
7FE0000000007FC0
7FE0000000007FC0
3FF000000000FFC0
3FF000000000FF80
1FF000000000FF80
1FF800000001FF80
1FF800000001FF00
0FF800000001FF00
0FFC00000003FF00
0FFC00000003FE00
07FC00000003FE00
07FE00000007FE00
07FE00000007FC00
03FE00000007FC00
03FF0000000FFC00
01FF0000000FF800
01FF0000000FF800
01FF8000001FF800
00FF8000001FF000
00FF8000001FF000
00FFC000003FF000
007FC000003FE000
007FC000003FE000
007FE000007FE000
003FE000007FC000
003FF000007FC000
003FF00000FF8000
001FF00000FF8000
001FF80000FF8000
000FF80001FF0000
000FF80001FF0000
000FFC0001FF0000
0007FC0003FE0000
0007FC0003FE0000
0007FE0003FE0000
0003FE0003FC0000
0003FE0007FC0000
0003FF0007FC0000
0001FF0007F80000
0001FF000FF80000
0001FF800FF80000
0000FF800FF00000
0000FF801FF00000
00007FC01FF00000
00007FC01FE00000
00007FC03FE00000
00003FE03FE00000
00003FE03FC00000
00003FE07FC00000
00001FF07FC00000
00001FF07F800000
00001FF8FF800000
00000FF8FF000000
00000FF8FF000000
000007FDFF000000
000007FDFE000000
000007FDFE000000
000003FFFE000000
000003FFFC000000
000003FFFC000000
000001FFFC000000
000001FFF8000000
000001FFF8000000
000000FFF8000000
000000FFF0000000
000000FFF0000000
0000007FF0000000
0000007FE0000000
ENDCHAR
STARTCHAR 0057
ENCODING 87
SWIDTH 946 0
DWIDTH 92 0
BBX 88 71 2 0
BITMAP
FFC0000001FF80000003FF
FFE0000001FF80000003FF
7FE0000001FFC0000003FF
7FE0000003FFC0000007FE
7FE0000003FFC0000007FE
3FF0000003FFE0000007FE
3FF0000003FFE0000007FE
3FF0000007FFE000000FFC
3FF0000007FFE000000FFC
1FF0000007FFF000000FFC
1FF800000FFFF000000FFC
1FF800000FFFF000000FF8
1FF800000FFFF800001FF8
0FF800000FFFF800001FF8
0FFC00001FF7F800001FF8
0FFC00001FE7F800001FF0
0FFC00001FE7FC00003FF0
07FC00001FE7FC00003FF0
07FE00003FC3FC00003FF0
07FE00003FC3FE00003FE0
07FE00003FC3FE00003FE0
03FE00007FC1FE00007FE0
03FE00007F81FE00007FE0
03FF00007F81FF00007FC0
03FF00007F81FF00007FC0
01FF0000FF80FF0000FFC0
01FF0000FF00FF0000FFC0
01FF8000FF00FF8000FF80
01FF8000FF00FF8000FF80
00FF8001FF007F8000FF80
00FF8001FE007FC001FF80
00FFC001FE007FC001FF00
00FFC003FE003FC001FF00
007FC003FC003FC001FF00
007FC003FC003FE003FF00
007FC003FC003FE003FE00
007FE007FC001FE003FE00
003FE007F8001FF003FE00
003FE007F8001FF003FE00
003FE007F8000FF007FC00
003FF00FF8000FF007FC00
001FF00FF0000FF807FC00
001FF00FF0000FF807FC00
001FF01FF00007F80FF800
000FF81FE00007FC0FF800
000FF81FE00007FC0FF800
000FF81FE00003FC0FF800
000FF83FE00003FC1FF000
0007F83FC00003FE1FF000
0007FC3FC00003FE1FF000
0007FC3FC00001FE1FF000
0007FC7FC00001FE1FE000
0003FC7F800001FF3FE000
0003FE7F800001FF3FE000
0003FEFF800000FF3FC000
0003FEFF000000FFBFC000
0001FEFF000000FFFFC000
0001FFFF0000007FFFC000
0001FFFF0000007FFF8000
0001FFFE0000007FFF8000
0000FFFE0000007FFF8000
0000FFFE0000003FFF8000
0000FFFE0000003FFF0000
0000FFFC0000003FFF0000
00007FFC0000001FFF0000
00007FFC0000001FFF0000
00007FF80000001FFE0000
00007FF80000001FFE0000
00003FF80000000FFE0000
00003FF80000000FFE0000
00003FF00000000FFC0000
ENDCHAR
STARTCHAR 0058
ENCODING 88
SWIDTH 668 0
DWIDTH 65 0
BBX 61 71 2 0
BITMAP
3FF8000000007FF0
1FFC00000000FFE0
1FFC00000001FFC0
0FFE00000001FF80
07FF00000003FF80
07FF00000003FF00
03FF80000007FE00
01FFC000000FFE00
01FFC000000FFC00
00FFE000001FF800
007FF000003FF800
003FF000003FF000
003FF800007FE000
001FF80000FFE000
000FFC0000FFC000
000FFE0001FF8000
0007FE0003FF0000
0003FF0003FF0000
0003FF8007FE0000
0001FF800FFC0000
0000FFC00FFC0000
0000FFE01FF80000
00007FE03FF00000
00003FF03FF00000
00003FF87FE00000
00001FF8FFC00000
00000FFCFFC00000
00000FFFFF800000
000007FFFF000000
000003FFFF000000
000003FFFE000000
000001FFFC000000
000000FFF8000000
000000FFF8000000
0000007FF0000000
0000007FF8000000
000000FFF8000000
000001FFFC000000
000001FFFE000000
000003FFFE000000
000007FFFF000000
00000FFFFF800000
00000FFDFF800000
00001FF8FFC00000
00003FF87FE00000
00003FF07FF00000
00007FE03FF00000
0000FFE01FF80000
0000FFC01FFC0000
0001FF800FFC0000
0003FF800FFE0000
0003FF0007FF0000
0007FE0003FF0000
000FFE0003FF8000
001FFC0001FFC000
001FF80000FFC000
003FF80000FFE000
007FF000007FF000
007FE000003FF000
00FFE000003FF800
01FFC000001FFC00
01FF8000000FFE00
03FF8000000FFE00
07FF00000007FF00
07FE00000003FF80
0FFE00000003FF80
1FFC00000001FFC0
1FF800000000FFE0
3FF800000000FFE0
7FF0000000007FF0
FFE0000000003FF8
ENDCHAR
STARTCHAR 0059
ENCODING 89
SWIDTH 668 0
DWIDTH 65 0
BBX 62 71 2 0
BITMAP
FFE0000000001FFC
FFE0000000001FF8
7FF0000000003FF8
7FF8000000007FF0
3FF8000000007FE0
1FFC00000000FFE0
1FFC00000000FFC0
0FFE00000001FFC0
07FF00000003FF80
07FF00000003FF00
03FF80000007FF00
01FF80000007FE00
01FFC000000FFE00
00FFE000000FFC00
00FFE000001FF800
007FF000003FF800
003FF000003FF000
003FF800007FE000
001FFC00007FE000
000FFC0000FFC000
000FFE0001FFC000
0007FE0001FF8000
0007FF0003FF0000
0003FF8003FF0000
0001FF8007FE0000
0001FFC007FE0000
0000FFC00FFC0000
00007FE01FF80000
00007FF01FF80000
00003FF03FF00000
00001FF83FE00000
00001FF87FE00000
00000FFCFFC00000
00000FFEFFC00000
000007FFFF800000
000003FFFF000000
000003FFFF000000
000001FFFE000000
000000FFFC000000
000000FFFC000000
0000007FF8000000
0000003FF8000000
0000003FF0000000
0000001FF0000000
0000001FF0000000
0000001FF0000000
0000001FF0000000
0000001FF0000000
0000001FF0000000
0000001FF0000000
0000001FF0000000
0000001FF0000000
0000001FF0000000
0000001FF0000000
0000001FF0000000
0000001FF0000000
0000001FF0000000
0000001FF0000000
0000001FF0000000
0000001FF0000000
0000001FF0000000
0000001FF0000000
0000001FF0000000
0000001FF0000000
0000001FF0000000
0000001FF0000000
0000001FF0000000
0000001FF0000000
0000001FF0000000
0000001FF0000000
0000001FF0000000
ENDCHAR
STARTCHAR 005A
ENCODING 90
SWIDTH 606 0
DWIDTH 59 0
BBX 54 71 3 0
BITMAP
3FFFFFFFFFFFF8
3FFFFFFFFFFFF8
3FFFFFFFFFFFF8
3FFFFFFFFFFFF8
3FFFFFFFFFFFF8
3FFFFFFFFFFFF8
3FFFFFFFFFFFF8
3FFFFFFFFFFFF8
00000000003FF8
00000000007FF0
0000000000FFF0
0000000000FFE0
0000000001FFC0
0000000003FF80
0000000007FF80
000000000FFF00
000000000FFE00
000000001FFC00
000000003FF800
000000007FF800
000000007FF000
00000000FFE000
00000001FFC000
00000003FFC000
00000003FF8000
00000007FF0000
0000000FFE0000
0000001FFE0000
0000003FFC0000
0000003FF80000
0000007FF00000
000000FFE00000
000001FFE00000
000001FFC00000
000003FF800000
000007FF000000
00000FFF000000
00001FFE000000
00001FFC000000
00003FF8000000
00007FF0000000
0000FFF0000000
0000FFE0000000
0001FFC0000000
0003FF80000000
0007FF80000000
000FFF00000000
000FFE00000000
001FFC00000000
003FFC00000000
007FF800000000
007FF000000000
00FFE000000000
01FFC000000000
03FFC000000000
03FF8000000000
07FF0000000000
0FFE0000000000
1FFE0000000000
3FFC0000000000
3FF80000000000
7FF00000000000
FFF00000000000
FFFFFFFFFFFFFC
FFFFFFFFFFFFFC
FFFFFFFFFFFFFC
FFFFFFFFFFFFFC
FFFFFFFFFFFFFC
FFFFFFFFFFFFFC
FFFFFFFFFFFFFC
FFFFFFFFFFFFFC
ENDCHAR
STARTCHAR 005B
ENCODING 91
SWIDTH 277 0
DWIDTH 27 0
BBX 18 92 6 -21
BITMAP
FFFFC0
FFFFC0
FFFFC0
FFFFC0
FFFFC0
FFFFC0
FFFFC0
FF0000
FF0000
FF0000
FF0000
FF0000
FF0000
FF0000
FF0000
FF0000
FF0000
FF0000
FF0000
FF0000
FF0000
FF0000
FF0000
FF0000
FF0000
FF0000
FF0000
FF0000
FF0000
FF0000
FF0000
FF0000
FF0000
FF0000
FF0000
FF0000
FF0000
FF0000
FF0000
FF0000
FF0000
FF0000
FF0000
FF0000
FF0000
FF0000
FF0000
FF0000
FF0000
FF0000
FF0000
FF0000
FF0000
FF0000
FF0000
FF0000
FF0000
FF0000
FF0000
FF0000
FF0000
FF0000
FF0000
FF0000
FF0000
FF0000
FF0000
FF0000
FF0000
FF0000
FF0000
FF0000
FF0000
FF0000
FF0000
FF0000
FF0000
FF0000
FF0000
FF0000
FF0000
FF0000
FF0000
FF0000
FF0000
FFFFC0
FFFFC0
FFFFC0
FFFFC0
FFFFC0
FFFFC0
FFFFC0
ENDCHAR
STARTCHAR 005C
ENCODING 92
SWIDTH 277 0
DWIDTH 27 0
BBX 28 73 -1 -2
BITMAP
FC000000
7C000000
7C000000
7E000000
3E000000
3E000000
3F000000
1F000000
1F000000
1F800000
0F800000
0F800000
0FC00000
0FC00000
07C00000
07C00000
07E00000
03E00000
03E00000
03F00000
01F00000
01F00000
01F80000
00F80000
00F80000
00FC0000
007C0000
007C0000
007E0000
003E0000
003E0000
003F0000
003F0000
001F0000
001F0000
001F8000
000F8000
000F8000
000FC000
0007C000
0007C000
0007E000
0003E000
0003E000
0003F000
0001F000
0001F000
0001F800
0000F800
0000F800
0000FC00
0000FC00
00007C00
00007C00
00007E00
00003E00
00003E00
00003F00
00001F00
00001F00
00001F80
00000F80
00000F80
00000FC0
000007C0
000007C0
000007E0
000007E0
000003E0
000003F0
000003F0
000001F0
000001F0
ENDCHAR
STARTCHAR 005D
ENCODING 93
SWIDTH 277 0
DWIDTH 27 0
BBX 18 92 2 -21
BITMAP
FFFFC0
FFFFC0
FFFFC0
FFFFC0
FFFFC0
FFFFC0
FFFFC0
003FC0
003FC0
003FC0
003FC0
003FC0
003FC0
003FC0
003FC0
003FC0
003FC0
003FC0
003FC0
003FC0
003FC0
003FC0
003FC0
003FC0
003FC0
003FC0
003FC0
003FC0
003FC0
003FC0
003FC0
003FC0
003FC0
003FC0
003FC0
003FC0
003FC0
003FC0
003FC0
003FC0
003FC0
003FC0
003FC0
003FC0
003FC0
003FC0
003FC0
003FC0
003FC0
003FC0
003FC0
003FC0
003FC0
003FC0
003FC0
003FC0
003FC0
003FC0
003FC0
003FC0
003FC0
003FC0
003FC0
003FC0
003FC0
003FC0
003FC0
003FC0
003FC0
003FC0
003FC0
003FC0
003FC0
003FC0
003FC0
003FC0
003FC0
003FC0
003FC0
003FC0
003FC0
003FC0
003FC0
003FC0
003FC0
FFFFC0
FFFFC0
FFFFC0
FFFFC0
FFFFC0
FFFFC0
FFFFC0
ENDCHAR
STARTCHAR 005E
ENCODING 94
SWIDTH 473 0
DWIDTH 46 0
BBX 37 37 4 32
BITMAP
0001FC0000
0001FE0000
0003FE0000
0003FF0000
0007FF0000
0007FF0000
0007FF8000
000FFF8000
000FDFC000
001FDFC000
001FCFE000
001F8FE000
003F87E000
003F07F000
007F07F000
007F03F800
007E03F800
00FE01F800
00FC01FC00
01FC01FC00
01FC00FE00
01F800FE00
03F8007E00
03F0007F00
07F0007F00
07F0003F80
07E0003F80
0FE0001F80
0FC0001FC0
1FC0000FC0
1FC0000FE0
3F80000FE0
3F800007E0
3F000007F0
7F000003F0
7F000003F8
FE000003F8
ENDCHAR
STARTCHAR 005F
ENCODING 95
SWIDTH 555 0
DWIDTH 54 0
BBX 58 5 -2 -17
BITMAP
FFFFFFFFFFFFFFC0
FFFFFFFFFFFFFFC0
FFFFFFFFFFFFFFC0
FFFFFFFFFFFFFFC0
FFFFFFFFFFFFFFC0
ENDCHAR
STARTCHAR 0060
ENCODING 96
SWIDTH 329 0
DWIDTH 32 0
BBX 19 14 3 58
BITMAP
FFC000
7FE000
3FF000
1FF000
0FF800
07FC00
03FC00
01FE00
00FF00
007F00
003F80
001FC0
000FC0
0007E0
ENDCHAR
STARTCHAR 0061
ENCODING 97
SWIDTH 555 0
DWIDTH 54 0
BBX 48 54 4 -2
BITMAP
00007FF80000
0007FFFF8000
001FFFFFE000
007FFFFFF800
01FFFFFFFC00
03FFFFFFFE00
07FFFFFFFF00
07FFFFFFFF80
0FFF0007FF80
0FFC0001FF80
1FF80000FFC0
1FF000007FC0
1FF000007FC0
1FE000003FC0
3FE000003FC0
3FE000003FC0
000000003FC0
000000003FC0
000000003FC0
000000007FC0
00000000FFC0
00000001FFC0
0000003FFFC0
00001FFFFFC0
0007FFFFFFC0
007FFFFFFFC0
01FFFFFFFFC0
03FFFFFF3FC0
0FFFFFF83FC0
1FFFFC003FC0
1FFF80003FC0
3FFC00003FC0
7FF000003FC0
7FE000003FC0
7FC000003FC0
FF8000003FC0
FF8000003FC0
FF8000003FC0
FF8000007FC0
FF8000007FC0
FF800000FFC0
FF800000FFC0
FF800001FFC0
7FC00007FFC0
7FE0000FFFC0
7FF0003FFFE0
3FFE01FFFFF0
3FFFFFFFBFFF
1FFFFFFF3FFF
0FFFFFFC1FFF
07FFFFF81FFF
01FFFFE00FFF
007FFF8007FF
000FFC0001FC
ENDCHAR
STARTCHAR 0062
ENCODING 98
SWIDTH 555 0
DWIDTH 54 0
BBX 46 73 5 -2
BITMAP
FF0000000000
FF0000000000
FF0000000000
FF0000000000
FF0000000000
FF0000000000
FF0000000000
FF0000000000
FF0000000000
FF0000000000
FF0000000000
FF0000000000
FF0000000000
FF0000000000
FF0000000000
FF0000000000
FF0000000000
FF0000000000
FF0000000000
FF001FF80000
FF00FFFF0000
FF03FFFFE000
FF07FFFFF000
FF0FFFFFFC00
FF1FFFFFFE00
FF3FFFFFFF00
FF7FFFFFFF00
FFFFC01FFF80
FFFF0003FFC0
FFFC0001FFC0
FFF80000FFE0
FFF000007FE0
FFF000003FF0
FFE000003FF0
FFE000001FF0
FFC000001FF8
FFC000000FF8
FF8000000FF8
FF8000000FF8
FF80000007F8
FF80000007FC
FF80000007FC
FF80000007FC
FF00000007FC
FF00000007FC
FF00000007FC
FF00000007FC
FF00000007FC
FF00000007FC
FF80000007FC
FF80000007FC
FF80000007F8
FF80000007F8
FF8000000FF8
FFC000000FF8
FFC000000FF8
FFC000001FF0
FFE000001FF0
FFE000003FF0
FFF000003FE0
FFF800007FE0
FFF80000FFC0
FFFC0001FFC0
FFFF0003FF80
FFFFC00FFF80
FFFFFFFFFF00
FF7FFFFFFE00
FF3FFFFFFC00
FF1FFFFFF800
FF0FFFFFE000
FF03FFFFC000
0000FFFF0000
00001FF00000
ENDCHAR
STARTCHAR 0063
ENCODING 99
SWIDTH 504 0
DWIDTH 49 0
BBX 43 54 3 -2
BITMAP
00003FF00000
0003FFFE0000
000FFFFF8000
001FFFFFE000
007FFFFFF000
00FFFFFFFC00
01FFFFFFFE00
03FFFFFFFE00
07FF800FFF00
07FF0003FF80
0FFC0001FF80
0FF80000FF80
1FF000007FC0
1FF000007FC0
3FE000003FC0
3FE000003FC0
3FC000003FE0
7FC000003FE0
7FC000000000
7F8000000000
7F8000000000
FF8000000000
FF8000000000
FF8000000000
FF8000000000
FF8000000000
FF8000000000
FF0000000000
FF8000000000
FF8000000000
FF8000000000
FF8000000000
FF8000000000
FF8000000000
7F8000001FE0
7F8000001FE0
7FC000001FE0
7FC000001FE0
3FE000003FE0
3FE000003FE0
3FF000007FC0
1FF000007FC0
1FF80000FF80
0FFC0001FF80
0FFF0003FF80
07FFC00FFF00
03FFFFFFFE00
01FFFFFFFC00
00FFFFFFF800
007FFFFFF000
003FFFFFE000
000FFFFF8000
0003FFFE0000
00007FF00000
ENDCHAR
STARTCHAR 0064
ENCODING 100
SWIDTH 555 0
DWIDTH 54 0
BBX 45 73 3 -2
BITMAP
0000000007F8
0000000007F8
0000000007F8
0000000007F8
0000000007F8
0000000007F8
0000000007F8
0000000007F8
0000000007F8
0000000007F8
0000000007F8
0000000007F8
0000000007F8
0000000007F8
0000000007F8
0000000007F8
0000000007F8
0000000007F8
0000000007F8
00007FC007F8
0007FFFC07F8
001FFFFF07F8
003FFFFF87F8
00FFFFFFC7F8
01FFFFFFE7F8
03FFFFFFF7F8
07FFFFFFFFF8
07FFC00FFFF8
0FFF0003FFF8
1FFC0001FFF8
1FF80000FFF8
3FF000007FF8
3FF000003FF8
3FE000003FF8
7FC000001FF8
7FC000001FF8
7FC000000FF8
FF8000000FF8
FF8000000FF8
FF8000000FF8
FF00000007F8
FF00000007F8
FF00000007F8
FF00000007F8
FF00000007F8
FF00000007F8
FF00000007F8
FF00000007F8
FF00000007F8
FF00000007F8
FF00000007F8
FF80000007F8
FF8000000FF8
FF8000000FF8
FF8000000FF8
7FC000000FF8
7FC000001FF8
7FE000001FF8
3FE000003FF8
3FF000003FF8
3FF000007FF8
1FF80000FFF8
1FFC0001FFF8
0FFF0003FFF8
07FFC00FFFF8
07FFFFFFFBF8
03FFFFFFF3F8
01FFFFFFE3F8
00FFFFFFC3F8
003FFFFF83F8
001FFFFE03F8
0007FFFC0000
00007FC00000
ENDCHAR
STARTCHAR 0065
ENCODING 101
SWIDTH 555 0
DWIDTH 54 0
BBX 46 54 4 -2
BITMAP
00003FF00000
0001FFFF0000
0007FFFFC000
001FFFFFF000
007FFFFFF800
00FFFFFFFC00
01FFFFFFFE00
03FFFFFFFF00
07FFC00FFF80
07FF0003FFC0
0FFC0000FFC0
0FF800007FE0
1FF000003FE0
1FF000003FF0
3FE000001FF0
3FC000000FF8
7FC000000FF8
7FC000000FF8
7F80000007F8
7F80000007F8
7F80000007FC
FF80000007FC
FF80000007FC
FFFFFFFFFFFC
FFFFFFFFFFFC
FFFFFFFFFFFC
FFFFFFFFFFFC
FFFFFFFFFFFC
FFFFFFFFFFFC
FFFFFFFFFFFC
FF0000000000
FF0000000000
FF8000000000
FF8000000000
FF8000000000
7F8000000000
7F8000000000
7FC000000FF8
7FC000000FF0
3FE000001FF0
3FE000001FF0
1FF000003FE0
1FF800007FE0
0FFC0000FFC0
0FFF0001FFC0
07FFC007FF80
03FFFEFFFF00
01FFFFFFFF00
00FFFFFFFC00
007FFFFFF800
003FFFFFF000
000FFFFFC000
0003FFFF0000
00003FF00000
ENDCHAR
STARTCHAR 0066
ENCODING 102
SWIDTH 277 0
DWIDTH 27 0
BBX 23 71 2 0
BITMAP
0001FE
000FFE
003FFE
007FFE
007FFE
00FFFE
01FFFE
01FFC0
01FF00
01FE00
01FE00
01FE00
01FE00
01FE00
01FE00
01FE00
01FE00
01FE00
01FE00
01FE00
FFFFFE
FFFFFE
FFFFFE
FFFFFE
FFFFFE
FFFFFE
FFFFFE
01FE00
01FE00
01FE00
01FE00
01FE00
01FE00
01FE00
01FE00
01FE00
01FE00
01FE00
01FE00
01FE00
01FE00
01FE00
01FE00
01FE00
01FE00
01FE00
01FE00
01FE00
01FE00
01FE00
01FE00
01FE00
01FE00
01FE00
01FE00
01FE00
01FE00
01FE00
01FE00
01FE00
01FE00
01FE00
01FE00
01FE00
01FE00
01FE00
01FE00
01FE00
01FE00
01FE00
01FE00
ENDCHAR
STARTCHAR 0067
ENCODING 103
SWIDTH 555 0
DWIDTH 54 0
BBX 44 73 3 -21
BITMAP
00007FC00000
0003FFF80FF0
000FFFFC0FF0
001FFFFF0FF0
007FFFFF8FF0
00FFFFFFCFF0
01FFFFFFEFF0
03FFFFFFFFF0
03FF801FFFF0
07FE0007FFF0
0FFC0003FFF0
0FF80001FFF0
1FF00000FFF0
1FF000007FF0
1FE000007FF0
3FE000003FF0
3FC000003FF0
3FC000003FF0
7FC000001FF0
7FC000001FF0
7F8000001FF0
7F8000001FF0
7F8000001FF0
7F8000001FF0
7F8000001FF0
FF8000001FF0
FF8000001FF0
FF8000001FF0
FF8000001FF0
FF8000001FF0
7F8000001FF0
7F8000001FF0
7F8000001FF0
7F8000001FF0
7FC000001FF0
7FC000001FF0
7FC000003FF0
3FC000003FF0
3FE000003FF0
3FE000007FF0
1FF000007FF0
1FF00000FFF0
0FF80001FFF0
0FFC0003FFF0
07FE0007FFF0
03FF801FFFF0
03FFFFFFDFF0
01FFFFFFDFF0
00FFFFFF9FF0
007FFFFF1FF0
003FFFFE1FF0
000FFFF81FE0
0003FFF01FE0
00007F801FE0
000000001FE0
000000001FE0
000000001FE0
000000003FE0
3FE000003FC0
3FE000003FC0
1FE000007FC0
1FF000007F80
1FF00000FF80
0FF80001FF00
0FFC0003FF00
07FF801FFE00
07FFFFFFFC00
03FFFFFFF800
01FFFFFFF000
007FFFFFE000
003FFFFF8000
0007FFFE0000
0000FFE00000
ENDCHAR
STARTCHAR 0068
ENCODING 104
SWIDTH 555 0
DWIDTH 54 0
BBX 40 71 7 0
BITMAP
FF00000000
FF00000000
FF00000000
FF00000000
FF00000000
FF00000000
FF00000000
FF00000000
FF00000000
FF00000000
FF00000000
FF00000000
FF00000000
FF00000000
FF00000000
FF00000000
FF00000000
FF00000000
FF00000000
FF001FF800
FF00FFFF00
FF03FFFFC0
FF07FFFFF0
FF1FFFFFF8
FF3FFFFFFC
FF3FFFFFFC
FF7FC07FFE
FFFF000FFE
FFFC0007FF
FFF80003FF
FFF00001FF
FFE00001FF
FFC00000FF
FFC00000FF
FF800000FF
FF800000FF
FF800000FF
FF800000FF
FF000000FF
FF000000FF
FF000000FF
FF000000FF
FF000000FF
FF000000FF
FF000000FF
FF000000FF
FF000000FF
FF000000FF
FF000000FF
FF000000FF
FF000000FF
FF000000FF
FF000000FF
FF000000FF
FF000000FF
FF000000FF
FF000000FF
FF000000FF
FF000000FF
FF000000FF
FF000000FF
FF000000FF
FF000000FF
FF000000FF
FF000000FF
FF000000FF
FF000000FF
FF000000FF
FF000000FF
FF000000FF
FF000000FF
ENDCHAR
STARTCHAR 0069
ENCODING 105
SWIDTH 226 0
DWIDTH 22 0
BBX 9 71 6 0
BITMAP
FF80
FF80
FF80
FF80
FF80
FF80
FF80
FF80
FF80
FF80
0000
0000
0000
0000
0000
0000
0000
0000
0000
0000
FF80
FF80
FF80
FF80
FF80
FF80
FF80
FF80
FF80
FF80
FF80
FF80
FF80
FF80
FF80
FF80
FF80
FF80
FF80
FF80
FF80
FF80
FF80
FF80
FF80
FF80
FF80
FF80
FF80
FF80
FF80
FF80
FF80
FF80
FF80
FF80
FF80
FF80
FF80
FF80
FF80
FF80
FF80
FF80
FF80
FF80
FF80
FF80
FF80
FF80
FF80
ENDCHAR
STARTCHAR 006A
ENCODING 106
SWIDTH 226 0
DWIDTH 22 0
BBX 17 92 -2 -21
BITMAP
007F80
007F80
007F80
007F80
007F80
007F80
007F80
007F80
007F80
007F80
000000
000000
000000
000000
000000
000000
000000
000000
000000
000000
007F80
007F80
007F80
007F80
007F80
007F80
007F80
007F80
007F80
007F80
007F80
007F80
007F80
007F80
007F80
007F80
007F80
007F80
007F80
007F80
007F80
007F80
007F80
007F80
007F80
007F80
007F80
007F80
007F80
007F80
007F80
007F80
007F80
007F80
007F80
007F80
007F80
007F80
007F80
007F80
007F80
007F80
007F80
007F80
007F80
007F80
007F80
007F80
007F80
007F80
007F80
007F80
007F80
007F80
007F80
007F80
007F80
007F80
007F80
007F80
007F80
00FF80
00FF80
01FF80
03FF80
FFFF00
FFFF00
FFFE00
FFFC00
FFF800
FFF000
FF8000
ENDCHAR
STARTCHAR 006B
ENCODING 107
SWIDTH 504 0
DWIDTH 49 0
BBX 42 71 6 0
BITMAP
FF0000000000
FF0000000000
FF0000000000
FF0000000000
FF0000000000
FF0000000000
FF0000000000
FF0000000000
FF0000000000
FF0000000000
FF0000000000
FF0000000000
FF0000000000
FF0000000000
FF0000000000
FF0000000000
FF0000000000
FF0000000000
FF0000000000
FF0000000000
FF000007FE00
FF00000FFC00
FF00001FF800
FF00003FF000
FF00007FE000
FF0000FFC000
FF0001FF8000
FF0003FF0000
FF0007FE0000
FF000FFC0000
FF001FF80000
FF003FF00000
FF007FE00000
FF00FFC00000
FF01FF800000
FF03FF000000
FF07FE000000
FF0FFC000000
FF1FFE000000
FF3FFE000000
FF7FFF000000
FFFFFF000000
FFFFFF800000
FFFEFFC00000
FFFCFFC00000
FFF87FE00000
FFF03FF00000
FFE03FF00000
FFC01FF80000
FF801FF80000
FF000FFC0000
FF0007FE0000
FF0007FE0000
FF0003FF0000
FF0001FF8000
FF0001FF8000
FF0000FFC000
FF0000FFC000
FF00007FE000
FF00003FF000
FF00003FF000
FF00001FF800
FF00001FFC00
FF00000FFC00
FF000007FE00
FF000007FE00
FF000003FF00
FF000001FF80
FF000001FF80
FF000000FFC0
FF000000FFC0
ENDCHAR
STARTCHAR 006C
ENCODING 108
SWIDTH 226 0
DWIDTH 22 0
BBX 8 71 7 0
BITMAP
FF
FF
FF
FF
FF
FF
FF
FF
FF
FF
FF
FF
FF
FF
FF
FF
FF
FF
FF
FF
FF
FF
FF
FF
FF
FF
FF
FF
FF
FF
FF
FF
FF
FF
FF
FF
FF
FF
FF
FF
FF
FF
FF
FF
FF
FF
FF
FF
FF
FF
FF
FF
FF
FF
FF
FF
FF
FF
FF
FF
FF
FF
FF
FF
FF
FF
FF
FF
FF
FF
FF
ENDCHAR
STARTCHAR 006D
ENCODING 109
SWIDTH 833 0
DWIDTH 81 0
BBX 67 52 7 0
BITMAP
00007FF00001FF8000
FE03FFFE000FFFF000
FE07FFFF003FFFFC00
FE1FFFFF807FFFFE00
FE3FFFFFC0FFFFFF00
FE7FFFFFE1FFFFFF80
FE7FFFFFF3FFFFFF80
FEFF81FFFFFE0FFFC0
FFFE007FFFF001FFC0
FFF8001FFFE000FFE0
FFF0000FFF80007FE0
FFE0000FFF80003FE0
FFC00007FF00003FE0
FFC00007FE00003FE0
FF800007FE00001FE0
FF800007FC00001FE0
FF000007FC00001FE0
FF000007FC00001FE0
FF000007FC00001FE0
FF000007FC00001FE0
FF000007FC00001FE0
FF000007FC00001FE0
FF000007FC00001FE0
FF000007FC00001FE0
FF000007FC00001FE0
FF000007FC00001FE0
FF000007FC00001FE0
FF000007FC00001FE0
FF000007FC00001FE0
FF000007FC00001FE0
FF000007FC00001FE0
FF000007FC00001FE0
FF000007FC00001FE0
FF000007FC00001FE0
FF000007FC00001FE0
FF000007FC00001FE0
FF000007FC00001FE0
FF000007FC00001FE0
FF000007FC00001FE0
FF000007FC00001FE0
FF000007FC00001FE0
FF000007FC00001FE0
FF000007FC00001FE0
FF000007FC00001FE0
FF000007FC00001FE0
FF000007FC00001FE0
FF000007FC00001FE0
FF000007FC00001FE0
FF000007FC00001FE0
FF000007FC00001FE0
FF000007FC00001FE0
FF000007FC00001FE0
ENDCHAR
STARTCHAR 006E
ENCODING 110
SWIDTH 555 0
DWIDTH 54 0
BBX 40 52 7 0
BITMAP
00003FF800
FE01FFFF00
FE03FFFFC0
FE0FFFFFF0
FE1FFFFFF8
FE3FFFFFFC
FE3FFFFFFC
FE7FC07FFE
FEFF000FFE
FFFC0007FF
FFF80003FF
FFF00001FF
FFE00001FF
FFE00000FF
FFC00000FF
FFC00000FF
FF800000FF
FF800000FF
FF800000FF
FF000000FF
FF000000FF
FF000000FF
FF000000FF
FF000000FF
FF000000FF
FF000000FF
FF000000FF
FF000000FF
FF000000FF
FF000000FF
FF000000FF
FF000000FF
FF000000FF
FF000000FF
FF000000FF
FF000000FF
FF000000FF
FF000000FF
FF000000FF
FF000000FF
FF000000FF
FF000000FF
FF000000FF
FF000000FF
FF000000FF
FF000000FF
FF000000FF
FF000000FF
FF000000FF
FF000000FF
FF000000FF
FF000000FF
ENDCHAR
STARTCHAR 006F
ENCODING 111
SWIDTH 555 0
DWIDTH 54 0
BBX 46 54 4 -2
BITMAP
00007FF00000
0003FFFF0000
000FFFFFC000
003FFFFFF000
00FFFFFFF800
01FFFFFFFC00
03FFFFFFFE00
07FFFFFFFF00
07FF800FFF80
0FFE0003FF80
1FFC0001FFC0
1FF80000FFC0
3FF000007FE0
3FE000003FE0
7FE000003FF0
7FC000001FF0
7FC000001FF0
7F8000000FF8
FF8000000FF8
FF8000000FF8
FF8000000FF8
FF00000007F8
FF00000007F8
FF00000007F8
FF00000007FC
FF00000007FC
FF00000007FC
FF00000007FC
FF00000007FC
FF00000007FC
FF00000007F8
FF00000007F8
FF00000007F8
FF80000007F8
FF8000000FF8
FF8000000FF8
7F8000000FF8
7FC000001FF0
7FC000001FF0
7FE000003FF0
3FE000003FE0
3FF000007FE0
1FF80000FFC0
1FFC0001FFC0
0FFE0003FF80
07FF800FFF80
07FFFDFFFF00
03FFFFFFFE00
01FFFFFFFC00
00FFFFFFF800
003FFFFFE000
001FFFFFC000
0003FFFE0000
00007FF00000
ENDCHAR
STARTCHAR 0070
ENCODING 112
SWIDTH 555 0
DWIDTH 54 0
BBX 46 73 5 -21
BITMAP
00003FF80000
FF00FFFF0000
FF03FFFFC000
FF0FFFFFF000
FF1FFFFFF800
FF3FFFFFFC00
FF7FFFFFFE00
FF7FFFFFFF00
FFFFC00FFF80
FFFF0003FF80
FFFC0001FFC0
FFF80000FFE0
FFF800007FE0
FFF000003FE0
FFE000003FF0
FFE000001FF0
FFC000001FF0
FFC000000FF8
FFC000000FF8
FF8000000FF8
FF80000007F8
FF80000007F8
FF80000007FC
FF80000007FC
FF80000007FC
FF00000007FC
FF00000007FC
FF00000007FC
FF00000007FC
FF80000007FC
FF80000007FC
FF80000007FC
FF80000007FC
FF80000007F8
FF80000007F8
FFC000000FF8
FFC000000FF8
FFC000001FF8
FFE000001FF0
FFE000003FF0
FFF000003FF0
FFF800007FE0
FFF80000FFE0
FFFE0001FFC0
FFFF0003FFC0
FFFFC00FFF80
FFFFFFFFFF00
FF7FFFFFFE00
FF3FFFFFFC00
FF1FFFFFF800
FF07FFFFF000
FF03FFFFC000
FF00FFFF0000
FF001FF80000
FF0000000000
FF0000000000
FF0000000000
FF0000000000
FF0000000000
FF0000000000
FF0000000000
FF0000000000
FF0000000000
FF0000000000
FF0000000000
FF0000000000
FF0000000000
FF0000000000
FF0000000000
FF0000000000
FF0000000000
FF0000000000
FF0000000000
ENDCHAR
STARTCHAR 0071
ENCODING 113
SWIDTH 555 0
DWIDTH 54 0
BBX 45 73 3 -21
BITMAP
00007FC00000
0003FFFC03F8
000FFFFF03F8
003FFFFF83F8
007FFFFFE3F8
00FFFFFFF3F8
01FFFFFFFBF8
03FFFFFFFFF8
07FFC00FFFF8
0FFF0003FFF8
0FFC0001FFF8
1FF80000FFF8
1FF000007FF8
3FF000003FF8
3FE000003FF8
7FC000001FF8
7FC000001FF8
7FC000000FF8
7F8000000FF8
FF8000000FF8
FF8000000FF8
FF00000007F8
FF00000007F8
FF00000007F8
FF00000007F8
FF00000007F8
FF00000007F8
FF00000007F8
FF00000007F8
FF00000007F8
FF00000007F8
FF00000007F8
FF80000007F8
FF8000000FF8
FF8000000FF8
FF8000000FF8
FFC000000FF8
7FC000001FF8
7FE000001FF8
7FE000003FF8
3FF000003FF8
3FF000007FF8
1FF80000FFF8
1FFC0001FFF8
0FFF0003FFF8
0FFFC00FFFF8
07FFFFFFFFF8
03FFFFFFF7F8
01FFFFFFE7F8
00FFFFFFC7F8
007FFFFF87F8
001FFFFE07F8
0007FFF807F8
0000FFC007F8
0000000007F8
0000000007F8
0000000007F8
0000000007F8
0000000007F8
0000000007F8
0000000007F8
0000000007F8
0000000007F8
0000000007F8
0000000007F8
0000000007F8
0000000007F8
0000000007F8
0000000007F8
0000000007F8
0000000007F8
0000000007F8
0000000007F8
ENDCHAR
STARTCHAR 0072
ENCODING 114
SWIDTH 329 0
DWIDTH 32 0
BBX 24 52 7 0
BITMAP
00003F
FE00FF
FE03FF
FE07FF
FE0FFF
FE1FFF
FE3FFF
FE7FFF
FE7FE0
FEFF00
FFFC00
FFF800
FFF000
FFE000
FFC000
FFC000
FF8000
FF8000
FF8000
FF0000
FF0000
FF0000
FF0000
FF0000
FF0000
FF0000
FF0000
FF0000
FF0000
FF0000
FF0000
FF0000
FF0000
FF0000
FF0000
FF0000
FF0000
FF0000
FF0000
FF0000
FF0000
FF0000
FF0000
FF0000
FF0000
FF0000
FF0000
FF0000
FF0000
FF0000
FF0000
FF0000
ENDCHAR
STARTCHAR 0073
ENCODING 115
SWIDTH 504 0
DWIDTH 49 0
BBX 42 54 3 -2
BITMAP
0000FFE00000
000FFFFC0000
003FFFFF8000
00FFFFFFC000
01FFFFFFE000
03FFFFFFF000
07FFFFFFF800
0FFFFFFFFC00
1FFE003FFC00
1FF8000FFE00
3FF00007FE00
3FE00003FE00
3FC00003FE00
3FC00001FF00
3FC00001FF00
3FC00001FF00
3FC000000000
3FE000000000
3FE000000000
3FF000000000
3FFC00000000
1FFF80000000
1FFFF8000000
0FFFFF800000
07FFFFF80000
03FFFFFF0000
00FFFFFFC000
003FFFFFF000
0007FFFFFC00
0000FFFFFE00
00000FFFFE00
000000FFFF00
0000000FFF80
00000003FF80
00000000FF80
00000000FF80
000000007FC0
FF8000007FC0
FF8000007FC0
7F8000007FC0
7FC000007F80
7FC000007F80
7FE00000FF80
7FF00001FF80
3FF80003FF00
3FFE000FFF00
1FFFFBFFFE00
0FFFFFFFFC00
0FFFFFFFF800
07FFFFFFF000
01FFFFFFE000
00FFFFFF8000
003FFFFC0000
0003FFC00000
ENDCHAR
STARTCHAR 0074
ENCODING 116
SWIDTH 277 0
DWIDTH 27 0
BBX 24 67 1 -2
BITMAP
01FE00
01FE00
01FE00
01FE00
01FE00
01FE00
01FE00
01FE00
01FE00
01FE00
01FE00
01FE00
01FE00
01FE00
FFFFFF
FFFFFF
FFFFFF
FFFFFF
FFFFFF
FFFFFF
FFFFFF
01FE00
01FE00
01FE00
01FE00
01FE00
01FE00
01FE00
01FE00
01FE00
01FE00
01FE00
01FE00
01FE00
01FE00
01FE00
01FE00
01FE00
01FE00
01FE00
01FE00
01FE00
01FE00
01FE00
01FE00
01FE00
01FE00
01FE00
01FE00
01FE00
01FE00
01FE00
01FE00
01FE00
01FE00
01FE00
01FE00
01FF00
01FF00
01FF80
01FFFF
00FFFF
00FFFF
007FFF
007FFF
001FFF
0007FE
ENDCHAR
STARTCHAR 0075
ENCODING 117
SWIDTH 555 0
DWIDTH 54 0
BBX 41 53 6 -2
BITMAP
FF0000007F80
FF0000007F80
FF0000007F80
FF0000007F80
FF0000007F80
FF0000007F80
FF0000007F80
FF0000007F80
FF0000007F80
FF0000007F80
FF0000007F80
FF0000007F80
FF0000007F80
FF0000007F80
FF0000007F80
FF0000007F80
FF0000007F80
FF0000007F80
FF0000007F80
FF0000007F80
FF0000007F80
FF0000007F80
FF0000007F80
FF0000007F80
FF0000007F80
FF0000007F80
FF0000007F80
FF0000007F80
FF0000007F80
FF0000007F80
FF0000007F80
FF0000007F80
FF0000007F80
FF000000FF80
FF000000FF80
FF000000FF80
FF000000FF80
FF800001FF80
FF800001FF80
FF800003FF80
FF800003FF80
7FC00007FF80
7FE0000FFF80
7FF0001FFF80
7FF8007FBF80
3FFF03FF3F80
3FFFFFFF3F80
1FFFFFFE3F80
0FFFFFFC3F80
07FFFFF03F80
03FFFFE03F80
00FFFF800000
000FFC000000
ENDCHAR
STARTCHAR 0076
ENCODING 118
SWIDTH 504 0
DWIDTH 49 0
BBX 46 51 1 0
BITMAP
FF80000007FC
FFC0000007FC
7FC000000FF8
7FC000000FF8
3FE000000FF8
3FE000001FF0
3FE000001FF0
1FF000003FE0
1FF000003FE0
1FF000003FE0
0FF800007FC0
0FF800007FC0
0FF800007F80
07FC0000FF80
07FC0000FF80
07FC0000FF00
03FE0001FF00
03FE0001FF00
03FE0001FE00
01FF0003FE00
01FF0003FC00
01FF0003FC00
00FF8007FC00
00FF8007F800
007F8007F800
007FC00FF000
007FC00FF000
003FC00FF000
003FE01FE000
003FE01FE000
001FE03FE000
001FE03FC000
001FF03FC000
000FF07F8000
000FF07F8000
000FF87F8000
0007F8FF0000
0007F8FF0000
0007FCFE0000
0003FDFE0000
0003FDFE0000
0001FFFC0000
0001FFFC0000
0001FFFC0000
0000FFF80000
0000FFF80000
0000FFF00000
00007FF00000
00007FF00000
00007FE00000
00003FE00000
ENDCHAR
STARTCHAR 0077
ENCODING 119
SWIDTH 720 0
DWIDTH 70 0
BBX 68 51 1 0
BITMAP
FF800007FE00001FF0
FF80000FFE00003FE0
FF80000FFE00003FE0
7F80000FFE00003FE0
7FC0000FFF00003FC0
7FC0001FFF00007FC0
7FC0001FFF00007FC0
3FC0001FFF00007FC0
3FE0001FFF80007F80
3FE0003FFF8000FF80
1FE0003FFF8000FF80
1FF0003FFF8000FF00
1FF0003FBFC000FF00
1FF0007FBFC001FF00
0FF0007F3FC001FF00
0FF8007F3FC001FE00
0FF8007F1FE003FE00
07F800FF1FE003FE00
07F800FE1FE003FC00
07FC00FE1FE003FC00
07FC00FE0FF007FC00
03FC01FE0FF007F800
03FC01FC0FF007F800
03FE01FC07F007F800
01FE01FC07F80FF800
01FE03FC07F80FF000
01FE03FC07F80FF000
00FF03F803FC0FF000
00FF03F803FC1FE000
00FF07F803FC1FE000
00FF87F803FC1FE000
007F87F001FE1FE000
007F87F001FE3FC000
007F8FF001FE3FC000
003FCFF001FE3FC000
003FCFE000FF3F8000
003FCFE000FF7F8000
003FDFE000FF7F8000
001FFFE000FF7F8000
001FFFC0007FFF0000
001FFFC0007FFF0000
000FFFC0007FFF0000
000FFFC0007FFE0000
000FFF80003FFE0000
000FFF80003FFE0000
0007FF80003FFC0000
0007FF80003FFC0000
0007FF00001FFC0000
0003FF00001FFC0000
0003FF00001FF80000
0003FF00001FF80000
ENDCHAR
STARTCHAR 0078
ENCODING 120
SWIDTH 504 0
DWIDTH 49 0
BBX 44 51 2 0
BITMAP
7FC000003FE0
3FE000007FC0
3FF000007FC0
1FF00000FF80
0FF80001FF00
0FFC0001FF00
07FC0003FE00
03FE0007FC00
03FE0007FC00
01FF000FF800
00FF801FF000
00FF801FF000
007FC03FE000
003FE07FC000
003FE07F8000
001FF0FF8000
000FF9FF0000
0007F9FE0000
0007FFFE0000
0003FFFC0000
0001FFF80000
0001FFF80000
0000FFF00000
00007FE00000
00007FC00000
00007FE00000
00007FF00000
0000FFF00000
0001FFF80000
0001FFFC0000
0003FFFC0000
0007FFFE0000
000FFBFF0000
000FF1FF0000
001FF0FF8000
003FE0FFC000
003FC07FC000
007FC03FE000
00FF803FF000
00FF001FF000
01FF000FF800
03FE000FFC00
03FC0007FC00
07FC0003FE00
0FF80003FF00
1FF80001FF00
1FF00000FF80
3FE00000FFC0
7FE000007FC0
7FC000003FE0
FF8000003FF0
ENDCHAR
STARTCHAR 0079
ENCODING 121
SWIDTH 504 0
DWIDTH 49 0
BBX 44 72 2 -21
BITMAP
FF8000000FF0
FF8000001FF0
7F8000001FF0
7FC000003FE0
7FC000003FE0
3FC000003FC0
3FE000007FC0
3FE000007FC0
1FE000007F80
1FF00000FF80
1FF00000FF80
0FF00000FF00
0FF80001FF00
0FF80001FE00
07F80001FE00
07FC0003FE00
07FC0003FC00
03FC0007FC00
03FE0007FC00
03FE0007F800
01FE000FF800
01FF000FF800
00FF000FF000
00FF001FF000
00FF801FE000
007F801FE000
007F803FE000
007FC03FC000
003FC03FC000
003FC07FC000
003FE07F8000
001FE0FF8000
001FE0FF0000
001FF0FF0000
000FF1FF0000
000FF1FE0000
000FF9FE0000
0007FBFE0000
0007FBFC0000
0007FFFC0000
0003FFFC0000
0003FFF80000
0003FFF80000
0001FFF00000
0001FFF00000
0001FFF00000
0000FFE00000
0000FFE00000
0000FFE00000
00007FC00000
00007FC00000
00007F800000
00007F800000
0000FF800000
0000FF000000
0001FF000000
0001FF000000
0001FE000000
0003FE000000
0003FE000000
0007FC000000
0007FC000000
000FF8000000
101FF8000000
1FFFF8000000
1FFFF0000000
1FFFE0000000
1FFFE0000000
1FFFC0000000
1FFF00000000
1FFE00000000
07F000000000
ENDCHAR
STARTCHAR 007A
ENCODING 122
SWIDTH 504 0
DWIDTH 49 0
BBX 41 51 3 0
BITMAP
3FFFFFFFFF00
3FFFFFFFFF00
3FFFFFFFFF00
3FFFFFFFFF00
3FFFFFFFFF00
3FFFFFFFFF00
3FFFFFFFFF00
00000003FF00
00000007FE00
0000000FFC00
0000000FF800
0000001FF800
0000003FF000
0000007FE000
000000FFC000
000001FF8000
000001FF0000
000003FF0000
000007FE0000
00000FFC0000
00001FF80000
00003FF00000
00003FE00000
00007FE00000
0000FFC00000
0001FF800000
0003FF000000
0007FE000000
0007FE000000
000FFC000000
001FF8000000
003FF0000000
007FE0000000
00FFC0000000
00FFC0000000
01FF80000000
03FF00000000
07FE00000000
0FFC00000000
0FF800000000
1FF800000000
3FF000000000
7FE000000000
FFC000000000
FFFFFFFFFF80
FFFFFFFFFF80
FFFFFFFFFF80
FFFFFFFFFF80
FFFFFFFFFF80
FFFFFFFFFF80
FFFFFFFFFF80
ENDCHAR
STARTCHAR 007B
ENCODING 123
SWIDTH 329 0
DWIDTH 32 0
BBX 23 91 4 -20
BITMAP
0001FE
0007FE
000FFE
001FFE
003FFE
007FFE
007FF0
00FF80
00FF00
00FF00
00FE00
00FE00
00FE00
00FE00
00FE00
00FE00
00FE00
00FE00
00FE00
00FE00
00FE00
00FE00
00FE00
00FE00
00FE00
00FE00
00FE00
00FE00
00FE00
00FE00
00FE00
00FE00
00FE00
00FE00
01FE00
01FE00
01FE00
01FE00
03FC00
03FC00
07F800
1FF800
FFF000
FFE000
FFC000
FF0000
FF8000
FFC000
FFE000
3FF000
0FF800
07F800
03FC00
03FC00
01FE00
01FE00
01FE00
00FE00
00FE00
00FE00
00FE00
00FE00
00FE00
00FE00
00FE00
00FE00
00FE00
00FE00
00FE00
00FE00
00FE00
00FE00
00FE00
00FE00
00FE00
00FE00
00FE00
00FE00
00FE00
00FE00
00FE00
00FF00
00FF00
00FF00
007FC0
007FFE
007FFE
003FFE
001FFE
000FFE
0003FE
ENDCHAR
STARTCHAR 007C
ENCODING 124
SWIDTH 257 0
DWIDTH 25 0
BBX 6 91 10 -20
BITMAP
FC
FC
FC
FC
FC
FC
FC
FC
FC
FC
FC
FC
FC
FC
FC
FC
FC
FC
FC
FC
FC
FC
FC
FC
FC
FC
FC
FC
FC
FC
FC
FC
FC
FC
FC
FC
FC
FC
FC
FC
FC
FC
FC
FC
FC
FC
FC
FC
FC
FC
FC
FC
FC
FC
FC
FC
FC
FC
FC
FC
FC
FC
FC
FC
FC
FC
FC
FC
FC
FC
FC
FC
FC
FC
FC
FC
FC
FC
FC
FC
FC
FC
FC
FC
FC
FC
FC
FC
FC
FC
FC
ENDCHAR
STARTCHAR 007D
ENCODING 125
SWIDTH 329 0
DWIDTH 32 0
BBX 22 91 3 -20
BITMAP
FF0000
FFC000
FFE000
FFF000
FFF800
FFFC00
1FFC00
03FC00
01FE00
01FE00
01FE00
00FE00
00FE00
00FE00
00FE00
00FE00
00FE00
00FE00
00FE00
00FE00
00FE00
00FE00
00FE00
00FE00
00FE00
00FE00
00FE00
00FE00
00FE00
00FE00
00FE00
00FE00
00FE00
00FE00
00FE00
00FF00
00FF00
007F00
007F80
007F80
003FC0
003FF0
001FFC
000FFC
0007FC
0001FC
0003FC
0007FC
000FFC
001FF8
003FE0
003FC0
007F80
007F00
00FF00
00FF00
00FF00
00FE00
00FE00
00FE00
00FE00
00FE00
00FE00
00FE00
00FE00
00FE00
00FE00
00FE00
00FE00
00FE00
00FE00
00FE00
00FE00
00FE00
00FE00
00FE00
00FE00
00FE00
00FE00
00FE00
00FE00
01FE00
01FE00
01FE00
07FC00
FFFC00
FFF800
FFF800
FFF000
FFE000
FF8000
ENDCHAR
STARTCHAR 007E
ENCODING 126
SWIDTH 586 0
DWIDTH 57 0
BBX 42 16 7 27
BITMAP
03FE00000000
07FF80000000
0FFFE00007C0
1FFFF00007C0
1FFFFC0007C0
3FFFFF0007C0
3F87FF8007C0
7E01FFE00FC0
7E007FF81FC0
7C003FFFFF80
7C000FFFFF80
7C0007FFFF00
FC0001FFFF00
F80000FFFE00
0000003FFC00
00000007E000
ENDCHAR
STARTCHAR 00A0
ENCODING 160
SWIDTH 277 0
DWIDTH 27 0
BBX 0 0 0 0
BITMAP
ENDCHAR
STARTCHAR 00A1
ENCODING 161
SWIDTH 329 0
DWIDTH 32 0
BBX 8 71 12 -20
BITMAP
FF
FF
FF
FF
FF
FF
FF
FF
FF
FF
00
00
00
00
00
00
3C
3C
3C
3C
3C
7C
7C
7E
7E
7E
7E
7E
7E
7E
7E
FE
FE
FE
FF
FF
FF
FF
FF
FF
FF
FF
FF
FF
FF
FF
FF
FF
FF
FF
FF
FF
FF
FF
FF
FF
FF
FF
FF
FF
FF
FF
FF
FF
FF
FF
FF
FF
FF
FF
FF
ENDCHAR
STARTCHAR 00A2
ENCODING 162
SWIDTH 555 0
DWIDTH 54 0
BBX 45 73 5 -12
BITMAP
000007800000
000007800000
000007800000
000007800000
000007800000
000007800000
000007800000
000007800000
000007800000
00007FFE0000
0003FFFFC000
000FFFFFF000
001FFFFFF800
007FFFFFFC00
00FFFFFFFE00
01FFFFFFFF00
03FFF78FFF80
07FF8783FF80
07FF0780FFC0
0FFC07807FC0
0FF807807FE0
1FF007803FE0
1FF007801FE0
3FE007801FF0
3FE007801FF0
3FC007800FF0
7FC007800FF0
7FC007800000
7F8007800000
7F8007800000
FF8007800000
FF8007800000
FF8007800000
FF8007800000
FF8007800000
FF8007800000
FF8007800000
FF8007800000
FF8007800000
FF8007800000
FF8007800000
FF8007800000
7F8007800000
7F8007800000
7FC007800FF8
7FC007800FF0
7FC007800FF0
3FE007800FF0
3FE007801FF0
3FF007801FF0
1FF807803FE0
1FF807807FE0
0FFC07807FC0
07FF0780FFC0
07FFC783FF80
03FFFF9FFF80
01FFFFFFFF00
00FFFFFFFE00
007FFFFFFC00
003FFFFFF800
000FFFFFE000
0003FFFF8000
00007FFC0000
000007800000
000007800000
000007800000
000007800000
000007800000
000007800000
000007800000
000007800000
000007800000
000007800000
ENDCHAR
STARTCHAR 00A3
ENCODING 163
SWIDTH 555 0
DWIDTH 54 0
BBX 49 73 3 -2
BITMAP
00000FFC000000
00007FFFC00000
0003FFFFF00000
000FFFFFFC0000
001FFFFFFF0000
003FFFFFFF8000
00FFFFFFFFC000
01FFFFFFFFE000
01FFE003FFE000
03FF8000FFF000
07FF00003FF800
07FC00001FF800
0FFC00000FF800
0FF800000FFC00
1FF0000007FC00
1FF0000007FC00
1FF0000007FC00
1FE0000003FE00
3FE0000003FE00
3FE0000003FE00
3FE0000003FE00
3FE0000003FE00
3FF00000000000
3FF00000000000
1FF00000000000
1FF00000000000
1FF80000000000
0FF80000000000
0FFC0000000000
07FC0000000000
07FE0000000000
03FF0000000000
03FF0000000000
01FF8000000000
FFFFFFFF800000
FFFFFFFF800000
FFFFFFFF800000
FFFFFFFF800000
FFFFFFFF800000
003FE000000000
001FF000000000
001FF000000000
000FF000000000
000FF800000000
000FF800000000
000FF800000000
0007F800000000
0007F800000000
0007F800000000
000FF000000000
000FF000000000
000FF000000000
000FE000000000
001FE000000000
001FC000000000
003F8000000000
007F8000000000
007F0000000000
00FE0000000000
01FC0000000000
03F80000000000
07F07FC0000800
0FF3FFF8001C00
1FEFFFFF80FC00
3FFFFFFFFFFE00
7FFFFFFFFFFF00
7FFFFFFFFFFF00
3FFFFFFFFFFF80
3FFFFFFFFFFF00
1FC003FFFFFE00
0F00007FFFF800
0400000FFFE000
00000001FF8000
ENDCHAR
STARTCHAR 00A4
ENCODING 164
SWIDTH 555 0
DWIDTH 54 0
BBX 40 40 7 14
BITMAP
0C00000030
1E00000078
7F00FF00FC
FF8FFFE1FE
FFFFFFFBFF
7FFFFFFFFF
3FFFFFFFFE
1FFFFFFFFC
0FFFFFFFF8
07FFFFFFF0
0FFE00FFE0
0FFC003FF0
1FF0001FF0
1FF0000FF8
3FE00007F8
3FC00007F8
3FC00007F8
3FC00003FC
3F800003FC
3F800003FC
3F800003FC
3FC00003FC
3FC00003FC
3FC00007F8
3FE00007F8
1FE0000FF8
1FF0000FF0
1FF8001FF0
0FFC007FE0
07FF81FFE0
0FFFFFFFF0
1FFFFFFFF8
3FFFFFFFFC
7FFFFFFFFE
FFFFFFFFFF
7FDFFFF3FE
3F83FFC1FC
1F000000F8
0E00000070
0400000020
ENDCHAR
STARTCHAR 00A5
ENCODING 165
SWIDTH 555 0
DWIDTH 54 0
BBX 52 69 1 0
BITMAP
FF000000000FF0
7F800000001FE0
7F800000001FE0
3FC00000003FC0
3FE00000007FC0
1FE00000007F80
0FF0000000FF80
0FF0000000FF00
07F8000001FE00
07FC000001FE00
03FC000003FC00
03FE000003FC00
01FE000007F800
00FF00000FF800
00FF00000FF000
007F80001FE000
007FC0001FE000
003FC0003FC000
003FE0003FC000
001FE0007F8000
000FF0007F8000
000FF000FF0000
0007F801FF0000
0007FC01FE0000
0003FC03FC0000
0003FE03FC0000
0001FE07F80000
0000FF07F80000
0000FF0FF00000
00007F8FF00000
00007FDFE00000
00003FFFC00000
00001FFFC00000
00001FFF800000
00000FFF800000
07FFFFFFFFFE00
07FFFFFFFFFE00
07FFFFFFFFFE00
07FFFFFFFFFE00
07FFFFFFFFFE00
000003FE000000
000003FE000000
000003FE000000
000003FE000000
000003FE000000
000003FE000000
000003FE000000
07FFFFFFFFFE00
07FFFFFFFFFE00
07FFFFFFFFFE00
07FFFFFFFFFE00
07FFFFFFFFFE00
000003FE000000
000003FE000000
000003FE000000
000003FE000000
000003FE000000
000003FE000000
000003FE000000
000003FE000000
000003FE000000
000003FE000000
000003FE000000
000003FE000000
000003FE000000
000003FE000000
000003FE000000
000003FE000000
000003FE000000
ENDCHAR
STARTCHAR 00A6
ENCODING 166
SWIDTH 257 0
DWIDTH 25 0
BBX 6 91 10 -20
BITMAP
FC
FC
FC
FC
FC
FC
FC
FC
FC
FC
FC
FC
FC
FC
FC
FC
FC
FC
FC
FC
FC
FC
FC
FC
FC
FC
FC
FC
FC
FC
FC
FC
FC
FC
FC
FC
FC
FC
FC
00
00
00
00
00
00
00
00
00
00
00
00
00
FC
FC
FC
FC
FC
FC
FC
FC
FC
FC
FC
FC
FC
FC
FC
FC
FC
FC
FC
FC
FC
FC
FC
FC
FC
FC
FC
FC
FC
FC
FC
FC
FC
FC
FC
FC
FC
FC
FC
ENDCHAR
STARTCHAR 00A7
ENCODING 167
SWIDTH 555 0
DWIDTH 54 0
BBX 45 91 4 -20
BITMAP
00000FF80000
00007FFF0000
0001FFFFC000
0007FFFFE000
000FFFFFF000
001FFFFFF800
003FFFFFFC00
007FFFFFFE00
00FFE00FFE00
00FFC003FF00
01FF8001FF00
01FF0001FF00
01FF0000FF80
03FE0000FF80
03FE00007F80
03FE00007F80
03FE00007F80
03FE00007F80
03FF00007F80
01FF00007F80
01FF80000000
01FFC0000000
00FFE0000000
00FFF8000000
007FFC000000
003FFF000000
003FFF800000
00FFFFE00000
01FFFFF80000
07FDFFFC0000
0FF87FFF0000
1FF03FFF8000
1FE00FFFE000
3FC007FFF000
7F8001FFFC00
7F8000FFFE00
7F00003FFF00
7F00001FFF80
FF00000FFFC0
FF000003FFE0
FF000001FFE0
FF0000007FF0
FF8000003FF0
FF8000001FF8
7FC000001FF8
7FE000000FF8
7FF0000007F8
3FF8000007F8
3FFC000007F8
1FFF000007F8
1FFF800007F8
0FFFC00007F8
07FFF00007F8
03FFF80007F8
01FFFC0007F0
007FFF000FF0
003FFF801FE0
000FFFC01FE0
0007FFF03FC0
0001FFF8FF80
0000FFFDFF00
00003FFFFE00
00001FFFF800
00000FFFE000
000003FFE000
000001FFF000
0000007FF800
0000003FFC00
0000001FFC00
0000000FFE00
00000007FE00
00000003FE00
0FF00003FF00
0FF00001FF00
0FF00001FF00
0FF00001FF00
0FF00001FF00
0FF00001FF00
0FF80001FE00
0FF80003FE00
07FC0003FE00
07FE0007FC00
03FF001FFC00
03FFE07FF800
01FFFFFFF800
00FFFFFFF000
00FFFFFFE000
003FFFFFC000
001FFFFF0000
0007FFFE0000
0001FFF00000
ENDCHAR
STARTCHAR 00A8
ENCODING 168
SWIDTH 329 0
DWIDTH 32 0
BBX 26 10 3 60
BITMAP
FFC0FFC0
FFC0FFC0
FFC0FFC0
FFC0FFC0
FFC0FFC0
FFC0FFC0
FFC0FFC0
FFC0FFC0
FFC0FFC0
FFC0FFC0
ENDCHAR
STARTCHAR 00A9
ENCODING 169
SWIDTH 740 0
DWIDTH 72 0
BBX 74 74 -1 -2
BITMAP
00000001FFE000000000
0000001FFFFE00000000
000000FFFFFFC0000000
000007FFFFFFF8000000
00001FFFFFFFFE000000
00003FFFFFFFFF000000
0000FFFF003FFFC00000
0001FFF00003FFE00000
0007FF8000007FF00000
000FFE0000001FFC0000
001FF80000000FFE0000
003FF000000003FF0000
007FC000000001FF8000
00FF8000000000FF8000
00FF00000000003FC000
01FE00007FC0001FE000
03FC0003FFF8000FF000
03F8000FFFFE000FF000
07F8001FFFFF0007F800
0FF0003FFFFF8003FC00
0FE0007FFFFFC001FC00
1FE000FFC07FE001FE00
1FC001FF001FE000FE00
3FC003FC000FF000FE00
3F8003F80007F0007F00
3F8007F80007F8007F00
7F0007F00003F8007F00
7F000FE00003F8003F80
7F000FE00001FC003F80
7E000FE00001FC003F80
FE001FC0000000001F80
FE001FC0000000001FC0
FE001FC0000000001FC0
FE001FC0000000001FC0
FE001F80000000001FC0
FC001F80000000001FC0
FC001F80000000001FC0
FC001F80000000001FC0
FC001F80000000001FC0
FC001F80000000001FC0
FE001F80000000001FC0
FE001FC0000000001FC0
FE001FC00000FE001FC0
FE001FC00001FC001FC0
FE001FC00001FC001F80
7F000FE00001FC003F80
7F000FE00001FC003F80
7F000FF00003F8003F80
3F8007F00003F8007F00
3F8007F80007F8007F00
3F8003FC0007F0007F00
1FC003FE000FF000FE00
1FC001FF001FE000FE00
0FE000FFE0FFC001FC00
0FF000FFFFFFC003FC00
07F0007FFFFF8003F800
07F8001FFFFF0007F800
03FC000FFFFC000FF000
01FE0003FFF0001FE000
01FF00007FC0003FE000
00FF80000000007FC000
007FC000000000FF8000
003FF000000003FF0000
001FF800000007FE0000
000FFE0000001FFC0000
0007FF8000007FF80000
0003FFE00003FFE00000
0000FFFE003FFFC00000
00007FFFFFFFFF000000
00001FFFFFFFFE000000
000007FFFFFFF8000000
000001FFFFFFC0000000
0000003FFFFE00000000
00000003FFE000000000
ENDCHAR
STARTCHAR 00AA
ENCODING 170
SWIDTH 370 0
DWIDTH 36 0
BBX 28 43 4 29
BITMAP
007FC000
03FFF800
0FFFFE00
1FFFFF00
1FFFFF00
3FC0FF80
3F003F80
7E001F80
7E000F80
7E000F80
7C000F80
00000F80
00001F80
00003F80
003FFF80
03FFFF80
0FFFFF80
3FFF0F80
7FC00F80
7E000F80
FC000F80
FC000F80
F8000F80
F8001F80
F8001F80
FC003F80
FC00FF80
FF03FF80
7FFFFFC0
7FFFEFF0
3FFFCFF0
1FFF07F0
03FC03F0
000000C0
00000000
00000000
00000000
00000000
FFFFFFE0
FFFFFFE0
FFFFFFE0
FFFFFFE0
FFFFFFE0
ENDCHAR
STARTCHAR 00AB
ENCODING 171
SWIDTH 555 0
DWIDTH 54 0
BBX 34 31 10 11
BITMAP
0004000040
000C0000C0
003C0003C0
007C0007C0
00FC000FC0
01FC001FC0
07FC007FC0
0FFC00FFC0
1FF801FF80
3FF003FF00
FFC00FFC00
FF801FF800
FF001FF000
FE001FE000
F8001F8000
F0001F0000
F8001F8000
FC001FC000
FF001FF000
FF801FF800
FFC00FFC00
7FF007FF00
1FF801FF80
0FFC00FFC0
07FC007FC0
03FC003FC0
00FC000FC0
007C0007C0
003C0003C0
000C0001C0
0004000040
ENDCHAR
STARTCHAR 00AC
ENCODING 172
SWIDTH 586 0
DWIDTH 57 0
BBX 49 28 4 9
BITMAP
FFFFFFFFFFFF80
FFFFFFFFFFFF80
FFFFFFFFFFFF80
FFFFFFFFFFFF80
FFFFFFFFFFFF80
FFFFFFFFFFFF80
FFFFFFFFFFFF80
00000000003F80
00000000003F80
00000000003F80
00000000003F80
00000000003F80
00000000003F80
00000000003F80
00000000003F80
00000000003F80
00000000003F80
00000000003F80
00000000003F80
00000000003F80
00000000003F80
00000000003F80
00000000003F80
00000000003F80
00000000003F80
00000000003F80
00000000003F80
00000000003F80
ENDCHAR
STARTCHAR 00AD
ENCODING 173
SWIDTH 329 0
DWIDTH 32 0
BBX 24 7 4 23
BITMAP
FFFFFF
FFFFFF
FFFFFF
FFFFFF
FFFFFF
FFFFFF
FFFFFF
ENDCHAR
STARTCHAR 00AE
ENCODING 174
SWIDTH 740 0
DWIDTH 72 0
BBX 74 74 -1 -2
BITMAP
00000001FFE000000000
0000003FFFFF00000000
000001FFFFFFC0000000
000007FFFFFFF8000000
00001FFFFFFFFE000000
00007FFFFFFFFF800000
0000FFFF003FFFC00000
0003FFF00003FFE00000
0007FF8000007FF80000
000FFE0000001FFC0000
001FF800000007FE0000
003FE000000003FF0000
007FC000000000FF8000
00FF80000000007FC000
01FF00000000003FE000
01FE07FFFFFC001FE000
03FC07FFFFFF800FF000
07F807FFFFFFC007F800
07F007FFFFFFF007F800
0FF007FFFFFFF003FC00
0FE007FFFFFFF801FC00
1FC007E0001FF801FE00
1FC007E00007FC00FE00
3F8007E00003FC00FF00
3F8007E00001FC007F00
3F0007E00001FC007F00
7F0007E00001FC003F80
7F0007E00001FC003F80
7E0007E00001FC003F80
FE0007E00001FC001F80
FE0007E00001FC001FC0
FE0007E00003FC001FC0
FE0007E00003F8001FC0
FE0007E0000FF8001FC0
FC0007FFFFFFF0001FC0
FC0007FFFFFFE0001FC0
FC0007FFFFFF80001FC0
FC0007FFFFFFC0001FC0
FC0007FFFFFFE0001FC0
FE0007FFFFFFF0001FC0
FE0007E0001FF8001FC0
FE0007E00007F8001FC0
FE0007E00003F8001FC0
FE0007E00003F8001F80
7E0007E00001F8003F80
7F0007E00001F8003F80
7F0007E00001F8003F80
7F0007E00001F8003F00
3F8007E00001FC007F00
3F8007E00001FC007F00
3FC007E00001FC00FE00
1FC007E00001FC00FE00
1FE007E00001FC01FE00
0FE007E00001FC01FC00
0FF007E00001FE03FC00
07F807E00001FE07F800
07F807E00001FF07F000
03FC07E00000FF0FF000
01FE00000000001FE000
00FF00000000003FC000
00FF80000000007FC000
007FC000000000FF8000
003FF000000003FF0000
001FF800000007FE0000
000FFE0000001FFC0000
0007FF8000007FF00000
0001FFF00003FFE00000
0000FFFF003FFFC00000
00007FFFFFFFFF000000
00001FFFFFFFFC000000
000007FFFFFFF8000000
000001FFFFFFC0000000
0000003FFFFE00000000
00000003FFE000000000
ENDCHAR
STARTCHAR 00AF
ENCODING 175
SWIDTH 329 0
DWIDTH 32 0
BBX 26 7 3 61
BITMAP
FFFFFFC0
FFFFFFC0
FFFFFFC0
FFFFFFC0
FFFFFFC0
FFFFFFC0
FFFFFFC0
ENDCHAR
STARTCHAR 00B0
ENCODING 176
SWIDTH 401 0
DWIDTH 39 0
BBX 29 30 5 37
BITMAP
00020000
007FF000
01FFFC00
03FFFE00
0FFFFF80
1FFFFFC0
1FE07FC0
3F801FE0
7F0007F0
7E0003F0
FC0003F0
FC0001F8
FC0001F8
F80001F8
F80000F8
F80000F8
F80001F8
FC0001F8
FC0001F8
FE0003F0
7E0003F0
7F0007F0
3F801FE0
1FE07FC0
1FFFFF80
0FFFFF80
07FFFE00
01FFFC00
007FF000
00020000
ENDCHAR
STARTCHAR 00B1
ENCODING 177
SWIDTH 586 0
DWIDTH 57 0
BBX 47 62 5 -1
BITMAP
00000FE00000
00000FE00000
00000FE00000
00000FE00000
00000FE00000
00000FE00000
00000FE00000
00000FE00000
00000FE00000
00000FE00000
00000FE00000
00000FE00000
00000FE00000
00000FE00000
00000FE00000
00000FE00000
00000FE00000
00000FE00000
00000FE00000
00000FE00000
FFFFFFFFFFFE
FFFFFFFFFFFE
FFFFFFFFFFFE
FFFFFFFFFFFE
FFFFFFFFFFFE
FFFFFFFFFFFE
FFFFFFFFFFFE
00000FE00000
00000FE00000
00000FE00000
00000FE00000
00000FE00000
00000FE00000
00000FE00000
00000FE00000
00000FE00000
00000FE00000
00000FE00000
00000FE00000
00000FE00000
00000FE00000
00000FE00000
00000FE00000
00000FE00000
00000FE00000
00000FE00000
00000FE00000
000000000000
000000000000
000000000000
000000000000
000000000000
000000000000
000000000000
000000000000
FFFFFFFFFFFE
FFFFFFFFFFFE
FFFFFFFFFFFE
FFFFFFFFFFFE
FFFFFFFFFFFE
FFFFFFFFFFFE
FFFFFFFFFFFE
ENDCHAR
STARTCHAR 00B2
ENCODING 178
SWIDTH 329 0
DWIDTH 32 0
BBX 30 42 1 27
BITMAP
001FF000
00FFFE00
03FFFF80
07FFFFC0
0FFFFFE0
1FF83FF0
1FE00FF0
3F8003F8
3F8003F8
3F0001FC
7F0001FC
7E0000FC
7E0000FC
7E0000FC
7E0001FC
000001F8
000003F8
000003F8
000007F0
00001FE0
00003FE0
0000FFC0
0003FF00
000FFE00
003FF800
007FE000
01FFC000
03FF0000
07FC0000
0FF00000
1FE00000
3FC00000
3F800000
7F000000
7F000000
7E000000
7FFFFFFC
FFFFFFFC
FFFFFFFC
FFFFFFFC
FFFFFFFC
FFFFFFFC
ENDCHAR
STARTCHAR 00B3
ENCODING 179
SWIDTH 329 0
DWIDTH 32 0
BBX 29 43 1 26
BITMAP
003FE000
01FFFC00
07FFFF00
0FFFFF80
1FFFFFC0
1FF07FE0
3FC01FE0
3F0007E0
7F0007F0
7E0003F0
7E0003F0
7E0003F0
7E0003F0
7E0003F0
000003F0
000007E0
00000FE0
00007FC0
001FFF80
001FFF00
001FFF00
001FFFC0
001FFFE0
00001FF0
000007F0
000003F8
000001F8
000001F8
000001F8
FC0001F8
FC0001F8
FC0001F8
FC0001F8
FE0001F8
FE0003F8
7F0007F0
7F800FF0
3FF03FE0
1FFFFFC0
0FFFFF80
07FFFF00
01FFFC00
003FE000
ENDCHAR
STARTCHAR 00B4
ENCODING 180
SWIDTH 329 0
DWIDTH 32 0
BBX 20 14 9 58
BITMAP
007FF0
00FFE0
00FFC0
01FF80
03FF00
03FE00
07FC00
0FF800
0FF000
1FE000
3FC000
3F8000
7F0000
FE0000
ENDCHAR
STARTCHAR 00B5
ENCODING 181
SWIDTH 555 0
DWIDTH 54 0
BBX 47 72 6 -21
BITMAP
FF0000007F80
FF0000007F80
FF0000007F80
FF0000007F80
FF0000007F80
FF0000007F80
FF0000007F80
FF0000007F80
FF0000007F80
FF0000007F80
FF0000007F80
FF0000007F80
FF0000007F80
FF0000007F80
FF0000007F80
FF0000007F80
FF0000007F80
FF0000007F80
FF0000007F80
FF0000007F80
FF0000007F80
FF0000007F80
FF0000007F80
FF0000007F80
FF0000007F80
FF0000007F80
FF0000007F80
FF0000007F80
FF0000007F80
FF0000007F80
FF0000007F80
FF0000007F80
FF000000FF80
FF000000FF80
FF000000FF80
FF000000FF80
FF000000FF80
FF800001FF80
FF800001FF80
FF800003FF80
FF800003FF80
FFC00007FF80
FFE0000FFF80
FFF0001FFF80
FFF8007FFF80
FFFF03FFFFC0
FFFFFFFF7FFE
FFFFFFFE7FFE
FFFFFFFC3FFE
FFFFFFF03FFE
FFFFFFE01FFE
FF3FFF800FFE
FF07FC0003F8
FF0000000000
FF0000000000
FF0000000000
FF0000000000
FF0000000000
FF0000000000
FF0000000000
FF0000000000
FF0000000000
FF0000000000
FF0000000000
FF0000000000
FF0000000000
FF0000000000
FF0000000000
FF0000000000
FF0000000000
FF0000000000
FF0000000000
ENDCHAR
STARTCHAR 00B6
ENCODING 182
SWIDTH 534 0
DWIDTH 52 0
BBX 46 88 5 -17
BITMAP
00007FFFFFFC
0003FFFFFFFC
000FFFFFFFFC
003FFFFFFFFC
00FFFFFFFFFC
01FFFFFFFFFC
03FFFFC03F00
07FFFFC03F00
07FFFFC03F00
0FFFFFC03F00
1FFFFFC03F00
1FFFFFC03F00
3FFFFFC03F00
3FFFFFC03F00
7FFFFFC03F00
7FFFFFC03F00
7FFFFFC03F00
FFFFFFC03F00
FFFFFFC03F00
FFFFFFC03F00
FFFFFFC03F00
FFFFFFC03F00
FFFFFFC03F00
FFFFFFC03F00
FFFFFFC03F00
FFFFFFC03F00
FFFFFFC03F00
FFFFFFC03F00
FFFFFFC03F00
FFFFFFC03F00
7FFFFFC03F00
7FFFFFC03F00
7FFFFFC03F00
3FFFFFC03F00
3FFFFFC03F00
1FFFFFC03F00
1FFFFFC03F00
0FFFFFC03F00
07FFFFC03F00
03FFFFC03F00
01FFFFC03F00
00FFFFC03F00
007FFFC03F00
001FFFC03F00
0007FFC03F00
00003FC03F00
00000FC03F00
00000FC03F00
00000FC03F00
00000FC03F00
00000FC03F00
00000FC03F00
00000FC03F00
00000FC03F00
00000FC03F00
00000FC03F00
00000FC03F00
00000FC03F00
00000FC03F00
00000FC03F00
00000FC03F00
00000FC03F00
00000FC03F00
00000FC03F00
00000FC03F00
00000FC03F00
00000FC03F00
00000FC03F00
00000FC03F00
00000FC03F00
00000FC03F00
00000FC03F00
00000FC03F00
00000FC03F00
00000FC03F00
00000FC03F00
00000FC03F00
00000FC03F00
00000FC03F00
00000FC03F00
00000FC03F00
00000FC03F00
00000FC03F00
00000FC03F00
00000FC03F00
00000FC03F00
00000FC03F00
00000FC03F00
ENDCHAR
STARTCHAR 00B7
ENCODING 183
SWIDTH 277 0
DWIDTH 27 0
BBX 10 10 11 22
BITMAP
FFC0
FFC0
FFC0
FFC0
FFC0
FFC0
FFC0
FFC0
FFC0
FFC0
ENDCHAR
STARTCHAR 00B8
ENCODING 184
SWIDTH 329 0
DWIDTH 32 0
BBX 24 21 4 -21
BITMAP
000F00
001E00
001E00
003C00
003C00
003FC0
007FF8
007FFC
00FFFE
0001FF
0000FF
0000FF
00007F
0000FF
6000FF
7C01FE
FF03FE
FFFFFC
3FFFF8
0FFFE0
01FF00
ENDCHAR
STARTCHAR 00B9
ENCODING 185
SWIDTH 329 0
DWIDTH 32 0
BBX 16 41 5 28
BITMAP
001F
001F
001F
003F
003F
007F
00FF
07FF
FFFF
FFFF
FFFF
FFFF
FFFF
003F
003F
003F
003F
003F
003F
003F
003F
003F
003F
003F
003F
003F
003F
003F
003F
003F
003F
003F
003F
003F
003F
003F
003F
003F
003F
003F
003F
ENDCHAR
STARTCHAR 00BA
ENCODING 186
SWIDTH 360 0
DWIDTH 35 0
BBX 27 43 4 29
BITMAP
003FC000
01FFF800
07FFFC00
0FFFFE00
1FFFFF00
1FE0FF80
3F803F80
3F001FC0
7E000FC0
7E000FE0
7C0007E0
FC0007E0
FC0007E0
FC0003E0
FC0003E0
FC0003E0
FC0003E0
FC0003E0
FC0003E0
FC0003E0
FC0003E0
FC0007E0
7E0007E0
7E0007E0
7E000FC0
3F001FC0
3F803F80
1FE07F80
1FFFFF00
0FFFFE00
07FFFC00
01FFF000
007FC000
00000000
00000000
00000000
00000000
00000000
7FFFFFE0
7FFFFFE0
7FFFFFE0
7FFFFFE0
7FFFFFE0
ENDCHAR
STARTCHAR 00BB
ENCODING 187
SWIDTH 555 0
DWIDTH 54 0
BBX 34 31 10 11
BITMAP
8000100000
C0001C0000
E0001E0000
F8001F0000
FC001F8000
FE001FE000
FF801FF000
FFC01FF800
7FE00FFC00
3FF007FF00
1FFC01FF80
07FC00FFC0
03FC007FC0
01FC001FC0
007C000FC0
003C0007C0
007C000FC0
01FC001FC0
03FC003FC0
07FC00FFC0
0FFC01FF80
3FF003FF00
7FE00FFC00
FFC01FF800
FF801FF000
FE001FE000
FC001F8000
F8001F0000
F0001E0000
C0001C0000
8000100000
ENDCHAR
STARTCHAR 00BC
ENCODING 188
SWIDTH 833 0
DWIDTH 81 0
BBX 76 71 3 -2
BITMAP
001E0000000000F80000
001E0000000001F80000
003E0000000001F00000
003E0000000003F00000
007E0000000007E00000
007E0000000007C00000
01FE000000000FC00000
0FFE000000001F800000
FFFE000000001F000000
FFFE000000003F000000
FFFE000000003E000000
FFFE000000007E000000
007E00000000FC000000
007E00000000F8000000
007E00000001F8000000
007E00000003F0000000
007E00000003F0000000
007E00000007E0000000
007E00000007C0000000
007E0000000FC0000000
007E0000001F80000000
007E0000001F00000000
007E0000003F00000000
007E0000003E00000000
007E0000007E00000000
007E000000FC00000000
007E000000F800000000
007E000001F800000000
007E000003F00000FC00
007E000003E00000FC00
007E000007E00001FC00
007E000007C00003FC00
007E00000FC00007FC00
007E00001F800007FC00
007E00001F00000FFC00
007E00003F00001FFC00
007E00007E00003FFC00
007E00007E00003FFC00
007E0000FC00007EFC00
007E0000F80000FCFC00
007E0001F80001F8FC00
00000003F00003F8FC00
00000003E00003F0FC00
00000007E00007E0FC00
00000007C0000FC0FC00
0000000FC0001F80FC00
0000001F80001F80FC00
0000001F00003F00FC00
0000003F00007E00FC00
0000007E0000FC00FC00
0000007C0000FC00FC00
000000FC0001F800FC00
000000F80003F000FC00
000001F80007E000FC00
000003F00007FFFFFFF0
000003E00007FFFFFFF0
000007E00007FFFFFFF0
00000FC00007FFFFFFF0
00000FC00007FFFFFFF0
00001F8000000000FC00
00001F0000000000FC00
00003F0000000000FC00
00007E0000000000FC00
00007C0000000000FC00
0000FC0000000000FC00
0000F80000000000FC00
0001F80000000000FC00
0003F00000000000FC00
0003E00000000000FC00
0007E000000000000000
000FC000000000000000
ENDCHAR
STARTCHAR 00BD
ENCODING 189
SWIDTH 833 0
DWIDTH 81 0
BBX 77 71 2 -2
BITMAP
000F0000000001F00000
000F0000000003F00000
001F0000000007E00000
001F0000000007C00000
003F000000000FC00000
003F000000001F800000
007F000000001F000000
03FF000000003F000000
FFFF000000003E000000
FFFF000000007E000000
FFFF00000000FC000000
FFFF00000000F8000000
FFFF00000001F8000000
003F00000003F0000000
003F00000003E0000000
003F00000007E0000000
003F00000007C0000000
003F0000000FC0000000
003F0000001F80000000
003F0000001F00000000
003F0000003F00000000
003F0000007E00000000
003F0000007C00000000
003F000000FC00000000
003F000000F800000000
003F000001F800000000
003F000003F000000000
003F000003E000000000
003F000007E0007FE000
003F000007C003FFFC00
003F00000FC007FFFF00
003F00001F800FFFFF80
003F00001F001FFFFFC0
003F00003F003FE07FE0
003F00007E007F801FE0
003F00007C007F000FF0
003F0000FC007E0007F0
003F0000F800FE0003F0
003F0001F800FC0003F0
003F0003F000FC0003F8
003F0003E000FC0003F8
003F0007E000FC0003F0
0000000FC000FC0003F0
0000000F8000000003F0
0000001F8000000007F0
0000001F000000000FE0
0000003F000000001FE0
0000007E000000003FC0
0000007C00000000FF80
000000FC00000003FF00
000001F80000000FFE00
000001F00000003FF800
000003F0000000FFE000
000003E0000001FF8000
000007E0000007FE0000
00000FC000000FF80000
00000F8000001FF00000
00001F8000003FC00000
00003F0000007F800000
00003F0000007F000000
00007E000000FE000000
00007C000000FE000000
0000FC000000FC000000
0001F8000001FFFFFFF0
0001F0000001FFFFFFF0
0003F0000001FFFFFFF0
0003E0000001FFFFFFF0
0007E0000001FFFFFFF0
000FC0000001FFFFFFF0
000F8000000000000000
001F8000000000000000
ENDCHAR
STARTCHAR 00BE
ENCODING 190
SWIDTH 833 0
DWIDTH 81 0
BBX 77 71 2 -2
BITMAP
001FF0000000001F8000
00FFFE000000001F8000
03FFFF800000003F0000
07FFFFC00000003E0000
0FFFFFE00000007E0000
1FF83FE0000000FC0000
1FC00FF0000000F80000
3F8007F0000001F80000
3F0003F0000001F00000
3F0003F8000003F00000
3F0001F8000007E00000
7F0001F8000007C00000
7E0001F800000FC00000
7E0001F800001F800000
000003F000001F000000
000003F000003F000000
000007F000003E000000
00007FE000007E000000
000FFFC00000FC000000
000FFF000000F8000000
000FFF000001F8000000
000FFFC00001F0000000
000FFFF00003F0000000
00000FF00007E0000000
000003F80007C0000000
000001F8000FC0000000
000001FC001F80000000
000000FC001F00000000
000000FC003F00007C00
FE0000FC003E00007C00
FE0000FC007E0000FC00
7E0000FC00FC0001FC00
7E0000FC00F80003FC00
7E0001FC01F80003FC00
7F0001F803F00007FC00
3F8003F803E0000FFC00
3FC007F007E0001FFC00
1FF03FF007C0003FFC00
1FFFFFE00FC0003FFC00
0FFFFFC01F80007EFC00
03FFFF801F0000FCFC00
01FFFE003F0001FCFC00
003FF0003E0001F8FC00
000000007E0003F0FC00
00000000FC0007E0FC00
00000000F8000FC0FC00
00000001F8001FC0FC00
00000003F0001F80FC00
00000003E0003F00FC00
00000007E0007E00FC00
00000007C000FE00FC00
0000000FC000FC00FC00
0000001F8001F800FC00
0000001F0003F000FC00
0000003F0003FFFFFFF8
0000007E0003FFFFFFF8
0000007C0003FFFFFFF8
000000FC0003FFFFFFF8
000000F80003FFFFFFF8
000001F800000000FC00
000003F000000000FC00
000003E000000000FC00
000007E000000000FC00
000007C000000000FC00
00000FC000000000FC00
00001F8000000000FC00
00001F0000000000FC00
00003F0000000000FC00
00007E0000000000FC00
00007C00000000000000
0000FC00000000000000
ENDCHAR
STARTCHAR 00BF
ENCODING 191
SWIDTH 606 0
DWIDTH 59 0
BBX 42 72 9 -21
BITMAP
00003FC00000
00003FC00000
00003FC00000
00003FC00000
00003FC00000
00003FC00000
00003FC00000
00003FC00000
00003FC00000
00003FC00000
000000000000
000000000000
000000000000
000000000000
000000000000
000000000000
000000000000
000000000000
000000000000
00003FC00000
00003FC00000
00003FC00000
00003FC00000
00003FC00000
00003FC00000
00003FC00000
00007FC00000
00007FC00000
00007FC00000
0000FFC00000
0000FF800000
0001FF800000
0003FF000000
0007FE000000
000FFE000000
001FFC000000
007FF8000000
00FFF0000000
01FFE0000000
03FF80000000
07FF00000000
07FE00000000
0FFC00000000
1FF800000000
1FF000000000
3FF000000000
3FE000000000
7FC000000000
7FC000000000
7FC000003FC0
FF8000003FC0
FF8000003FC0
FF8000003FC0
FF8000003FC0
FF8000003FC0
FF8000007FC0
FF8000007FC0
7FC000007F80
7FC000007F80
7FE00000FF80
7FF00001FF80
3FF80003FF00
3FFC0007FF00
1FFF001FFE00
0FFFFFFFFC00
0FFFFFFFFC00
07FFFFFFF800
03FFFFFFF000
00FFFFFFC000
003FFFFF8000
000FFFFC0000
0000FFE00000
ENDCHAR
STARTCHAR 00C0
ENCODING 192
SWIDTH 668 0
DWIDTH 65 0
BBX 61 91 2 0
BITMAP
00007FF000000000
00003FF800000000
00001FF800000000
00000FFC00000000
000007FE00000000
000003FE00000000
000001FF00000000
000000FF80000000
0000007F80000000
0000003FC0000000
0000001FE0000000
0000000FE0000000
00000007F0000000
00000003F8000000
0000000000000000
0000000000000000
0000000000000000
0000000000000000
0000000000000000
0000000000000000
0000007FF8000000
000000FFF8000000
000000FFF8000000
000000FFFC000000
000001FFFC000000
000001FFFE000000
000001FFFE000000
000003FFFE000000
000003FFFF000000
000003FFFF000000
000007FDFF000000
000007FDFF800000
00000FFCFF800000
00000FF8FF800000
00000FF8FFC00000
00001FF87FC00000
00001FF07FC00000
00001FF07FE00000
00003FE03FE00000
00003FE03FE00000
00003FE03FF00000
00007FC01FF00000
00007FC01FF00000
00007FC01FF80000
0000FF800FF80000
0000FF800FFC0000
0001FF800FFC0000
0001FF0007FC0000
0001FF0007FE0000
0003FF0007FE0000
0003FE0003FE0000
0003FE0003FF0000
0007FC0003FF0000
0007FC0001FF0000
0007FC0001FF8000
000FF80001FF8000
000FF80000FF8000
000FF80000FFC000
001FF00000FFC000
001FF000007FC000
001FF000007FE000
003FE000007FE000
003FFFFFFFFFF000
007FFFFFFFFFF000
007FFFFFFFFFF000
007FFFFFFFFFF800
00FFFFFFFFFFF800
00FFFFFFFFFFF800
00FFFFFFFFFFFC00
01FFFFFFFFFFFC00
01FF0000000FFC00
01FF00000007FE00
03FF00000007FE00
03FE00000007FE00
03FE00000003FF00
07FE00000003FF00
07FC00000003FF00
0FFC00000001FF80
0FFC00000001FF80
0FF800000001FF80
1FF800000000FFC0
1FF800000000FFC0
1FF000000000FFE0
3FF0000000007FE0
3FF0000000007FE0
3FE0000000007FF0
7FE0000000003FF0
7FC0000000003FF0
7FC0000000003FF8
FFC0000000001FF8
FF80000000001FF8
ENDCHAR
STARTCHAR 00C1
ENCODING 193
SWIDTH 668 0
DWIDTH 65 0
BBX 61 91 2 0
BITMAP
000000007FF00000
000000007FE00000
00000000FFC00000
00000001FF800000
00000001FF000000
00000003FE000000
00000007FC000000
00000007F8000000
0000000FF0000000
0000000FE0000000
0000001FC0000000
0000003F80000000
0000003F00000000
0000007E00000000
0000000000000000
0000000000000000
0000000000000000
0000000000000000
0000000000000000
0000000000000000
0000007FF8000000
000000FFF8000000
000000FFF8000000
000000FFFC000000
000001FFFC000000
000001FFFE000000
000001FFFE000000
000003FFFE000000
000003FFFF000000
000003FFFF000000
000007FDFF000000
000007FDFF800000
00000FFCFF800000
00000FF8FF800000
00000FF8FFC00000
00001FF87FC00000
00001FF07FC00000
00001FF07FE00000
00003FE03FE00000
00003FE03FE00000
00003FE03FF00000
00007FC01FF00000
00007FC01FF00000
00007FC01FF80000
0000FF800FF80000
0000FF800FFC0000
0001FF800FFC0000
0001FF0007FC0000
0001FF0007FE0000
0003FF0007FE0000
0003FE0003FE0000
0003FE0003FF0000
0007FC0003FF0000
0007FC0001FF0000
0007FC0001FF8000
000FF80001FF8000
000FF80000FF8000
000FF80000FFC000
001FF00000FFC000
001FF000007FC000
001FF000007FE000
003FE000007FE000
003FFFFFFFFFF000
007FFFFFFFFFF000
007FFFFFFFFFF000
007FFFFFFFFFF800
00FFFFFFFFFFF800
00FFFFFFFFFFF800
00FFFFFFFFFFFC00
01FFFFFFFFFFFC00
01FF0000000FFC00
01FF00000007FE00
03FF00000007FE00
03FE00000007FE00
03FE00000003FF00
07FE00000003FF00
07FC00000003FF00
0FFC00000001FF80
0FFC00000001FF80
0FF800000001FF80
1FF800000000FFC0
1FF800000000FFC0
1FF000000000FFE0
3FF0000000007FE0
3FF0000000007FE0
3FE0000000007FF0
7FE0000000003FF0
7FC0000000003FF0
7FC0000000003FF8
FFC0000000001FF8
FF80000000001FF8
ENDCHAR
STARTCHAR 00C2
ENCODING 194
SWIDTH 668 0
DWIDTH 65 0
BBX 61 92 2 0
BITMAP
0000003FE0000000
0000007FF0000000
0000007FF0000000
000000FFF8000000
000001FFFC000000
000001FFFC000000
000003FDFE000000
000003F8FF000000
000007F07F000000
00000FE03F800000
00000FE01FC00000
00001FC01FC00000
00003F800FE00000
00003F0007F00000
00007E0003F00000
0000000000000000
0000000000000000
0000000000000000
0000000000000000
0000000000000000
0000000000000000
0000007FF8000000
000000FFF8000000
000000FFF8000000
000000FFFC000000
000001FFFC000000
000001FFFE000000
000001FFFE000000
000003FFFE000000
000003FFFF000000
000003FFFF000000
000007FDFF000000
000007FDFF800000
00000FFCFF800000
00000FF8FF800000
00000FF8FFC00000
00001FF87FC00000
00001FF07FC00000
00001FF07FE00000
00003FE03FE00000
00003FE03FE00000
00003FE03FF00000
00007FC01FF00000
00007FC01FF00000
00007FC01FF80000
0000FF800FF80000
0000FF800FFC0000
0001FF800FFC0000
0001FF0007FC0000
0001FF0007FE0000
0003FF0007FE0000
0003FE0003FE0000
0003FE0003FF0000
0007FC0003FF0000
0007FC0001FF0000
0007FC0001FF8000
000FF80001FF8000
000FF80000FF8000
000FF80000FFC000
001FF00000FFC000
001FF000007FC000
001FF000007FE000
003FE000007FE000
003FFFFFFFFFF000
007FFFFFFFFFF000
007FFFFFFFFFF000
007FFFFFFFFFF800
00FFFFFFFFFFF800
00FFFFFFFFFFF800
00FFFFFFFFFFFC00
01FFFFFFFFFFFC00
01FF0000000FFC00
01FF00000007FE00
03FF00000007FE00
03FE00000007FE00
03FE00000003FF00
07FE00000003FF00
07FC00000003FF00
0FFC00000001FF80
0FFC00000001FF80
0FF800000001FF80
1FF800000000FFC0
1FF800000000FFC0
1FF000000000FFE0
3FF0000000007FE0
3FF0000000007FE0
3FE0000000007FF0
7FE0000000003FF0
7FC0000000003FF0
7FC0000000003FF8
FFC0000000001FF8
FF80000000001FF8
ENDCHAR
STARTCHAR 00C3
ENCODING 195
SWIDTH 668 0
DWIDTH 65 0
BBX 61 89 2 0
BITMAP
000007E000FC0000
00001FFC00FC0000
00003FFF81F80000
00003FFFFFF80000
00007FFFFFF80000
00007FFFFFF00000
0000FFFFFFF00000
0000FC0FFFE00000
0000FC01FFC00000
0001F8003F000000
0000000000000000
0000000000000000
0000000000000000
0000000000000000
0000000000000000
0000000000000000
0000000000000000
0000000000000000
0000007FF8000000
000000FFF8000000
000000FFF8000000
000000FFFC000000
000001FFFC000000
000001FFFE000000
000001FFFE000000
000003FFFE000000
000003FFFF000000
000003FFFF000000
000007FDFF000000
000007FDFF800000
00000FFCFF800000
00000FF8FF800000
00000FF8FFC00000
00001FF87FC00000
00001FF07FC00000
00001FF07FE00000
00003FE03FE00000
00003FE03FE00000
00003FE03FF00000
00007FC01FF00000
00007FC01FF00000
00007FC01FF80000
0000FF800FF80000
0000FF800FFC0000
0001FF800FFC0000
0001FF0007FC0000
0001FF0007FE0000
0003FF0007FE0000
0003FE0003FE0000
0003FE0003FF0000
0007FC0003FF0000
0007FC0001FF0000
0007FC0001FF8000
000FF80001FF8000
000FF80000FF8000
000FF80000FFC000
001FF00000FFC000
001FF000007FC000
001FF000007FE000
003FE000007FE000
003FFFFFFFFFF000
007FFFFFFFFFF000
007FFFFFFFFFF000
007FFFFFFFFFF800
00FFFFFFFFFFF800
00FFFFFFFFFFF800
00FFFFFFFFFFFC00
01FFFFFFFFFFFC00
01FF0000000FFC00
01FF00000007FE00
03FF00000007FE00
03FE00000007FE00
03FE00000003FF00
07FE00000003FF00
07FC00000003FF00
0FFC00000001FF80
0FFC00000001FF80
0FF800000001FF80
1FF800000000FFC0
1FF800000000FFC0
1FF000000000FFE0
3FF0000000007FE0
3FF0000000007FE0
3FE0000000007FF0
7FE0000000003FF0
7FC0000000003FF0
7FC0000000003FF8
FFC0000000001FF8
FF80000000001FF8
ENDCHAR
STARTCHAR 00C4
ENCODING 196
SWIDTH 668 0
DWIDTH 65 0
BBX 61 89 2 0
BITMAP
00003FF07FE00000
00003FF07FE00000
00003FF07FE00000
00003FF07FE00000
00003FF07FE00000
00003FF07FE00000
00003FF07FE00000
00003FF07FE00000
00003FF07FE00000
00003FF07FE00000
0000000000000000
0000000000000000
0000000000000000
0000000000000000
0000000000000000
0000000000000000
0000000000000000
0000000000000000
0000007FF8000000
000000FFF8000000
000000FFF8000000
000000FFFC000000
000001FFFC000000
000001FFFE000000
000001FFFE000000
000003FFFE000000
000003FFFF000000
000003FFFF000000
000007FDFF000000
000007FDFF800000
00000FFCFF800000
00000FF8FF800000
00000FF8FFC00000
00001FF87FC00000
00001FF07FC00000
00001FF07FE00000
00003FE03FE00000
00003FE03FE00000
00003FE03FF00000
00007FC01FF00000
00007FC01FF00000
00007FC01FF80000
0000FF800FF80000
0000FF800FFC0000
0001FF800FFC0000
0001FF0007FC0000
0001FF0007FE0000
0003FF0007FE0000
0003FE0003FE0000
0003FE0003FF0000
0007FC0003FF0000
0007FC0001FF0000
0007FC0001FF8000
000FF80001FF8000
000FF80000FF8000
000FF80000FFC000
001FF00000FFC000
001FF000007FC000
001FF000007FE000
003FE000007FE000
003FFFFFFFFFF000
007FFFFFFFFFF000
007FFFFFFFFFF000
007FFFFFFFFFF800
00FFFFFFFFFFF800
00FFFFFFFFFFF800
00FFFFFFFFFFFC00
01FFFFFFFFFFFC00
01FF0000000FFC00
01FF00000007FE00
03FF00000007FE00
03FE00000007FE00
03FE00000003FF00
07FE00000003FF00
07FC00000003FF00
0FFC00000001FF80
0FFC00000001FF80
0FF800000001FF80
1FF800000000FFC0
1FF800000000FFC0
1FF000000000FFE0
3FF0000000007FE0
3FF0000000007FE0
3FE0000000007FF0
7FE0000000003FF0
7FC0000000003FF0
7FC0000000003FF8
FFC0000000001FF8
FF80000000001FF8
ENDCHAR
STARTCHAR 00C5
ENCODING 197
SWIDTH 668 0
DWIDTH 65 0
BBX 61 93 2 0
BITMAP
0000000FC0000000
0000003FE0000000
0000007FF8000000
000000FFFC000000
000001FCFC000000
000001F03E000000
000003E03E000000
000003C01E000000
000003C01E000000
000003C01E000000
000003E03E000000
000003E03E000000
000001F87C000000
000001FFFC000000
000000FFF8000000
0000007FF0000000
0000001FC0000000
0000000000000000
0000000000000000
0000000000000000
0000000000000000
0000000000000000
0000007FF8000000
000000FFF8000000
000000FFF8000000
000000FFFC000000
000001FFFC000000
000001FFFE000000
000001FFFE000000
000003FFFE000000
000003FFFF000000
000003FFFF000000
000007FDFF000000
000007FDFF800000
00000FFCFF800000
00000FF8FF800000
00000FF8FFC00000
00001FF87FC00000
00001FF07FC00000
00001FF07FE00000
00003FE03FE00000
00003FE03FE00000
00003FE03FF00000
00007FC01FF00000
00007FC01FF00000
00007FC01FF80000
0000FF800FF80000
0000FF800FFC0000
0001FF800FFC0000
0001FF0007FC0000
0001FF0007FE0000
0003FF0007FE0000
0003FE0003FE0000
0003FE0003FF0000
0007FC0003FF0000
0007FC0001FF0000
0007FC0001FF8000
000FF80001FF8000
000FF80000FF8000
000FF80000FFC000
001FF00000FFC000
001FF000007FC000
001FF000007FE000
003FE000007FE000
003FFFFFFFFFF000
007FFFFFFFFFF000
007FFFFFFFFFF000
007FFFFFFFFFF800
00FFFFFFFFFFF800
00FFFFFFFFFFF800
00FFFFFFFFFFFC00
01FFFFFFFFFFFC00
01FF0000000FFC00
01FF00000007FE00
03FF00000007FE00
03FE00000007FE00
03FE00000003FF00
07FE00000003FF00
07FC00000003FF00
0FFC00000001FF80
0FFC00000001FF80
0FF800000001FF80
1FF800000000FFC0
1FF800000000FFC0
1FF000000000FFE0
3FF0000000007FE0
3FF0000000007FE0
3FE0000000007FF0
7FE0000000003FF0
7FC0000000003FF0
7FC0000000003FF8
FFC0000000001FF8
FF80000000001FF8
ENDCHAR
STARTCHAR 00C6
ENCODING 198
SWIDTH 997 0
DWIDTH 97 0
BBX 91 71 1 0
BITMAP
00000007FFFFFFFFFFFFFFC0
00000007FFFFFFFFFFFFFFC0
0000000FFFFFFFFFFFFFFFC0
0000000FFFFFFFFFFFFFFFC0
0000001FFFFFFFFFFFFFFFC0
0000001FFFFFFFFFFFFFFFC0
0000003FFFFFFFFFFFFFFFC0
0000003FFFFFFFFFFFFFFFC0
0000003FE00FFC0000000000
0000007FC00FFC0000000000
0000007FC00FFC0000000000
000000FF800FFC0000000000
000000FF800FFC0000000000
000000FF800FFC0000000000
000001FF000FFC0000000000
000001FF000FFC0000000000
000003FE000FFC0000000000
000003FE000FFC0000000000
000003FE000FFC0000000000
000007FC000FFC0000000000
000007FC000FFC0000000000
00000FF8000FFC0000000000
00000FF8000FFC0000000000
00000FF8000FFC0000000000
00001FF0000FFC0000000000
00001FF0000FFC0000000000
00003FE0000FFC0000000000
00003FE0000FFC0000000000
00007FE0000FFC0000000000
00007FC0000FFC0000000000
00007FC0000FFC0000000000
0000FF80000FFFFFFFFFFF00
0000FF80000FFFFFFFFFFF00
0001FF80000FFFFFFFFFFF00
0001FF00000FFFFFFFFFFF00
0001FF00000FFFFFFFFFFF00
0003FF00000FFFFFFFFFFF00
0003FE00000FFFFFFFFFFF00
0007FE00000FFFFFFFFFFF00
0007FC00000FFC0000000000
0007FC00000FFC0000000000
000FFC00000FFC0000000000
000FFFFFFFFFFC0000000000
001FFFFFFFFFFC0000000000
001FFFFFFFFFFC0000000000
001FFFFFFFFFFC0000000000
003FFFFFFFFFFC0000000000
003FFFFFFFFFFC0000000000
007FFFFFFFFFFC0000000000
007FFFFFFFFFFC0000000000
00FFC000000FFC0000000000
00FFC000000FFC0000000000
00FF8000000FFC0000000000
01FF8000000FFC0000000000
01FF8000000FFC0000000000
03FF0000000FFC0000000000
03FF0000000FFC0000000000
03FE0000000FFC0000000000
07FE0000000FFC0000000000
07FE0000000FFC0000000000
0FFC0000000FFC0000000000
0FFC0000000FFC0000000000
0FF80000000FFC0000000000
1FF80000000FFFFFFFFFFFE0
1FF80000000FFFFFFFFFFFE0
3FF00000000FFFFFFFFFFFE0
3FF00000000FFFFFFFFFFFE0
7FE00000000FFFFFFFFFFFE0
7FE00000000FFFFFFFFFFFE0
7FE00000000FFFFFFFFFFFE0
FFC00000000FFFFFFFFFFFE0
ENDCHAR
STARTCHAR 00C7
ENCODING 199
SWIDTH 720 0
DWIDTH 70 0
BBX 61 93 5 -21
BITMAP
0000003FFE000000
000007FFFFE00000
00001FFFFFF80000
00007FFFFFFE0000
0001FFFFFFFF8000
0007FFFFFFFFC000
000FFFFFFFFFE000
001FFFFFFFFFF000
003FFFC00FFFF800
007FFE0000FFFC00
00FFF800003FFE00
01FFE000000FFE00
01FFC0000007FF00
03FF80000003FF00
07FF00000001FF80
07FE00000001FF80
0FFC00000000FFC0
0FFC00000000FFC0
1FF8000000007FC0
1FF0000000007FE0
1FF0000000007FE0
3FF0000000003FE0
3FE0000000003FE0
3FE0000000000000
7FC0000000000000
7FC0000000000000
7FC0000000000000
7FC0000000000000
FFC0000000000000
FF80000000000000
FF80000000000000
FF80000000000000
FF80000000000000
FF80000000000000
FF80000000000000
FF80000000000000
FF80000000000000
FF80000000000000
FF80000000000000
FF80000000000000
FF80000000000000
FF80000000000000
FF80000000000000
FF80000000000000
FF80000000000000
FF80000000000000
FFC0000000001FF8
7FC0000000001FF8
7FC0000000001FF8
7FC0000000001FF0
7FE0000000001FF0
3FE0000000003FF0
3FE0000000003FF0
3FF0000000003FE0
1FF0000000003FE0
1FF8000000007FE0
1FF8000000007FE0
0FFC00000000FFC0
0FFE00000000FFC0
07FF00000001FF80
03FF80000003FF80
03FFC0000007FF00
01FFE000000FFF00
00FFF800001FFE00
00FFFC00007FFC00
007FFF8001FFFC00
003FFFFEFFFFF800
001FFFFFFFFFF000
0007FFFFFFFFE000
0003FFFFFFFF8000
0001FFFFFFFF0000
00007FFFFFFC0000
00001FFFFFF00000
000001FFFF000000
0000000F00000000
0000000E00000000
0000001E00000000
0000001EC0000000
0000003FFC000000
0000003FFE000000
0000007FFF000000
00000020FF800000
000000007F800000
000000003F800000
000000003F800000
000000003F800000
000010007F800000
00003C007F000000
00007F81FF000000
00007FFFFE000000
00001FFFFC000000
000007FFF0000000
000000FF80000000
ENDCHAR
STARTCHAR 00C8
ENCODING 200
SWIDTH 668 0
DWIDTH 65 0
BBX 51 91 9 0
BITMAP
000FFE00000000
0007FE00000000
0003FF00000000
0001FF80000000
0000FF80000000
00007FC0000000
00003FE0000000
00001FE0000000
00000FF0000000
000007F8000000
000003F8000000
000001FC000000
000000FC000000
0000007E000000
00000000000000
00000000000000
00000000000000
00000000000000
00000000000000
00000000000000
FFFFFFFFFFFF80
FFFFFFFFFFFF80
FFFFFFFFFFFF80
FFFFFFFFFFFF80
FFFFFFFFFFFF80
FFFFFFFFFFFF80
FFFFFFFFFFFF80
FFFFFFFFFFFF80
FF800000000000
FF800000000000
FF800000000000
FF800000000000
FF800000000000
FF800000000000
FF800000000000
FF800000000000
FF800000000000
FF800000000000
FF800000000000
FF800000000000
FF800000000000
FF800000000000
FF800000000000
FF800000000000
FF800000000000
FF800000000000
FF800000000000
FF800000000000
FF800000000000
FF800000000000
FF800000000000
FFFFFFFFFFFE00
FFFFFFFFFFFE00
FFFFFFFFFFFE00
FFFFFFFFFFFE00
FFFFFFFFFFFE00
FFFFFFFFFFFE00
FFFFFFFFFFFE00
FFFFFFFFFFFE00
FF800000000000
FF800000000000
FF800000000000
FF800000000000
FF800000000000
FF800000000000
FF800000000000
FF800000000000
FF800000000000
FF800000000000
FF800000000000
FF800000000000
FF800000000000
FF800000000000
FF800000000000
FF800000000000
FF800000000000
FF800000000000
FF800000000000
FF800000000000
FF800000000000
FF800000000000
FF800000000000
FF800000000000
FFFFFFFFFFFFE0
FFFFFFFFFFFFE0
FFFFFFFFFFFFE0
FFFFFFFFFFFFE0
FFFFFFFFFFFFE0
FFFFFFFFFFFFE0
FFFFFFFFFFFFE0
FFFFFFFFFFFFE0
ENDCHAR
STARTCHAR 00C9
ENCODING 201
SWIDTH 668 0
DWIDTH 65 0
BBX 51 91 9 0
BITMAP
0000003FF80000
0000007FF00000
0000007FE00000
000000FFC00000
000001FF800000
000001FF000000
000003FE000000
000007FC000000
000007F8000000
00000FF0000000
00000FE0000000
00001FC0000000
00003F80000000
00003F00000000
00000000000000
00000000000000
00000000000000
00000000000000
00000000000000
00000000000000
FFFFFFFFFFFF80
FFFFFFFFFFFF80
FFFFFFFFFFFF80
FFFFFFFFFFFF80
FFFFFFFFFFFF80
FFFFFFFFFFFF80
FFFFFFFFFFFF80
FFFFFFFFFFFF80
FF800000000000
FF800000000000
FF800000000000
FF800000000000
FF800000000000
FF800000000000
FF800000000000
FF800000000000
FF800000000000
FF800000000000
FF800000000000
FF800000000000
FF800000000000
FF800000000000
FF800000000000
FF800000000000
FF800000000000
FF800000000000
FF800000000000
FF800000000000
FF800000000000
FF800000000000
FF800000000000
FFFFFFFFFFFE00
FFFFFFFFFFFE00
FFFFFFFFFFFE00
FFFFFFFFFFFE00
FFFFFFFFFFFE00
FFFFFFFFFFFE00
FFFFFFFFFFFE00
FFFFFFFFFFFE00
FF800000000000
FF800000000000
FF800000000000
FF800000000000
FF800000000000
FF800000000000
FF800000000000
FF800000000000
FF800000000000
FF800000000000
FF800000000000
FF800000000000
FF800000000000
FF800000000000
FF800000000000
FF800000000000
FF800000000000
FF800000000000
FF800000000000
FF800000000000
FF800000000000
FF800000000000
FF800000000000
FF800000000000
FFFFFFFFFFFFE0
FFFFFFFFFFFFE0
FFFFFFFFFFFFE0
FFFFFFFFFFFFE0
FFFFFFFFFFFFE0
FFFFFFFFFFFFE0
FFFFFFFFFFFFE0
FFFFFFFFFFFFE0
ENDCHAR
STARTCHAR 00CA
ENCODING 202
SWIDTH 668 0
DWIDTH 65 0
BBX 51 92 9 0
BITMAP
00000FF8000000
00001FFC000000
00001FFC000000
00003FFE000000
00007FFF000000
00007FFF000000
0000FF7F800000
0001FE3FC00000
0001FC1FC00000
0003F80FE00000
0007F80FF00000
0007F007F00000
000FE003F80000
000FC001F80000
001F8000FC0000
00000000000000
00000000000000
00000000000000
00000000000000
00000000000000
00000000000000
FFFFFFFFFFFF80
FFFFFFFFFFFF80
FFFFFFFFFFFF80
FFFFFFFFFFFF80
FFFFFFFFFFFF80
FFFFFFFFFFFF80
FFFFFFFFFFFF80
FFFFFFFFFFFF80
FF800000000000
FF800000000000
FF800000000000
FF800000000000
FF800000000000
FF800000000000
FF800000000000
FF800000000000
FF800000000000
FF800000000000
FF800000000000
FF800000000000
FF800000000000
FF800000000000
FF800000000000
FF800000000000
FF800000000000
FF800000000000
FF800000000000
FF800000000000
FF800000000000
FF800000000000
FF800000000000
FFFFFFFFFFFE00
FFFFFFFFFFFE00
FFFFFFFFFFFE00
FFFFFFFFFFFE00
FFFFFFFFFFFE00
FFFFFFFFFFFE00
FFFFFFFFFFFE00
FFFFFFFFFFFE00
FF800000000000
FF800000000000
FF800000000000
FF800000000000
FF800000000000
FF800000000000
FF800000000000
FF800000000000
FF800000000000
FF800000000000
FF800000000000
FF800000000000
FF800000000000
FF800000000000
FF800000000000
FF800000000000
FF800000000000
FF800000000000
FF800000000000
FF800000000000
FF800000000000
FF800000000000
FF800000000000
FF800000000000
FFFFFFFFFFFFE0
FFFFFFFFFFFFE0
FFFFFFFFFFFFE0
FFFFFFFFFFFFE0
FFFFFFFFFFFFE0
FFFFFFFFFFFFE0
FFFFFFFFFFFFE0
FFFFFFFFFFFFE0
ENDCHAR
STARTCHAR 00CB
ENCODING 203
SWIDTH 668 0
DWIDTH 65 0
BBX 51 89 9 0
BITMAP
001FFC1FF80000
001FFC1FF80000
001FFC1FF80000
001FFC1FF80000
001FFC1FF80000
001FFC1FF80000
001FFC1FF80000
001FFC1FF80000
001FFC1FF80000
001FFC1FF80000
00000000000000
00000000000000
00000000000000
00000000000000
00000000000000
00000000000000
00000000000000
00000000000000
FFFFFFFFFFFF80
FFFFFFFFFFFF80
FFFFFFFFFFFF80
FFFFFFFFFFFF80
FFFFFFFFFFFF80
FFFFFFFFFFFF80
FFFFFFFFFFFF80
FFFFFFFFFFFF80
FF800000000000
FF800000000000
FF800000000000
FF800000000000
FF800000000000
FF800000000000
FF800000000000
FF800000000000
FF800000000000
FF800000000000
FF800000000000
FF800000000000
FF800000000000
FF800000000000
FF800000000000
FF800000000000
FF800000000000
FF800000000000
FF800000000000
FF800000000000
FF800000000000
FF800000000000
FF800000000000
FFFFFFFFFFFE00
FFFFFFFFFFFE00
FFFFFFFFFFFE00
FFFFFFFFFFFE00
FFFFFFFFFFFE00
FFFFFFFFFFFE00
FFFFFFFFFFFE00
FFFFFFFFFFFE00
FF800000000000
FF800000000000
FF800000000000
FF800000000000
FF800000000000
FF800000000000
FF800000000000
FF800000000000
FF800000000000
FF800000000000
FF800000000000
FF800000000000
FF800000000000
FF800000000000
FF800000000000
FF800000000000
FF800000000000
FF800000000000
FF800000000000
FF800000000000
FF800000000000
FF800000000000
FF800000000000
FF800000000000
FFFFFFFFFFFFE0
FFFFFFFFFFFFE0
FFFFFFFFFFFFE0
FFFFFFFFFFFFE0
FFFFFFFFFFFFE0
FFFFFFFFFFFFE0
FFFFFFFFFFFFE0
FFFFFFFFFFFFE0
ENDCHAR
STARTCHAR 00CC
ENCODING 204
SWIDTH 277 0
DWIDTH 27 0
BBX 19 91 1 0
BITMAP
FFE000
7FE000
3FF000
1FF800
0FF800
07FC00
03FE00
01FE00
00FF00
007F80
003F80
001FC0
000FC0
0007E0
000000
000000
000000
000000
000000
000000
007FC0
007FC0
007FC0
007FC0
007FC0
007FC0
007FC0
007FC0
007FC0
007FC0
007FC0
007FC0
007FC0
007FC0
007FC0
007FC0
007FC0
007FC0
007FC0
007FC0
007FC0
007FC0
007FC0
007FC0
007FC0
007FC0
007FC0
007FC0
007FC0
007FC0
007FC0
007FC0
007FC0
007FC0
007FC0
007FC0
007FC0
007FC0
007FC0
007FC0
007FC0
007FC0
007FC0
007FC0
007FC0
007FC0
007FC0
007FC0
007FC0
007FC0
007FC0
007FC0
007FC0
007FC0
007FC0
007FC0
007FC0
007FC0
007FC0
007FC0
007FC0
007FC0
007FC0
007FC0
007FC0
007FC0
007FC0
007FC0
007FC0
007FC0
007FC0
ENDCHAR
STARTCHAR 00CD
ENCODING 205
SWIDTH 277 0
DWIDTH 27 0
BBX 20 91 7 0
BITMAP
007FF0
00FFC0
01FF80
01FF00
03FE00
07FC00
07F800
0FF000
1FE000
1FC000
3F8000
7F0000
7E0000
FC0000
000000
000000
000000
000000
000000
000000
1FF000
1FF000
1FF000
1FF000
1FF000
1FF000
1FF000
1FF000
1FF000
1FF000
1FF000
1FF000
1FF000
1FF000
1FF000
1FF000
1FF000
1FF000
1FF000
1FF000
1FF000
1FF000
1FF000
1FF000
1FF000
1FF000
1FF000
1FF000
1FF000
1FF000
1FF000
1FF000
1FF000
1FF000
1FF000
1FF000
1FF000
1FF000
1FF000
1FF000
1FF000
1FF000
1FF000
1FF000
1FF000
1FF000
1FF000
1FF000
1FF000
1FF000
1FF000
1FF000
1FF000
1FF000
1FF000
1FF000
1FF000
1FF000
1FF000
1FF000
1FF000
1FF000
1FF000
1FF000
1FF000
1FF000
1FF000
1FF000
1FF000
1FF000
1FF000
ENDCHAR
STARTCHAR 00CE
ENCODING 206
SWIDTH 277 0
DWIDTH 27 0
BBX 27 92 0 0
BITMAP
007FC000
007FE000
00FFF000
01FFF000
01FFF800
03FFFC00
07FBFC00
07F1FE00
0FF0FF00
1FE07F00
1FC03F80
3F801FC0
3F001FC0
7E000FE0
FE0007E0
00000000
00000000
00000000
00000000
00000000
00000000
003FE000
003FE000
003FE000
003FE000
003FE000
003FE000
003FE000
003FE000
003FE000
003FE000
003FE000
003FE000
003FE000
003FE000
003FE000
003FE000
003FE000
003FE000
003FE000
003FE000
003FE000
003FE000
003FE000
003FE000
003FE000
003FE000
003FE000
003FE000
003FE000
003FE000
003FE000
003FE000
003FE000
003FE000
003FE000
003FE000
003FE000
003FE000
003FE000
003FE000
003FE000
003FE000
003FE000
003FE000
003FE000
003FE000
003FE000
003FE000
003FE000
003FE000
003FE000
003FE000
003FE000
003FE000
003FE000
003FE000
003FE000
003FE000
003FE000
003FE000
003FE000
003FE000
003FE000
003FE000
003FE000
003FE000
003FE000
003FE000
003FE000
003FE000
003FE000
ENDCHAR
STARTCHAR 00CF
ENCODING 207
SWIDTH 277 0
DWIDTH 27 0
BBX 26 88 1 0
BITMAP
FFC0FFC0
FFC0FFC0
FFC0FFC0
FFC0FFC0
FFC0FFC0
FFC0FFC0
FFC0FFC0
FFC0FFC0
FFC0FFC0
FFC0FFC0
00000000
00000000
00000000
00000000
00000000
00000000
00000000
007FC000
007FC000
007FC000
007FC000
007FC000
007FC000
007FC000
007FC000
007FC000
007FC000
007FC000
007FC000
007FC000
007FC000
007FC000
007FC000
007FC000
007FC000
007FC000
007FC000
007FC000
007FC000
007FC000
007FC000
007FC000
007FC000
007FC000
007FC000
007FC000
007FC000
007FC000
007FC000
007FC000
007FC000
007FC000
007FC000
007FC000
007FC000
007FC000
007FC000
007FC000
007FC000
007FC000
007FC000
007FC000
007FC000
007FC000
007FC000
007FC000
007FC000
007FC000
007FC000
007FC000
007FC000
007FC000
007FC000
007FC000
007FC000
007FC000
007FC000
007FC000
007FC000
007FC000
007FC000
007FC000
007FC000
007FC000
007FC000
007FC000
007FC000
007FC000
ENDCHAR
STARTCHAR 00D0
ENCODING 208
SWIDTH 720 0
DWIDTH 70 0
BBX 63 71 2 0
BITMAP
01FFFFFFFF000000
01FFFFFFFFF00000
01FFFFFFFFFC0000
01FFFFFFFFFF0000
01FFFFFFFFFFC000
01FFFFFFFFFFE000
01FFFFFFFFFFF000
01FFFFFFFFFFF800
01FF000003FFFC00
01FF0000007FFE00
01FF0000001FFF00
01FF00000007FF80
01FF00000003FF80
01FF00000001FFC0
01FF00000000FFC0
01FF000000007FE0
01FF000000007FE0
01FF000000003FF0
01FF000000001FF0
01FF000000001FF8
01FF000000000FF8
01FF000000000FF8
01FF000000000FF8
01FF000000000FFC
01FF0000000007FC
01FF0000000007FC
01FF0000000007FC
01FF0000000007FC
01FF0000000007FC
01FF0000000003FE
01FF0000000003FE
FFFF0000000003FE
FFFFFFFF000003FE
FFFFFFFF000003FE
FFFFFFFF000003FE
FFFFFFFF000003FE
FFFFFFFF000003FE
FFFFFFFF000003FE
01FF0000000003FE
01FF0000000003FE
01FF0000000003FE
01FF0000000003FE
01FF0000000007FC
01FF0000000007FC
01FF0000000007FC
01FF0000000007FC
01FF0000000007FC
01FF000000000FFC
01FF000000000FF8
01FF000000000FF8
01FF000000001FF8
01FF000000001FF8
01FF000000001FF0
01FF000000003FF0
01FF000000003FE0
01FF000000007FE0
01FF00000000FFC0
01FF00000001FFC0
01FF00000003FF80
01FF00000007FF80
01FF0000001FFF00
01FF0000007FFE00
01FF000003FFFC00
01FFFFFFFFFFF800
01FFFFFFFFFFF000
01FFFFFFFFFFE000
01FFFFFFFFFFC000
01FFFFFFFFFF0000
01FFFFFFFFFC0000
01FFFFFFFFF00000
01FFFFFFFF000000
ENDCHAR
STARTCHAR 00D1
ENCODING 209
SWIDTH 720 0
DWIDTH 70 0
BBX 56 89 7 0
BITMAP
00001F8003F000
00003FF003F000
00007FFE07F000
0000FFFFFFE000
0001FFFFFFE000
0001FFFFFFC000
0003FFFFFFC000
0003F03FFF8000
0003F007FF0000
0003E000FC0000
00000000000000
00000000000000
00000000000000
00000000000000
00000000000000
00000000000000
00000000000000
00000000000000
FFE000000001FF
FFE000000001FF
FFF000000001FF
FFF000000001FF
FFF800000001FF
FFFC00000001FF
FFFC00000001FF
FFFE00000001FF
FFFF00000001FF
FFFF00000001FF
FFFF80000001FF
FFFFC0000001FF
FFFFC0000001FF
FFFFE0000001FF
FFBFE0000001FF
FFBFF0000001FF
FF9FF8000001FF
FF9FF8000001FF
FF8FFC000001FF
FF87FE000001FF
FF87FE000001FF
FF83FF000001FF
FF81FF800001FF
FF81FF800001FF
FF80FFC00001FF
FF807FC00001FF
FF807FE00001FF
FF803FF00001FF
FF803FF00001FF
FF801FF80001FF
FF800FFC0001FF
FF800FFC0001FF
FF8007FE0001FF
FF8003FF0001FF
FF8003FF0001FF
FF8001FF8001FF
FF8000FF8001FF
FF8000FFC001FF
FF80007FE001FF
FF80007FE001FF
FF80003FF001FF
FF80001FF801FF
FF80001FF801FF
FF80000FFC01FF
FF800007FE01FF
FF800007FE01FF
FF800003FF01FF
FF800001FF81FF
FF800001FF81FF
FF800000FFC1FF
FF800000FFC1FF
FF8000007FE1FF
FF8000003FF1FF
FF8000003FF1FF
FF8000001FF9FF
FF8000000FFDFF
FF8000000FFDFF
FF80000007FFFF
FF80000003FFFF
FF80000003FFFF
FF80000001FFFF
FF80000001FFFF
FF80000000FFFF
FF800000007FFF
FF800000007FFF
FF800000003FFF
FF800000001FFF
FF800000001FFF
FF800000000FFF
FF8000000007FF
FF8000000007FF
ENDCHAR
STARTCHAR 00D2
ENCODING 210
SWIDTH 781 0
DWIDTH 76 0
BBX 68 93 4 -2
BITMAP
00000FFE0000000000
000003FF0000000000
000001FF8000000000
000000FF8000000000
0000007FC000000000
0000003FE000000000
0000001FE000000000
0000000FF000000000
00000007F800000000
00000003F800000000
00000001FC00000000
00000000FE00000000
000000007E00000000
000000003F00000000
000000000000000000
000000000000000000
000000000000000000
000000000000000000
000000000000000000
0000000FFF00000000
000001FFFFF8000000
00000FFFFFFF000000
00003FFFFFFFC00000
0000FFFFFFFFF00000
0001FFFFFFFFF80000
0007FFFFFFFFFE0000
000FFFFFFFFFFF0000
001FFFF001FFFF8000
003FFF80001FFFC000
007FFE000007FFE000
00FFF8000001FFF000
01FFE0000000FFF800
01FFC00000003FF800
03FF800000001FFC00
07FF000000000FFE00
07FE0000000007FE00
0FFC0000000007FF00
0FFC0000000003FF00
1FF80000000001FF80
1FF80000000001FF80
3FF00000000000FFC0
3FF00000000000FFC0
3FE000000000007FC0
7FE000000000007FE0
7FC000000000007FE0
7FC000000000003FE0
7FC000000000003FE0
FFC000000000003FE0
FF8000000000003FF0
FF8000000000001FF0
FF8000000000001FF0
FF8000000000001FF0
FF8000000000001FF0
FF8000000000001FF0
FF8000000000001FF0
FF8000000000001FF0
FF8000000000001FF0
FF8000000000001FF0
FF8000000000001FF0
FF8000000000001FF0
FF8000000000001FF0
FF8000000000001FF0
FF8000000000001FF0
FF8000000000003FF0
FFC000000000003FE0
7FC000000000003FE0
7FC000000000003FE0
7FC000000000007FE0
7FE000000000007FC0
3FE000000000007FC0
3FF00000000000FFC0
3FF00000000000FF80
1FF80000000001FF80
1FF80000000001FF80
0FFC0000000003FF00
0FFC0000000007FF00
07FE0000000007FE00
07FF000000000FFE00
03FF800000001FFC00
03FFC00000003FF800
01FFE0000000FFF800
00FFF8000001FFF000
007FFE000007FFE000
003FFF80001FFFC000
001FFFF801FFFF8000
000FFFFFFFFFFF0000
0007FFFFFFFFFE0000
0001FFFFFFFFF80000
0000FFFFFFFFF00000
00003FFFFFFFC00000
00000FFFFFFE000000
000001FFFFF8000000
0000001FFF00000000
ENDCHAR
STARTCHAR 00D3
ENCODING 211
SWIDTH 781 0
DWIDTH 76 0
BBX 68 93 4 -2
BITMAP
000000000FFE000000
000000000FFC000000
000000001FF8000000
000000003FF0000000
000000003FE0000000
000000007FC0000000
00000000FF80000000
00000000FF00000000
00000001FE00000000
00000003FC00000000
00000003F800000000
00000007F000000000
0000000FE000000000
0000000FC000000000
000000000000000000
000000000000000000
000000000000000000
000000000000000000
000000000000000000
0000000FFF00000000
000001FFFFF8000000
00000FFFFFFF000000
00003FFFFFFFC00000
0000FFFFFFFFF00000
0001FFFFFFFFF80000
0007FFFFFFFFFE0000
000FFFFFFFFFFF0000
001FFFF001FFFF8000
003FFF80001FFFC000
007FFE000007FFE000
00FFF8000001FFF000
01FFE0000000FFF800
01FFC00000003FF800
03FF800000001FFC00
07FF000000000FFE00
07FE0000000007FE00
0FFC0000000007FF00
0FFC0000000003FF00
1FF80000000001FF80
1FF80000000001FF80
3FF00000000000FFC0
3FF00000000000FFC0
3FE000000000007FC0
7FE000000000007FE0
7FC000000000007FE0
7FC000000000003FE0
7FC000000000003FE0
FFC000000000003FE0
FF8000000000003FF0
FF8000000000001FF0
FF8000000000001FF0
FF8000000000001FF0
FF8000000000001FF0
FF8000000000001FF0
FF8000000000001FF0
FF8000000000001FF0
FF8000000000001FF0
FF8000000000001FF0
FF8000000000001FF0
FF8000000000001FF0
FF8000000000001FF0
FF8000000000001FF0
FF8000000000001FF0
FF8000000000003FF0
FFC000000000003FE0
7FC000000000003FE0
7FC000000000003FE0
7FC000000000007FE0
7FE000000000007FC0
3FE000000000007FC0
3FF00000000000FFC0
3FF00000000000FF80
1FF80000000001FF80
1FF80000000001FF80
0FFC0000000003FF00
0FFC0000000007FF00
07FE0000000007FE00
07FF000000000FFE00
03FF800000001FFC00
03FFC00000003FF800
01FFE0000000FFF800
00FFF8000001FFF000
007FFE000007FFE000
003FFF80001FFFC000
001FFFF801FFFF8000
000FFFFFFFFFFF0000
0007FFFFFFFFFE0000
0001FFFFFFFFF80000
0000FFFFFFFFF00000
00003FFFFFFFC00000
00000FFFFFFE000000
000001FFFFF8000000
0000001FFF00000000
ENDCHAR
STARTCHAR 00D4
ENCODING 212
SWIDTH 781 0
DWIDTH 76 0
BBX 68 93 4 -2
BITMAP
00000007FE00000000
0000000FFF00000000
0000000FFF00000000
0000001FFF80000000
0000003FFFC0000000
0000003FBFC0000000
0000007F9FE0000000
000000FF0FF0000000
000000FE07F0000000
000001FC03F8000000
000003F801F8000000
000003F001FC000000
000007F000FE000000
00000FE0007E000000
000000000000000000
000000000000000000
000000000000000000
000000000000000000
000000000000000000
0000000FFF00000000
000001FFFFF8000000
00000FFFFFFF000000
00003FFFFFFFC00000
0000FFFFFFFFF00000
0001FFFFFFFFF80000
0007FFFFFFFFFE0000
000FFFFFFFFFFF0000
001FFFF001FFFF8000
003FFF80001FFFC000
007FFE000007FFE000
00FFF8000001FFF000
01FFE0000000FFF800
01FFC00000003FF800
03FF800000001FFC00
07FF000000000FFE00
07FE0000000007FE00
0FFC0000000007FF00
0FFC0000000003FF00
1FF80000000001FF80
1FF80000000001FF80
3FF00000000000FFC0
3FF00000000000FFC0
3FE000000000007FC0
7FE000000000007FE0
7FC000000000007FE0
7FC000000000003FE0
7FC000000000003FE0
FFC000000000003FE0
FF8000000000003FF0
FF8000000000001FF0
FF8000000000001FF0
FF8000000000001FF0
FF8000000000001FF0
FF8000000000001FF0
FF8000000000001FF0
FF8000000000001FF0
FF8000000000001FF0
FF8000000000001FF0
FF8000000000001FF0
FF8000000000001FF0
FF8000000000001FF0
FF8000000000001FF0
FF8000000000001FF0
FF8000000000003FF0
FFC000000000003FE0
7FC000000000003FE0
7FC000000000003FE0
7FC000000000007FE0
7FE000000000007FC0
3FE000000000007FC0
3FF00000000000FFC0
3FF00000000000FF80
1FF80000000001FF80
1FF80000000001FF80
0FFC0000000003FF00
0FFC0000000007FF00
07FE0000000007FE00
07FF000000000FFE00
03FF800000001FFC00
03FFC00000003FF800
01FFE0000000FFF800
00FFF8000001FFF000
007FFE000007FFE000
003FFF80001FFFC000
001FFFF801FFFF8000
000FFFFFFFFFFF0000
0007FFFFFFFFFE0000
0001FFFFFFFFF80000
0000FFFFFFFFF00000
00003FFFFFFFC00000
00000FFFFFFE000000
000001FFFFF8000000
0000001FFF00000000
ENDCHAR
STARTCHAR 00D5
ENCODING 213
SWIDTH 781 0
DWIDTH 76 0
BBX 68 91 4 -2
BITMAP
0000007E000F800000
000001FFC01F800000
000003FFF01F800000
000007FFFFFF800000
000007FFFFFF000000
00000FFFFFFF000000
00000FFFFFFE000000
00000FC0FFFE000000
00001F801FFC000000
00001F8003F0000000
000000000000000000
000000000000000000
000000000000000000
000000000000000000
000000000000000000
000000000000000000
000000000000000000
0000000FFF00000000
000001FFFFF8000000
00000FFFFFFF000000
00003FFFFFFFC00000
0000FFFFFFFFF00000
0001FFFFFFFFF80000
0007FFFFFFFFFE0000
000FFFFFFFFFFF0000
001FFFF001FFFF8000
003FFF80001FFFC000
007FFE000007FFE000
00FFF8000001FFF000
01FFE0000000FFF800
01FFC00000003FF800
03FF800000001FFC00
07FF000000000FFE00
07FE0000000007FE00
0FFC0000000007FF00
0FFC0000000003FF00
1FF80000000001FF80
1FF80000000001FF80
3FF00000000000FFC0
3FF00000000000FFC0
3FE000000000007FC0
7FE000000000007FE0
7FC000000000007FE0
7FC000000000003FE0
7FC000000000003FE0
FFC000000000003FE0
FF8000000000003FF0
FF8000000000001FF0
FF8000000000001FF0
FF8000000000001FF0
FF8000000000001FF0
FF8000000000001FF0
FF8000000000001FF0
FF8000000000001FF0
FF8000000000001FF0
FF8000000000001FF0
FF8000000000001FF0
FF8000000000001FF0
FF8000000000001FF0
FF8000000000001FF0
FF8000000000001FF0
FF8000000000003FF0
FFC000000000003FE0
7FC000000000003FE0
7FC000000000003FE0
7FC000000000007FE0
7FE000000000007FC0
3FE000000000007FC0
3FF00000000000FFC0
3FF00000000000FF80
1FF80000000001FF80
1FF80000000001FF80
0FFC0000000003FF00
0FFC0000000007FF00
07FE0000000007FE00
07FF000000000FFE00
03FF800000001FFC00
03FFC00000003FF800
01FFE0000000FFF800
00FFF8000001FFF000
007FFE000007FFE000
003FFF80001FFFC000
001FFFF801FFFF8000
000FFFFFFFFFFF0000
0007FFFFFFFFFE0000
0001FFFFFFFFF80000
0000FFFFFFFFF00000
00003FFFFFFFC00000
00000FFFFFFE000000
000001FFFFF8000000
0000001FFF00000000
ENDCHAR
STARTCHAR 00D6
ENCODING 214
SWIDTH 781 0
DWIDTH 76 0
BBX 68 91 4 -2
BITMAP
000007FE07FE000000
000007FE07FE000000
000007FE07FE000000
000007FE07FE000000
000007FE07FE000000
000007FE07FE000000
000007FE07FE000000
000007FE07FE000000
000007FE07FE000000
000007FE07FE000000
000000000000000000
000000000000000000
000000000000000000
000000000000000000
000000000000000000
000000000000000000
000000000000000000
0000000FFF00000000
000001FFFFF8000000
00000FFFFFFF000000
00003FFFFFFFC00000
0000FFFFFFFFF00000
0001FFFFFFFFF80000
0007FFFFFFFFFE0000
000FFFFFFFFFFF0000
001FFFF001FFFF8000
003FFF80001FFFC000
007FFE000007FFE000
00FFF8000001FFF000
01FFE0000000FFF800
01FFC00000003FF800
03FF800000001FFC00
07FF000000000FFE00
07FE0000000007FE00
0FFC0000000007FF00
0FFC0000000003FF00
1FF80000000001FF80
1FF80000000001FF80
3FF00000000000FFC0
3FF00000000000FFC0
3FE000000000007FC0
7FE000000000007FE0
7FC000000000007FE0
7FC000000000003FE0
7FC000000000003FE0
FFC000000000003FE0
FF8000000000003FF0
FF8000000000001FF0
FF8000000000001FF0
FF8000000000001FF0
FF8000000000001FF0
FF8000000000001FF0
FF8000000000001FF0
FF8000000000001FF0
FF8000000000001FF0
FF8000000000001FF0
FF8000000000001FF0
FF8000000000001FF0
FF8000000000001FF0
FF8000000000001FF0
FF8000000000001FF0
FF8000000000003FF0
FFC000000000003FE0
7FC000000000003FE0
7FC000000000003FE0
7FC000000000007FE0
7FE000000000007FC0
3FE000000000007FC0
3FF00000000000FFC0
3FF00000000000FF80
1FF80000000001FF80
1FF80000000001FF80
0FFC0000000003FF00
0FFC0000000007FF00
07FE0000000007FE00
07FF000000000FFE00
03FF800000001FFC00
03FFC00000003FF800
01FFE0000000FFF800
00FFF8000001FFF000
007FFE000007FFE000
003FFF80001FFFC000
001FFFF801FFFF8000
000FFFFFFFFFFF0000
0007FFFFFFFFFE0000
0001FFFFFFFFF80000
0000FFFFFFFFF00000
00003FFFFFFFC00000
00000FFFFFFE000000
000001FFFFF8000000
0000001FFF00000000
ENDCHAR
STARTCHAR 00D7
ENCODING 215
SWIDTH 586 0
DWIDTH 57 0
BBX 38 38 9 4
BITMAP
0C00000060
1E000000F0
3F000001F8
7F800003F8
FFC00007FC
7FE0000FF8
3FF0001FF0
1FF8003FE0
0FFC007FC0
07FE00FF80
03FF03FF00
01FF87FE00
00FFCFFC00
007FFFF800
003FFFF000
001FFFE000
000FFFC000
0007FF8000
0003FF0000
0003FF8000
0007FFC000
000FFFE000
001FFFF000
003FFFF800
007FCFFC00
00FF87FE00
01FF03FF00
03FE01FF80
07FC00FFC0
0FF8007FE0
1FF0003FF0
3FE0001FF8
7FC0000FFC
7F800007FC
3F000003F8
1E000001F0
0C000000E0
0000000040
ENDCHAR
STARTCHAR 00D8
ENCODING 216
SWIDTH 781 0
DWIDTH 76 0
BBX 69 75 3 -2
BITMAP
000000000000000040
0000000FFF800000F0
000000FFFFFC0001F8
000007FFFFFF0003F8
00001FFFFFFFE007F0
00007FFFFFFFF00FE0
0001FFFFFFFFFC1FC0
0003FFFFFFFFFE3F80
0007FFFFFFFFFFFF00
000FFFF800FFFFFE00
001FFFC0001FFFFE00
003FFE000003FFFC00
007FFC000000FFF800
00FFF00000007FF800
01FFE00000003FFC00
01FFC00000001FFE00
03FF800000003FFE00
07FF000000007FFF00
07FE00000000FFFF80
0FFC00000001FDFF80
0FFC00000003F9FF80
1FF800000007F0FFC0
1FF80000000FF07FC0
1FF00000000FE07FE0
3FF00000001FC07FE0
3FE00000003F803FE0
3FE00000007F003FE0
3FE0000000FE003FF0
7FE0000001FC001FF0
7FC0000003F8001FF0
7FC0000007F0001FF0
7FC000000FE0001FF0
7FC000001FC0001FF8
7FC000003F80000FF8
7FC000007F00000FF8
FFC000007F00000FF8
FF800000FE00000FF8
FF800001FC00000FF8
FF800003F800000FF8
FFC00007F000000FF8
FFC0000FE000000FF8
7FC0001FC000000FF8
7FC0003F8000000FF8
7FC0007F0000001FF8
7FC000FE0000001FF0
7FC001FC0000001FF0
7FC003F80000001FF0
7FE007F00000001FF0
3FE007F00000003FF0
3FE00FE00000003FE0
3FF01FC00000003FE0
3FF03F800000007FE0
1FF07F000000007FE0
1FF8FE000000007FC0
1FF9FC00000000FFC0
0FFFF800000000FF80
0FFFF000000001FF80
07FFE000000003FF80
07FFC000000007FF00
03FF8000000007FE00
01FFC00000000FFE00
01FFE00000003FFC00
00FFF00000007FF800
01FFFC000000FFF800
03FFFF000003FFF000
07FFFFC0000FFFE000
0FFFFFF800FFFFC000
1FC7FFFFFFFFFF8000
3F83FFFFFFFFFE0000
7F01FFFFFFFFFC0000
FE007FFFFFFFF00000
7C001FFFFFFFC00000
380007FFFFFF000000
180000FFFFF8000000
0000000FFF80000000
ENDCHAR
STARTCHAR 00D9
ENCODING 217
SWIDTH 720 0
DWIDTH 70 0
BBX 55 93 8 -2
BITMAP
0003FF80000000
0001FFC0000000
0000FFC0000000
00007FE0000000
00003FF0000000
00001FF0000000
00000FF8000000
000007FC000000
000003FC000000
000001FE000000
000000FF000000
0000007F000000
0000003F800000
0000001F800000
00000000000000
00000000000000
00000000000000
00000000000000
00000000000000
00000000000000
FF8000000003FE
FF8000000003FE
FF8000000003FE
FF8000000003FE
FF8000000003FE
FF8000000003FE
FF8000000003FE
FF8000000003FE
FF8000000003FE
FF8000000003FE
FF8000000003FE
FF8000000003FE
FF8000000003FE
FF8000000003FE
FF8000000003FE
FF8000000003FE
FF8000000003FE
FF8000000003FE
FF8000000003FE
FF8000000003FE
FF8000000003FE
FF8000000003FE
FF8000000003FE
FF8000000003FE
FF8000000003FE
FF8000000003FE
FF8000000003FE
FF8000000003FE
FF8000000003FE
FF8000000003FE
FF8000000003FE
FF8000000003FE
FF8000000003FE
FF8000000003FE
FF8000000003FE
FF8000000003FE
FF8000000003FE
FF8000000003FE
FF8000000003FE
FF8000000003FE
FF8000000003FE
FF8000000003FE
FF8000000003FE
FF8000000003FE
FF8000000003FE
FF8000000003FE
FF8000000003FE
FF8000000003FE
FF8000000003FE
FF8000000003FE
FF8000000003FE
FF8000000003FE
FFC000000007FE
7FC000000007FC
7FC000000007FC
7FC000000007FC
7FE00000000FFC
7FE00000000FF8
3FF00000001FF8
3FF80000003FF8
1FFC0000007FF0
1FFE000000FFF0
0FFF800001FFE0
07FFE00007FFC0
07FFFC007FFF80
03FFFFFFFFFF80
01FFFFFFFFFE00
007FFFFFFFFC00
003FFFFFFFF800
000FFFFFFFE000
0003FFFFFF8000
00007FFFFC0000
000007FFC00000
ENDCHAR
STARTCHAR 00DA
ENCODING 218
SWIDTH 720 0
DWIDTH 70 0
BBX 55 93 8 -2
BITMAP
00000007FF0000
0000000FFE0000
0000000FFC0000
0000001FF80000
0000003FF00000
0000003FE00000
0000007FC00000
000000FF800000
000000FF000000
000001FE000000
000001FC000000
000003F8000000
000007F0000000
000007E0000000
00000000000000
00000000000000
00000000000000
00000000000000
00000000000000
00000000000000
FF8000000003FE
FF8000000003FE
FF8000000003FE
FF8000000003FE
FF8000000003FE
FF8000000003FE
FF8000000003FE
FF8000000003FE
FF8000000003FE
FF8000000003FE
FF8000000003FE
FF8000000003FE
FF8000000003FE
FF8000000003FE
FF8000000003FE
FF8000000003FE
FF8000000003FE
FF8000000003FE
FF8000000003FE
FF8000000003FE
FF8000000003FE
FF8000000003FE
FF8000000003FE
FF8000000003FE
FF8000000003FE
FF8000000003FE
FF8000000003FE
FF8000000003FE
FF8000000003FE
FF8000000003FE
FF8000000003FE
FF8000000003FE
FF8000000003FE
FF8000000003FE
FF8000000003FE
FF8000000003FE
FF8000000003FE
FF8000000003FE
FF8000000003FE
FF8000000003FE
FF8000000003FE
FF8000000003FE
FF8000000003FE
FF8000000003FE
FF8000000003FE
FF8000000003FE
FF8000000003FE
FF8000000003FE
FF8000000003FE
FF8000000003FE
FF8000000003FE
FF8000000003FE
FFC000000007FE
7FC000000007FC
7FC000000007FC
7FC000000007FC
7FE00000000FFC
7FE00000000FF8
3FF00000001FF8
3FF80000003FF8
1FFC0000007FF0
1FFE000000FFF0
0FFF800001FFE0
07FFE00007FFC0
07FFFC007FFF80
03FFFFFFFFFF00
01FFFFFFFFFE00
007FFFFFFFFC00
003FFFFFFFF800
000FFFFFFFE000
0003FFFFFF8000
00007FFFFC0000
000007FFC00000
ENDCHAR
STARTCHAR 00DB
ENCODING 219
SWIDTH 720 0
DWIDTH 70 0
BBX 55 94 8 -2
BITMAP
000001FF000000
000003FF800000
000003FF800000
000007FFC00000
00000FFFE00000
00000FFFE00000
00001FEFF00000
00003FC7F80000
00003F83F80000
00007F01FC0000
00007F01FE0000
0000FE00FE0000
0001FC007F0000
0001F8003F0000
0003F0001F8000
00000000000000
00000000000000
00000000000000
00000000000000
00000000000000
00000000000000
FF8000000003FE
FF8000000003FE
FF8000000003FE
FF8000000003FE
FF8000000003FE
FF8000000003FE
FF8000000003FE
FF8000000003FE
FF8000000003FE
FF8000000003FE
FF8000000003FE
FF8000000003FE
FF8000000003FE
FF8000000003FE
FF8000000003FE
FF8000000003FE
FF8000000003FE
FF8000000003FE
FF8000000003FE
FF8000000003FE
FF8000000003FE
FF8000000003FE
FF8000000003FE
FF8000000003FE
FF8000000003FE
FF8000000003FE
FF8000000003FE
FF8000000003FE
FF8000000003FE
FF8000000003FE
FF8000000003FE
FF8000000003FE
FF8000000003FE
FF8000000003FE
FF8000000003FE
FF8000000003FE
FF8000000003FE
FF8000000003FE
FF8000000003FE
FF8000000003FE
FF8000000003FE
FF8000000003FE
FF8000000003FE
FF8000000003FE
FF8000000003FE
FF8000000003FE
FF8000000003FE
FF8000000003FE
FF8000000003FE
FF8000000003FE
FF8000000003FE
FF8000000003FE
FFC000000007FE
7FC000000007FC
7FC000000007FC
7FC000000007FC
7FE00000000FFC
7FE00000000FF8
3FF00000001FF8
3FF80000003FF8
1FFC0000007FF0
1FFE000000FFF0
0FFF800001FFE0
07FFE00007FFC0
07FFFC007FFF80
03FFFFFFFFFF80
01FFFFFFFFFE00
007FFFFFFFFC00
003FFFFFFFF800
000FFFFFFFE000
0003FFFFFF8000
00007FFFFC0000
000007FFC00000
ENDCHAR
STARTCHAR 00DC
ENCODING 220
SWIDTH 720 0
DWIDTH 70 0
BBX 55 91 8 -2
BITMAP
0001FF83FF0000
0001FF83FF0000
0001FF83FF0000
0001FF83FF0000
0001FF83FF0000
0001FF83FF0000
0001FF83FF0000
0001FF83FF0000
0001FF83FF0000
0001FF83FF0000
00000000000000
00000000000000
00000000000000
00000000000000
00000000000000
00000000000000
00000000000000
00000000000000
FF8000000003FE
FF8000000003FE
FF8000000003FE
FF8000000003FE
FF8000000003FE
FF8000000003FE
FF8000000003FE
FF8000000003FE
FF8000000003FE
FF8000000003FE
FF8000000003FE
FF8000000003FE
FF8000000003FE
FF8000000003FE
FF8000000003FE
FF8000000003FE
FF8000000003FE
FF8000000003FE
FF8000000003FE
FF8000000003FE
FF8000000003FE
FF8000000003FE
FF8000000003FE
FF8000000003FE
FF8000000003FE
FF8000000003FE
FF8000000003FE
FF8000000003FE
FF8000000003FE
FF8000000003FE
FF8000000003FE
FF8000000003FE
FF8000000003FE
FF8000000003FE
FF8000000003FE
FF8000000003FE
FF8000000003FE
FF8000000003FE
FF8000000003FE
FF8000000003FE
FF8000000003FE
FF8000000003FE
FF8000000003FE
FF8000000003FE
FF8000000003FE
FF8000000003FE
FF8000000003FE
FF8000000003FE
FF8000000003FE
FF8000000003FE
FF8000000003FE
FF8000000003FE
FFC000000007FE
7FC000000007FC
7FC000000007FC
7FC000000007FC
7FE00000000FFC
7FE00000000FF8
3FF00000001FF8
3FF80000003FF8
1FFC0000007FF0
1FFE000000FFF0
0FFF800001FFE0
07FFE00007FFC0
07FFFC007FFF80
03FFFFFFFFFF80
01FFFFFFFFFE00
007FFFFFFFFC00
003FFFFFFFF800
000FFFFFFFE000
0003FFFFFF8000
00007FFFFC0000
000007FFC00000
ENDCHAR
STARTCHAR 00DD
ENCODING 221
SWIDTH 668 0
DWIDTH 65 0
BBX 62 91 2 0
BITMAP
000000007FF00000
00000000FFE00000
00000000FFC00000
00000001FF800000
00000003FF000000
00000003FE000000
00000007F8000000
0000000FF0000000
0000000FE0000000
0000001FC0000000
0000003F80000000
0000003F00000000
0000007E00000000
000000FC00000000
0000000000000000
0000000000000000
0000000000000000
0000000000000000
0000000000000000
0000000000000000
FFE0000000001FFC
FFE0000000003FF8
7FF0000000003FF8
7FF8000000007FF0
3FF8000000007FE0
1FFC00000000FFE0
1FFC00000000FFC0
0FFE00000001FFC0
07FF00000003FF80
07FF00000003FF00
03FF80000007FF00
03FF80000007FE00
01FFC000000FFC00
00FFE000001FFC00
00FFE000001FF800
007FF000003FF800
003FF000003FF000
003FF800007FE000
001FFC00007FE000
000FFC0000FFC000
000FFE0001FFC000
0007FE0001FF8000
0007FF0003FF0000
0003FF8003FF0000
0001FF8007FE0000
0001FFC00FFC0000
0000FFC00FFC0000
00007FE01FF80000
00007FF01FF80000
00003FF03FF00000
00003FF83FE00000
00001FF87FE00000
00000FFCFFC00000
00000FFEFF800000
000007FFFF800000
000003FFFF000000
000003FFFF000000
000001FFFE000000
000000FFFC000000
000000FFFC000000
0000007FF8000000
0000007FF8000000
0000003FF0000000
0000003FF0000000
0000003FF0000000
0000003FF0000000
0000003FF0000000
0000003FF0000000
0000003FF0000000
0000003FF0000000
0000003FF0000000
0000003FF0000000
0000003FF0000000
0000003FF0000000
0000003FF0000000
0000003FF0000000
0000003FF0000000
0000003FF0000000
0000003FF0000000
0000003FF0000000
0000003FF0000000
0000003FF0000000
0000003FF0000000
0000003FF0000000
0000003FF0000000
0000003FF0000000
0000003FF0000000
0000003FF0000000
0000003FF0000000
0000003FF0000000
0000003FF0000000
ENDCHAR
STARTCHAR 00DE
ENCODING 222
SWIDTH 668 0
DWIDTH 65 0
BBX 51 71 9 0
BITMAP
FF800000000000
FF800000000000
FF800000000000
FF800000000000
FF800000000000
FF800000000000
FF800000000000
FF800000000000
FF800000000000
FF800000000000
FF800000000000
FF800000000000
FFFFFFFFE00000
FFFFFFFFFC0000
FFFFFFFFFF8000
FFFFFFFFFFE000
FFFFFFFFFFF000
FFFFFFFFFFF800
FFFFFFFFFFFC00
FFFFFFFFFFFE00
FF800000FFFF00
FF8000001FFF00
FF80000007FF80
FF80000003FF80
FF80000001FFC0
FF80000001FFC0
FF80000000FFC0
FF80000000FFC0
FF800000007FE0
FF800000007FE0
FF800000007FE0
FF800000007FE0
FF800000007FE0
FF800000007FE0
FF800000007FE0
FF800000007FE0
FF800000007FE0
FF80000000FFC0
FF80000000FFC0
FF80000001FFC0
FF80000001FFC0
FF80000003FF80
FF80000007FF80
FF8000001FFF00
FF800000FFFF00
FFFFFFFFFFFE00
FFFFFFFFFFFC00
FFFFFFFFFFF800
FFFFFFFFFFF000
FFFFFFFFFFE000
FFFFFFFFFF8000
FFFFFFFFFE0000
FFFFFFFFF00000
FF800000000000
FF800000000000
FF800000000000
FF800000000000
FF800000000000
FF800000000000
FF800000000000
FF800000000000
FF800000000000
FF800000000000
FF800000000000
FF800000000000
FF800000000000
FF800000000000
FF800000000000
FF800000000000
FF800000000000
FF800000000000
ENDCHAR
STARTCHAR 00DF
ENCODING 223
SWIDTH 606 0
DWIDTH 59 0
BBX 47 73 7 -2
BITMAP
00007FF00000
0007FFFF0000
003FFFFFC000
00FFFFFFF000
01FFFFFFF800
07FFFFFFFC00
0FFFFFFFFE00
1FFFFFFFFF00
3FFF001FFF80
3FF80003FFC0
7FF00001FFC0
7FE00000FFC0
7FC000007FE0
FF8000003FE0
FF8000003FE0
FF0000001FE0
FF0000001FF0
FF0000001FF0
FF0000001FF0
FF0000001FF0
FF0000001FE0
FF0000001FE0
FF0000003FE0
FF0000007FE0
FF0000007FC0
FF000000FF80
FF000003FF80
FF00000FFF00
FF00007FFC00
FF001FFFF800
FF001FFFE000
FF001FFF8000
FF001FFF8000
FF001FFFF000
FF001FFFFC00
FF001FFFFF00
FF001FFFFF80
FF00000FFFC0
FF000001FFE0
FF0000007FF0
FF0000001FF8
FF0000000FF8
FF0000000FFC
FF00000007FC
FF00000007FC
FF00000003FE
FF00000003FE
FF00000003FE
FF00000003FE
FF00000003FE
FF00000003FE
FF00000003FE
FF00000003FE
FF00000003FE
FF00000003FE
FF00000003FC
FF00000007FC
FF00000007FC
FF0000000FFC
FF0000001FF8
FF0000003FF8
FF0000007FF0
FF000000FFF0
FF000003FFE0
FF00001FFFC0
FF003FFFFFC0
FF003FFFFF80
FF003FFFFF00
FF003FFFFC00
FF003FFFF800
FF003FFFE000
00003FFF0000
00003FF80000
ENDCHAR
STARTCHAR 00E0
ENCODING 224
SWIDTH 555 0
DWIDTH 54 0
BBX 48 74 4 -2
BITMAP
003FF8000000
001FF8000000
000FFC000000
0007FE000000
0003FE000000
0001FF000000
0000FF000000
00007F800000
00003FC00000
00001FC00000
00000FE00000
000007F00000
000003F00000
000001F80000
000000F80000
000000000000
000000000000
000000000000
000000000000
000000000000
00007FF80000
0007FFFF8000
001FFFFFE000
007FFFFFF800
01FFFFFFFC00
03FFFFFFFE00
07FFFFFFFF00
07FFFFFFFF80
0FFF0007FF80
0FFC0001FF80
1FF80000FFC0
1FF000007FC0
1FF000007FC0
1FE000003FC0
3FE000003FC0
3FE000003FC0
000000003FC0
000000003FC0
000000003FC0
000000007FC0
00000000FFC0
00000001FFC0
0000003FFFC0
00001FFFFFC0
0007FFFFFFC0
007FFFFFFFC0
01FFFFFFFFC0
03FFFFFF3FC0
0FFFFFF83FC0
1FFFFC003FC0
1FFF80003FC0
3FFC00003FC0
7FF000003FC0
7FE000003FC0
7FC000003FC0
FF8000003FC0
FF8000003FC0
FF8000003FC0
FF8000007FC0
FF8000007FC0
FF800000FFC0
FF800000FFC0
FF800001FFC0
7FC00007FFC0
7FE0000FFFC0
7FF0003FFFE0
3FFE01FFFFF0
3FFFFFFFBFFF
1FFFFFFF3FFF
0FFFFFFC1FFF
07FFFFF81FFF
01FFFFE00FFF
007FFF8007FF
000FFC0001FC
ENDCHAR
STARTCHAR 00E1
ENCODING 225
SWIDTH 555 0
DWIDTH 54 0
BBX 48 74 4 -2
BITMAP
0000007FF000
0000007FE000
000000FFC000
000001FF8000
000001FF0000
000003FE0000
000007FC0000
000007F80000
00000FF00000
00001FE00000
00001FC00000
00003F800000
00003F000000
00007E000000
0000FC000000
000000000000
000000000000
000000000000
000000000000
000000000000
00007FF80000
0007FFFF8000
001FFFFFE000
007FFFFFF800
01FFFFFFFC00
03FFFFFFFE00
07FFFFFFFF00
07FFFFFFFF80
0FFF0007FF80
0FFC0001FF80
1FF80000FFC0
1FF000007FC0
1FF000007FC0
1FE000003FC0
3FE000003FC0
3FE000003FC0
000000003FC0
000000003FC0
000000003FC0
000000007FC0
00000000FFC0
00000001FFC0
0000003FFFC0
00001FFFFFC0
0007FFFFFFC0
007FFFFFFFC0
01FFFFFFFFC0
03FFFFFF3FC0
0FFFFFF83FC0
1FFFFC003FC0
1FFF80003FC0
3FFC00003FC0
7FF000003FC0
7FE000003FC0
7FC000003FC0
FF8000003FC0
FF8000003FC0
FF8000003FC0
FF8000007FC0
FF8000007FC0
FF800000FFC0
FF800000FFC0
FF800001FFC0
7FC00007FFC0
7FE0000FFFC0
7FF0003FFFE0
3FFE01FFFFF0
3FFFFFFFBFFF
1FFFFFFF3FFF
0FFFFFFC1FFF
07FFFFF81FFF
01FFFFE00FFF
007FFF8007FF
000FFC0001FC
ENDCHAR
STARTCHAR 00E2
ENCODING 226
SWIDTH 555 0
DWIDTH 54 0
BBX 48 74 4 -2
BITMAP
00003FF00000
00007FF00000
00007FF80000
0000FFFC0000
0001FFFC0000
0001FFFE0000
0003FCFE0000
0007F8FF0000
0007F07F8000
000FE03F8000
000FE01FC000
001FC00FE000
003F8007E000
003F0007F000
007E0003F800
000000000000
000000000000
000000000000
000000000000
000000000000
00007FF80000
0007FFFF8000
001FFFFFE000
007FFFFFF800
01FFFFFFFC00
03FFFFFFFE00
07FFFFFFFF00
07FFFFFFFF80
0FFF0007FF80
0FFC0001FF80
1FF80000FFC0
1FF000007FC0
1FF000007FC0
1FE000003FC0
3FE000003FC0
3FE000003FC0
000000003FC0
000000003FC0
000000003FC0
000000007FC0
00000000FFC0
00000001FFC0
0000003FFFC0
00001FFFFFC0
0007FFFFFFC0
007FFFFFFFC0
01FFFFFFFFC0
03FFFFFF3FC0
0FFFFFF83FC0
1FFFFC003FC0
1FFF80003FC0
3FFC00003FC0
7FF000003FC0
7FE000003FC0
7FC000003FC0
FF8000003FC0
FF8000003FC0
FF8000003FC0
FF8000007FC0
FF8000007FC0
FF800000FFC0
FF800000FFC0
FF800001FFC0
7FC00007FFC0
7FE0000FFFC0
7FF0003FFFE0
3FFE01FFFFF0
3FFFFFFFBFFF
1FFFFFFF3FFF
0FFFFFFC1FFF
07FFFFF81FFF
01FFFFE00FFF
007FFF8007FF
000FFC0001FC
ENDCHAR
STARTCHAR 00E3
ENCODING 227
SWIDTH 555 0
DWIDTH 54 0
BBX 48 72 4 -2
BITMAP
0007E000FC00
000FFC00FC00
001FFF81FC00
003FFFFFF800
007FFFFFF800
007FFFFFF000
00FFFFFFF000
00FC0FFFE000
00FC01FFC000
00F8003F0000
000000000000
000000000000
000000000000
000000000000
000000000000
000000000000
000000000000
000000000000
00007FF80000
0007FFFF8000
001FFFFFE000
007FFFFFF800
01FFFFFFFC00
03FFFFFFFE00
07FFFFFFFF00
07FFFFFFFF80
0FFF0007FF80
0FFC0001FF80
1FF80000FFC0
1FF000007FC0
1FF000007FC0
1FE000003FC0
3FE000003FC0
3FE000003FC0
000000003FC0
000000003FC0
000000003FC0
000000007FC0
00000000FFC0
00000001FFC0
0000003FFFC0
00001FFFFFC0
0007FFFFFFC0
007FFFFFFFC0
01FFFFFFFFC0
03FFFFFF3FC0
0FFFFFF83FC0
1FFFFC003FC0
1FFF80003FC0
3FFC00003FC0
7FF000003FC0
7FE000003FC0
7FC000003FC0
FF8000003FC0
FF8000003FC0
FF8000003FC0
FF8000007FC0
FF8000007FC0
FF800000FFC0
FF800000FFC0
FF800001FFC0
7FC00007FFC0
7FE0000FFFC0
7FF0003FFFE0
3FFE01FFFFF0
3FFFFFFFBFFF
1FFFFFFF3FFF
0FFFFFFC1FFF
07FFFFF81FFF
01FFFFE00FFF
007FFF8007FF
000FFC0001FC
ENDCHAR
STARTCHAR 00E4
ENCODING 228
SWIDTH 555 0
DWIDTH 54 0
BBX 48 72 4 -2
BITMAP
003FF07FE000
003FF07FE000
003FF07FE000
003FF07FE000
003FF07FE000
003FF07FE000
003FF07FE000
003FF07FE000
003FF07FE000
003FF07FE000
000000000000
000000000000
000000000000
000000000000
000000000000
000000000000
000000000000
000000000000
00007FF80000
0007FFFF8000
001FFFFFE000
007FFFFFF800
01FFFFFFFC00
03FFFFFFFE00
07FFFFFFFF00
07FFFFFFFF80
0FFF0007FF80
0FFC0001FF80
1FF80000FFC0
1FF000007FC0
1FF000007FC0
1FE000003FC0
3FE000003FC0
3FE000003FC0
000000003FC0
000000003FC0
000000003FC0
000000007FC0
00000000FFC0
00000001FFC0
0000003FFFC0
00001FFFFFC0
0007FFFFFFC0
007FFFFFFFC0
01FFFFFFFFC0
03FFFFFF3FC0
0FFFFFF83FC0
1FFFFC003FC0
1FFF80003FC0
3FFC00003FC0
7FF000003FC0
7FE000003FC0
7FC000003FC0
FF8000003FC0
FF8000003FC0
FF8000003FC0
FF8000007FC0
FF8000007FC0
FF800000FFC0
FF800000FFC0
FF800001FFC0
7FC00007FFC0
7FE0000FFFC0
7FF0003FFFE0
3FFE01FFFFF0
3FFFFFFFBFFF
1FFFFFFF3FFF
0FFFFFFC1FFF
07FFFFF81FFF
01FFFFE00FFF
007FFF8007FF
000FFC0001FC
ENDCHAR
STARTCHAR 00E5
ENCODING 229
SWIDTH 555 0
DWIDTH 54 0
BBX 48 75 4 -2
BITMAP
00000FC00000
00003FF00000
00007FF80000
0000FFFC0000
0001FCFC0000
0001F03E0000
0003E03E0000
0003E01E0000
0003C01E0000
0003E01E0000
0003E01E0000
0001F03E0000
0001FCFC0000
0000FFFC0000
00007FF80000
00003FF00000
00000FC00000
000000000000
000000000000
000000000000
000000000000
00007FF80000
0007FFFF8000
001FFFFFE000
007FFFFFF800
01FFFFFFFC00
03FFFFFFFE00
07FFFFFFFF00
07FFFFFFFF80
0FFF0007FF80
0FFC0001FF80
1FF80000FFC0
1FF000007FC0
1FF000007FC0
1FE000003FC0
3FE000003FC0
3FE000003FC0
000000003FC0
000000003FC0
000000003FC0
000000007FC0
00000000FFC0
00000001FFC0
0000003FFFC0
00001FFFFFC0
0007FFFFFFC0
007FFFFFFFC0
01FFFFFFFFC0
03FFFFFF3FC0
0FFFFFF83FC0
1FFFFC003FC0
1FFF80003FC0
3FFC00003FC0
7FF000003FC0
7FE000003FC0
7FC000003FC0
FF8000003FC0
FF8000003FC0
FF8000003FC0
FF8000007FC0
FF8000007FC0
FF800000FFC0
FF800000FFC0
FF800001FFC0
7FC00007FFC0
7FE0000FFFC0
7FF0003FFFE0
3FFE01FFFFF0
3FFFFFFFBFFF
1FFFFFFF3FFF
0FFFFFFC1FFF
07FFFFF81FFF
01FFFFE00FFF
007FFF8007FF
000FFC0001FC
ENDCHAR
STARTCHAR 00E6
ENCODING 230
SWIDTH 884 0
DWIDTH 86 0
BBX 79 54 3 -2
BITMAP
00007FF800000FFC0000
0007FFFF0000FFFF8000
001FFFFFC003FFFFE000
007FFFFFF00FFFFFF800
00FFFFFFF81FFFFFFE00
03FFFFFFFC3FFFFFFF00
03FFFFFFFE7FFFFFFF80
07FFFFFFFFFFFFFFFFC0
0FFF0007FFFFE003FFC0
0FFC0001FFFF8000FFE0
1FF80000FFFF00007FF0
1FF000007FFE00003FF0
1FF000003FFC00001FF8
1FE000003FF800000FF8
1FE000003FF000000FFC
1FE000003FF0000007FC
1FE000003FE0000007FC
000000003FE0000003FC
000000003FE0000003FE
000000003FC0000003FE
000000007FC0000003FE
00000000FFC0000003FE
00000007FFC0000003FE
00000FFFFFFFFFFFFFFE
0003FFFFFFFFFFFFFFFE
003FFFFFFFFFFFFFFFFE
00FFFFFFFFFFFFFFFFFE
03FFFFFFBFFFFFFFFFFE
07FFFFFC3FFFFFFFFFFE
0FFFFF803FFFFFFFFFFE
1FFFC0003FC000000000
3FFE00003FC000000000
3FF000003FC000000000
7FE000003FC000000000
7FC000003FC000000000
7F8000003FC000000000
7F8000003FE00000003C
FF8000003FE0000003FC
FF8000003FE0000007FC
FF8000007FF0000007F8
FF800000FFF800000FF8
FF800001FFF800001FF8
7FC00003FFFC00001FF0
7FC00007FBFF00003FF0
7FE0000FF3FF8000FFE0
3FF0003FE1FFE003FFC0
3FFE03FFC0FFFF7FFFC0
1FFFFFFF80FFFFFFFF80
1FFFFFFF007FFFFFFF00
0FFFFFFE003FFFFFFE00
07FFFFF8000FFFFFF800
01FFFFE00003FFFFE000
007FFF800000FFFF8000
000FF80000001FFC0000
ENDCHAR
STARTCHAR 00E7
ENCODING 231
SWIDTH 504 0
DWIDTH 49 0
BBX 43 73 3 -21
BITMAP
00003FF00000
0003FFFE0000
000FFFFF8000
001FFFFFE000
007FFFFFF000
00FFFFFFFC00
01FFFFFFFE00
03FFFFFFFE00
07FF800FFF00
07FF0003FF80
0FFC0001FF80
0FF80000FF80
1FF000007FC0
1FF000007FC0
3FE000003FC0
3FE000003FC0
3FC000003FE0
7FC000003FE0
7FC000001FE0
7F8000000000
7F8000000000
FF8000000000
FF8000000000
FF8000000000
FF8000000000
FF8000000000
FF8000000000
FF0000000000
FF8000000000
FF8000000000
FF8000000000
FF8000000000
FF8000000000
FF8000000000
7F8000000000
7F8000001FE0
7FC000001FE0
7FC000001FE0
3FC000003FE0
3FE000003FE0
3FE000003FC0
1FF000007FC0
1FF80000FFC0
0FFC0000FF80
0FFE0001FF80
07FF0007FF00
03FFE01FFE00
03FFFFFFFE00
01FFFFFFFC00
00FFFFFFF800
003FFFFFF000
001FFFFFC000
0007FFFF0000
0000FFF80000
00001E000000
00003C000000
00003C000000
000079800000
00007FF80000
00007FFC0000
0000FFFE0000
000043FE0000
000000FF0000
000000FF0000
000000FF0000
000000FF0000
006000FE0000
007801FE0000
00FF03FE0000
00FFFFFC0000
007FFFF80000
000FFFE00000
0001FF000000
ENDCHAR
STARTCHAR 00E8
ENCODING 232
SWIDTH 555 0
DWIDTH 54 0
BBX 46 74 4 -2
BITMAP
003FF8000000
001FF8000000
000FFC000000
0007FE000000
0003FE000000
0001FF000000
0000FF800000
00007F800000
00003FC00000
00001FC00000
00000FE00000
000007F00000
000003F00000
000001F80000
000000FC0000
000000000000
000000000000
000000000000
000000000000
000000000000
00003FF00000
0001FFFF0000
0007FFFFC000
001FFFFFF000
007FFFFFF800
00FFFFFFFC00
01FFFFFFFE00
03FFFFFFFF00
07FFC00FFF80
07FF0003FFC0
0FFC0000FFC0
0FF800007FE0
1FF000003FE0
1FF000003FF0
3FE000001FF0
3FC000000FF8
7FC000000FF8
7FC000000FF8
7F80000007F8
7F80000007F8
7F80000007FC
FF80000007FC
FF80000007FC
FFFFFFFFFFFC
FFFFFFFFFFFC
FFFFFFFFFFFC
FFFFFFFFFFFC
FFFFFFFFFFFC
FFFFFFFFFFFC
FFFFFFFFFFFC
FF0000000000
FF0000000000
FF8000000000
FF8000000000
FF8000000000
7F8000000000
7F8000000000
7FC000000FF8
7FC000000FF0
3FE000001FF0
3FE000001FF0
1FF000003FE0
1FF800007FE0
0FFC0000FFC0
0FFF0001FFC0
07FFC007FF80
03FFFEFFFF00
01FFFFFFFF00
00FFFFFFFC00
007FFFFFF800
003FFFFFF000
000FFFFFC000
0003FFFF0000
00003FF00000
ENDCHAR
STARTCHAR 00E9
ENCODING 233
SWIDTH 555 0
DWIDTH 54 0
BBX 46 74 4 -2
BITMAP
0000003FF000
0000007FE000
000000FFC000
000000FF8000
000001FF0000
000003FF0000
000003FE0000
000007FC0000
000007F80000
00000FF00000
00001FE00000
00001FC00000
00003F800000
00007F000000
00007E000000
000000000000
000000000000
000000000000
000000000000
000000000000
00003FF00000
0001FFFF0000
0007FFFFC000
001FFFFFF000
007FFFFFF800
00FFFFFFFC00
01FFFFFFFE00
03FFFFFFFF00
07FFC00FFF80
07FF0003FFC0
0FFC0000FFC0
0FF800007FE0
1FF000003FE0
1FF000003FF0
3FE000001FF0
3FC000000FF8
7FC000000FF8
7FC000000FF8
7F80000007F8
7F80000007F8
7F80000007FC
FF80000007FC
FF80000007FC
FFFFFFFFFFFC
FFFFFFFFFFFC
FFFFFFFFFFFC
FFFFFFFFFFFC
FFFFFFFFFFFC
FFFFFFFFFFFC
FFFFFFFFFFFC
FF0000000000
FF0000000000
FF8000000000
FF8000000000
FF8000000000
7F8000000000
7F8000000000
7FC000000FF8
7FC000000FF0
3FE000001FF0
3FE000001FF0
1FF000003FE0
1FF800007FE0
0FFC0000FFC0
0FFF0001FFC0
07FFC007FF80
03FFFEFFFF00
01FFFFFFFF00
00FFFFFFFC00
007FFFFFF800
003FFFFFF000
000FFFFFC000
0003FFFF0000
00003FF00000
ENDCHAR
STARTCHAR 00EA
ENCODING 234
SWIDTH 555 0
DWIDTH 54 0
BBX 46 74 4 -2
BITMAP
00001FF80000
00003FF80000
00003FFC0000
00007FFE0000
0000FFFE0000
0000FFFF0000
0001FE7F8000
0001FC3F8000
0003F83FC000
0007F01FC000
0007F00FE000
000FE007F000
001FC003F000
001F8001F800
003F0001FC00
000000000000
000000000000
000000000000
000000000000
000000000000
00003FF00000
0001FFFF0000
0007FFFFC000
001FFFFFF000
007FFFFFF800
00FFFFFFFC00
01FFFFFFFE00
03FFFFFFFF00
07FFC00FFF80
07FF0003FFC0
0FFC0000FFC0
0FF800007FE0
1FF000003FE0
1FF000003FF0
3FE000001FF0
3FC000000FF8
7FC000000FF8
7FC000000FF8
7F80000007F8
7F80000007F8
7F80000007FC
FF80000007FC
FF80000007FC
FFFFFFFFFFFC
FFFFFFFFFFFC
FFFFFFFFFFFC
FFFFFFFFFFFC
FFFFFFFFFFFC
FFFFFFFFFFFC
FFFFFFFFFFFC
FF0000000000
FF0000000000
FF8000000000
FF8000000000
FF8000000000
7F8000000000
7F8000000000
7FC000000FF8
7FC000000FF0
3FE000001FF0
3FE000001FF0
1FF000003FE0
1FF800007FE0
0FFC0000FFC0
0FFF0001FFC0
07FFC007FF80
03FFFEFFFF00
01FFFFFFFF00
00FFFFFFFC00
007FFFFFF800
003FFFFFF000
000FFFFFC000
0003FFFF0000
00003FF00000
ENDCHAR
STARTCHAR 00EB
ENCODING 235
SWIDTH 555 0
DWIDTH 54 0
BBX 46 72 4 -2
BITMAP
001FF81FF800
001FF81FF800
001FF81FF800
001FF81FF800
001FF81FF800
001FF81FF800
001FF81FF800
001FF81FF800
001FF81FF800
001FF81FF800
000000000000
000000000000
000000000000
000000000000
000000000000
000000000000
000000000000
000000000000
00003FF00000
0001FFFF0000
0007FFFFC000
001FFFFFF000
007FFFFFF800
00FFFFFFFC00
01FFFFFFFE00
03FFFFFFFF00
07FFC00FFF80
07FF0003FFC0
0FFC0000FFC0
0FF800007FE0
1FF000003FE0
1FF000003FF0
3FE000001FF0
3FC000000FF8
7FC000000FF8
7FC000000FF8
7F80000007F8
7F80000007F8
7F80000007FC
FF80000007FC
FF80000007FC
FFFFFFFFFFFC
FFFFFFFFFFFC
FFFFFFFFFFFC
FFFFFFFFFFFC
FFFFFFFFFFFC
FFFFFFFFFFFC
FFFFFFFFFFFC
FF0000000000
FF0000000000
FF8000000000
FF8000000000
FF8000000000
7F8000000000
7F8000000000
7FC000000FF8
7FC000000FF0
3FE000001FF0
3FE000001FF0
1FF000003FE0
1FF800007FE0
0FFC0000FFC0
0FFF0001FFC0
07FFC007FF80
03FFFEFFFF00
01FFFFFFFF00
00FFFFFFFC00
007FFFFFF800
003FFFFFF000
000FFFFFC000
0003FFFF0000
00003FF00000
ENDCHAR
STARTCHAR 00EC
ENCODING 236
SWIDTH 277 0
DWIDTH 27 0
BBX 19 72 0 0
BITMAP
FFE000
7FE000
3FF000
1FF800
0FF800
07FC00
03FE00
01FE00
00FF00
007F80
003F80
001FC0
000FE0
0007E0
000000
000000
000000
000000
000000
000000
000000
007F80
007F80
007F80
007F80
007F80
007F80
007F80
007F80
007F80
007F80
007F80
007F80
007F80
007F80
007F80
007F80
007F80
007F80
007F80
007F80
007F80
007F80
007F80
007F80
007F80
007F80
007F80
007F80
007F80
007F80
007F80
007F80
007F80
007F80
007F80
007F80
007F80
007F80
007F80
007F80
007F80
007F80
007F80
007F80
007F80
007F80
007F80
007F80
007F80
007F80
007F80
ENDCHAR
STARTCHAR 00ED
ENCODING 237
SWIDTH 277 0
DWIDTH 27 0
BBX 19 72 7 0
BITMAP
00FFE0
00FFC0
01FF80
03FF00
03FE00
07FC00
0FF800
0FF000
1FE000
3FC000
3F8000
7F0000
7E0000
FC0000
000000
000000
000000
000000
000000
000000
000000
3FC000
3FC000
3FC000
3FC000
3FC000
3FC000
3FC000
3FC000
3FC000
3FC000
3FC000
3FC000
3FC000
3FC000
3FC000
3FC000
3FC000
3FC000
3FC000
3FC000
3FC000
3FC000
3FC000
3FC000
3FC000
3FC000
3FC000
3FC000
3FC000
3FC000
3FC000
3FC000
3FC000
3FC000
3FC000
3FC000
3FC000
3FC000
3FC000
3FC000
3FC000
3FC000
3FC000
3FC000
3FC000
3FC000
3FC000
3FC000
3FC000
3FC000
3FC000
ENDCHAR
STARTCHAR 00EE
ENCODING 238
SWIDTH 277 0
DWIDTH 27 0
BBX 28 72 -1 0
BITMAP
007FE000
007FF000
00FFF800
01FFF800
01FFFC00
03FFFC00
07F9FE00
07F0FF00
0FF07F00
0FE03F80
1FC01FC0
3F800FC0
3F000FE0
7E0007F0
FE0003F0
00000000
00000000
00000000
00000000
00000000
00000000
003FC000
003FC000
003FC000
003FC000
003FC000
003FC000
003FC000
003FC000
003FC000
003FC000
003FC000
003FC000
003FC000
003FC000
003FC000
003FC000
003FC000
003FC000
003FC000
003FC000
003FC000
003FC000
003FC000
003FC000
003FC000
003FC000
003FC000
003FC000
003FC000
003FC000
003FC000
003FC000
003FC000
003FC000
003FC000
003FC000
003FC000
003FC000
003FC000
003FC000
003FC000
003FC000
003FC000
003FC000
003FC000
003FC000
003FC000
003FC000
003FC000
003FC000
003FC000
ENDCHAR
STARTCHAR 00EF
ENCODING 239
SWIDTH 277 0
DWIDTH 27 0
BBX 26 69 0 0
BITMAP
FFC0FFC0
FFC0FFC0
FFC0FFC0
FFC0FFC0
FFC0FFC0
FFC0FFC0
FFC0FFC0
FFC0FFC0
FFC0FFC0
FFC0FFC0
00000000
00000000
00000000
00000000
00000000
00000000
00000000
00000000
007F8000
007F8000
007F8000
007F8000
007F8000
007F8000
007F8000
007F8000
007F8000
007F8000
007F8000
007F8000
007F8000
007F8000
007F8000
007F8000
007F8000
007F8000
007F8000
007F8000
007F8000
007F8000
007F8000
007F8000
007F8000
007F8000
007F8000
007F8000
007F8000
007F8000
007F8000
007F8000
007F8000
007F8000
007F8000
007F8000
007F8000
007F8000
007F8000
007F8000
007F8000
007F8000
007F8000
007F8000
007F8000
007F8000
007F8000
007F8000
007F8000
007F8000
007F8000
ENDCHAR
STARTCHAR 00F0
ENCODING 240
SWIDTH 555 0
DWIDTH 54 0
BBX 47 74 3 -2
BITMAP
006000000000
00F800000000
01FE00060000
03FF803F0000
03FFC0FF8000
00FFF3FFC000
007FFFFE0000
001FFFF80000
000FFFE00000
0007FFC00000
001FFFE00000
007FFFF00000
01FFFFF80000
03FF1FFE0000
01FC0FFF0000
01F003FF8000
00C001FFC000
000000FFE000
0000007FF000
0000003FF000
00007F9FF800
0003FFFFFC00
000FFFFFFE00
003FFFFFFE00
007FFFFFFF00
00FFFFFFFF80
01FFFFFFFF80
03FFFC7FFFC0
07FFC007FFC0
07FF0001FFE0
0FFE0000FFE0
0FFC00007FF0
1FF800003FF0
1FF000001FF8
3FF000001FF8
3FE000000FF8
3FE000000FF8
7FC0000007FC
7FC0000007FC
7FC0000007FC
7FC0000007FC
7F80000003FC
7F80000003FC
7F80000003FC
7F80000003FE
7F80000003FE
FF80000003FE
7F80000003FE
7F80000003FE
7F80000003FE
7F80000003FC
7F80000003FC
7F80000003FC
7FC0000003FC
7FC0000007FC
7FC0000007FC
3FC0000007FC
3FE000000FF8
3FE000000FF8
3FF000001FF8
1FF000001FF0
1FF800003FF0
0FFC00007FE0
0FFE0000FFE0
07FF0001FFC0
07FFC007FFC0
03FFFEFFFF80
01FFFFFFFF00
00FFFFFFFE00
007FFFFFFC00
001FFFFFF800
000FFFFFE000
0001FFFF8000
00003FF80000
ENDCHAR
STARTCHAR 00F1
ENCODING 241
SWIDTH 555 0
DWIDTH 54 0
BBX 40 70 7 0
BITMAP
001F8003E0
007FE007E0
00FFFC0FE0
01FFFFFFE0
01FFFFFFC0
03FFFFFFC0
03FFFFFF80
07F03FFF80
07E00FFE00
07E001FC00
0000000000
0000000000
0000000000
0000000000
0000000000
0000000000
0000000000
0000000000
00003FF800
FE01FFFF00
FE03FFFFC0
FE0FFFFFF0
FE1FFFFFF8
FE3FFFFFFC
FE3FFFFFFC
FE7FC07FFE
FEFF000FFE
FFFC0007FF
FFF80003FF
FFF00001FF
FFE00001FF
FFE00000FF
FFC00000FF
FFC00000FF
FF800000FF
FF800000FF
FF800000FF
FF000000FF
FF000000FF
FF000000FF
FF000000FF
FF000000FF
FF000000FF
FF000000FF
FF000000FF
FF000000FF
FF000000FF
FF000000FF
FF000000FF
FF000000FF
FF000000FF
FF000000FF
FF000000FF
FF000000FF
FF000000FF
FF000000FF
FF000000FF
FF000000FF
FF000000FF
FF000000FF
FF000000FF
FF000000FF
FF000000FF
FF000000FF
FF000000FF
FF000000FF
FF000000FF
FF000000FF
FF000000FF
FF000000FF
ENDCHAR
STARTCHAR 00F2
ENCODING 242
SWIDTH 555 0
DWIDTH 54 0
BBX 46 74 4 -2
BITMAP
007FF0000000
003FF8000000
001FF8000000
000FFC000000
0007FE000000
0003FE000000
0001FF000000
0000FF800000
00007F800000
00003FC00000
00001FC00000
00000FE00000
000007F00000
000003F00000
000001F80000
000000000000
000000000000
000000000000
000000000000
000000000000
00007FF00000
0003FFFF0000
000FFFFFC000
003FFFFFF000
00FFFFFFF800
01FFFFFFFC00
03FFFFFFFE00
07FFFFFFFF00
07FF800FFF80
0FFE0003FF80
1FFC0001FFC0
1FF80000FFC0
3FF000007FE0
3FE000003FE0
7FE000003FF0
7FC000001FF0
7FC000001FF0
7F8000000FF8
FF8000000FF8
FF8000000FF8
FF8000000FF8
FF00000007F8
FF00000007F8
FF00000007F8
FF00000007FC
FF00000007FC
FF00000007FC
FF00000007FC
FF00000007FC
FF00000007FC
FF00000007F8
FF00000007F8
FF00000007F8
FF80000007F8
FF8000000FF8
FF8000000FF8
7F8000000FF8
7FC000001FF0
7FC000001FF0
7FE000003FF0
3FE000003FE0
3FF000007FE0
1FF80000FFC0
1FFC0001FFC0
0FFE0003FF80
07FF800FFF80
07FFFDFFFF00
03FFFFFFFE00
01FFFFFFFC00
00FFFFFFF800
003FFFFFE000
001FFFFFC000
0003FFFE0000
00007FF00000
ENDCHAR
STARTCHAR 00F3
ENCODING 243
SWIDTH 555 0
DWIDTH 54 0
BBX 46 74 4 -2
BITMAP
0000007FE000
000000FFC000
000001FF8000
000001FF8000
000003FF0000
000007FE0000
000007FC0000
00000FF80000
00000FF00000
00001FE00000
00003FC00000
00003F800000
00007F000000
0000FE000000
0000FC000000
000000000000
000000000000
000000000000
000000000000
000000000000
00007FF00000
0003FFFF0000
000FFFFFC000
003FFFFFF000
00FFFFFFF800
01FFFFFFFC00
03FFFFFFFE00
07FFFFFFFF00
07FF800FFF80
0FFE0003FF80
1FFC0001FFC0
1FF80000FFC0
3FF000007FE0
3FE000003FE0
7FE000003FF0
7FC000001FF0
7FC000001FF0
7F8000000FF8
FF8000000FF8
FF8000000FF8
FF8000000FF8
FF00000007F8
FF00000007F8
FF00000007F8
FF00000007FC
FF00000007FC
FF00000007FC
FF00000007FC
FF00000007FC
FF00000007FC
FF00000007F8
FF00000007F8
FF00000007F8
FF80000007F8
FF8000000FF8
FF8000000FF8
7F8000000FF8
7FC000001FF0
7FC000001FF0
7FE000003FF0
3FE000003FE0
3FF000007FE0
1FF80000FFC0
1FFC0001FFC0
0FFE0003FF80
07FF800FFF80
07FFFDFFFF00
03FFFFFFFE00
01FFFFFFFC00
00FFFFFFF800
003FFFFFE000
001FFFFFC000
0003FFFE0000
00007FF00000
ENDCHAR
STARTCHAR 00F4
ENCODING 244
SWIDTH 555 0
DWIDTH 54 0
BBX 46 74 4 -2
BITMAP
00003FE00000
00007FF00000
0000FFF80000
0000FFF80000
0001FFFC0000
0001FDFE0000
0003FDFE0000
0007F8FF0000
0007F07F8000
000FE03F8000
001FC01FC000
001FC00FC000
003F800FE000
007F0007F000
007E0003F000
000000000000
000000000000
000000000000
000000000000
000000000000
00007FF00000
0003FFFF0000
000FFFFFC000
003FFFFFF000
00FFFFFFF800
01FFFFFFFC00
03FFFFFFFE00
07FFFFFFFF00
07FF800FFF80
0FFE0003FF80
1FFC0001FFC0
1FF80000FFC0
3FF000007FE0
3FE000003FE0
7FE000003FF0
7FC000001FF0
7FC000001FF0
7F8000000FF8
FF8000000FF8
FF8000000FF8
FF8000000FF8
FF00000007F8
FF00000007F8
FF00000007F8
FF00000007FC
FF00000007FC
FF00000007FC
FF00000007FC
FF00000007FC
FF00000007FC
FF00000007F8
FF00000007F8
FF00000007F8
FF80000007F8
FF8000000FF8
FF8000000FF8
7F8000000FF8
7FC000001FF0
7FC000001FF0
7FE000003FF0
3FE000003FE0
3FF000007FE0
1FF80000FFC0
1FFC0001FFC0
0FFE0003FF80
07FF800FFF80
07FFFDFFFF00
03FFFFFFFE00
01FFFFFFFC00
00FFFFFFF800
003FFFFFE000
001FFFFFC000
0003FFFE0000
00007FF00000
ENDCHAR
STARTCHAR 00F5
ENCODING 245
SWIDTH 555 0
DWIDTH 54 0
BBX 46 72 4 -2
BITMAP
0007E000FC00
000FFC00FC00
001FFF81FC00
003FFFFFF800
007FFFFFF800
007FFFFFF800
00FFFFFFF000
00FC0FFFE000
00FC01FFC000
00F8003F0000
000000000000
000000000000
000000000000
000000000000
000000000000
000000000000
000000000000
000000000000
00007FF00000
0003FFFF0000
000FFFFFC000
003FFFFFF000
00FFFFFFF800
01FFFFFFFC00
03FFFFFFFE00
07FFFFFFFF00
07FF800FFF80
0FFE0003FF80
1FFC0001FFC0
1FF80000FFC0
3FF000007FE0
3FE000003FE0
7FE000003FF0
7FC000001FF0
7FC000001FF0
7F8000000FF8
FF8000000FF8
FF8000000FF8
FF8000000FF8
FF00000007F8
FF00000007F8
FF00000007F8
FF00000007FC
FF00000007FC
FF00000007FC
FF00000007FC
FF00000007FC
FF00000007FC
FF00000007F8
FF00000007F8
FF00000007F8
FF80000007F8
FF8000000FF8
FF8000000FF8
7F8000000FF8
7FC000001FF0
7FC000001FF0
7FE000003FF0
3FE000003FE0
3FF000007FE0
1FF80000FFC0
1FFC0001FFC0
0FFE0003FF80
07FF800FFF80
07FFFDFFFF00
03FFFFFFFE00
01FFFFFFFC00
00FFFFFFF800
003FFFFFE000
001FFFFFC000
0003FFFE0000
00007FF00000
ENDCHAR
STARTCHAR 00F6
ENCODING 246
SWIDTH 555 0
DWIDTH 54 0
BBX 46 72 4 -2
BITMAP
003FF07FE000
003FF07FE000
003FF07FE000
003FF07FE000
003FF07FE000
003FF07FE000
003FF07FE000
003FF07FE000
003FF07FE000
003FF07FE000
000000000000
000000000000
000000000000
000000000000
000000000000
000000000000
000000000000
000000000000
00007FF00000
0003FFFF0000
000FFFFFC000
003FFFFFF000
00FFFFFFF800
01FFFFFFFC00
03FFFFFFFE00
07FFFFFFFF00
07FF800FFF80
0FFE0003FF80
1FFC0001FFC0
1FF80000FFC0
3FF000007FE0
3FE000003FE0
7FE000003FF0
7FC000001FF0
7FC000001FF0
7F8000000FF8
FF8000000FF8
FF8000000FF8
FF8000000FF8
FF00000007F8
FF00000007F8
FF00000007F8
FF00000007FC
FF00000007FC
FF00000007FC
FF00000007FC
FF00000007FC
FF00000007FC
FF00000007F8
FF00000007F8
FF00000007F8
FF80000007F8
FF8000000FF8
FF8000000FF8
7F8000000FF8
7FC000001FF0
7FC000001FF0
7FE000003FF0
3FE000003FE0
3FF000007FE0
1FF80000FFC0
1FFC0001FFC0
0FFE0003FF80
07FF800FFF80
07FFFDFFFF00
03FFFFFFFE00
01FFFFFFFC00
00FFFFFFF800
003FFFFFE000
001FFFFFC000
0003FFFE0000
00007FF00000
ENDCHAR
STARTCHAR 00F7
ENCODING 247
SWIDTH 586 0
DWIDTH 57 0
BBX 47 46 5 0
BITMAP
00003FF00000
00003FF00000
00003FF00000
00003FF00000
00003FF00000
00003FF00000
00003FF00000
00003FF00000
00003FF00000
00003FF00000
000000000000
000000000000
000000000000
000000000000
000000000000
000000000000
000000000000
000000000000
000000000000
000000000000
FFFFFFFFFFFE
FFFFFFFFFFFE
FFFFFFFFFFFE
FFFFFFFFFFFE
FFFFFFFFFFFE
FFFFFFFFFFFE
FFFFFFFFFFFE
000000000000
000000000000
000000000000
000000000000
000000000000
000000000000
000000000000
000000000000
000000000000
00003FF00000
00003FF00000
00003FF00000
00003FF00000
00003FF00000
00003FF00000
00003FF00000
00003FF00000
00003FF00000
00003FF00000
ENDCHAR
STARTCHAR 00F8
ENCODING 248
SWIDTH 606 0
DWIDTH 59 0
BBX 49 54 2 -3
BITMAP
00001FFC000200
0000FFFF800700
0003FFFFF00F80
000FFFFFF81F80
003FFFFFFE3F00
007FFFFFFF7E00
00FFFFFFFFFC00
01FFFFFFFFF800
01FFE003FFF000
03FF8000FFE000
07FF00007FF000
07FE00003FF000
0FFC00001FF800
0FF800003FF800
1FF800007FFC00
1FF00000FFFC00
1FF00000FFFC00
1FE00001F3FE00
3FE00003E3FE00
3FE00007C3FE00
3FE0000F81FE00
3FC0001F81FE00
3FC0003F01FE00
3FC0007E01FF00
3FC000FC01FF00
3FC001F801FF00
3FC001F001FF00
3FC003E001FF00
3FC007C001FF00
3FC00F8001FF00
3FC01F8001FE00
3FC03F0001FE00
3FC07E0001FE00
3FE0FC0001FE00
3FE1F80003FE00
3FE3F00003FE00
1FE3E00003FE00
1FF7C00007FC00
1FFF800007FC00
1FFF00000FFC00
0FFF00000FF800
0FFE00001FF800
07FE00003FF000
07FF00007FF000
03FF8000FFE000
03FFE003FFE000
07FFFF7FFFC000
0FFFFFFFFF8000
1F7FFFFFFF0000
3E3FFFFFFE0000
7E0FFFFFF80000
FC07FFFFF00000
F800FFFF800000
70001FFC000000
ENDCHAR
STARTCHAR 00F9
ENCODING 249
SWIDTH 555 0
DWIDTH 54 0
BBX 41 74 6 -2
BITMAP
01FFC0000000
00FFE0000000
007FE0000000
003FF0000000
001FF8000000
000FF8000000
0007FC000000
0003FC000000
0001FE000000
0000FF000000
00007F000000
00003F800000
00001FC00000
00000FC00000
000000000000
000000000000
000000000000
000000000000
000000000000
000000000000
000000000000
FF0000007F80
FF0000007F80
FF0000007F80
FF0000007F80
FF0000007F80
FF0000007F80
FF0000007F80
FF0000007F80
FF0000007F80
FF0000007F80
FF0000007F80
FF0000007F80
FF0000007F80
FF0000007F80
FF0000007F80
FF0000007F80
FF0000007F80
FF0000007F80
FF0000007F80
FF0000007F80
FF0000007F80
FF0000007F80
FF0000007F80
FF0000007F80
FF0000007F80
FF0000007F80
FF0000007F80
FF0000007F80
FF0000007F80
FF0000007F80
FF0000007F80
FF0000007F80
FF0000007F80
FF000000FF80
FF000000FF80
FF000000FF80
FF000000FF80
FF800001FF80
FF800001FF80
FF800003FF80
FF800003FF80
7FC00007FF80
7FE0000FFF80
7FF0001FFF80
7FF8007FBF80
3FFF03FF3F80
3FFFFFFF3F80
1FFFFFFE3F80
0FFFFFFC3F80
07FFFFF03F80
03FFFFE03F80
00FFFF800000
000FFC000000
ENDCHAR
STARTCHAR 00FA
ENCODING 250
SWIDTH 555 0
DWIDTH 54 0
BBX 41 74 6 -2
BITMAP
000003FF8000
000003FF0000
000007FE0000
00000FFC0000
00000FF80000
00001FF00000
00001FE00000
00003FC00000
00007F800000
00007F000000
0000FE000000
0001FC000000
0001F8000000
0003F0000000
000000000000
000000000000
000000000000
000000000000
000000000000
000000000000
000000000000
FF0000007F80
FF0000007F80
FF0000007F80
FF0000007F80
FF0000007F80
FF0000007F80
FF0000007F80
FF0000007F80
FF0000007F80
FF0000007F80
FF0000007F80
FF0000007F80
FF0000007F80
FF0000007F80
FF0000007F80
FF0000007F80
FF0000007F80
FF0000007F80
FF0000007F80
FF0000007F80
FF0000007F80
FF0000007F80
FF0000007F80
FF0000007F80
FF0000007F80
FF0000007F80
FF0000007F80
FF0000007F80
FF0000007F80
FF0000007F80
FF0000007F80
FF0000007F80
FF0000007F80
FF000000FF80
FF000000FF80
FF000000FF80
FF000000FF80
FF800001FF80
FF800001FF80
FF800003FF80
FF800003FF80
7FC00007FF80
7FE0000FFF80
7FF0001FFF80
7FF8007FBF80
3FFF03FF3F80
3FFFFFFF3F80
1FFFFFFE3F80
0FFFFFFC3F80
07FFFFF03F80
03FFFFE03F80
00FFFF800000
000FFC000000
ENDCHAR
STARTCHAR 00FB
ENCODING 251
SWIDTH 555 0
DWIDTH 54 0
BBX 41 74 6 -2
BITMAP
0000FFC00000
0001FFC00000
0003FFE00000
0003FFF00000
0007FFF00000
0007F7F80000
000FF3F80000
001FE1FC0000
001FC1FE0000
003F80FE0000
007F007F0000
007E003F8000
00FE001F8000
01FC000FC000
01F8000FE000
000000000000
000000000000
000000000000
000000000000
000000000000
000000000000
FF0000007F80
FF0000007F80
FF0000007F80
FF0000007F80
FF0000007F80
FF0000007F80
FF0000007F80
FF0000007F80
FF0000007F80
FF0000007F80
FF0000007F80
FF0000007F80
FF0000007F80
FF0000007F80
FF0000007F80
FF0000007F80
FF0000007F80
FF0000007F80
FF0000007F80
FF0000007F80
FF0000007F80
FF0000007F80
FF0000007F80
FF0000007F80
FF0000007F80
FF0000007F80
FF0000007F80
FF0000007F80
FF0000007F80
FF0000007F80
FF0000007F80
FF0000007F80
FF0000007F80
FF000000FF80
FF000000FF80
FF000000FF80
FF000000FF80
FF800001FF80
FF800001FF80
FF800003FF80
FF800003FF80
7FC00007FF80
7FE0000FFF80
7FF0001FFF80
7FF8007FBF80
3FFF03FF3F80
3FFFFFFF3F80
1FFFFFFE3F80
0FFFFFFC3F80
07FFFFF03F80
03FFFFE03F80
00FFFF800000
000FFC000000
ENDCHAR
STARTCHAR 00FC
ENCODING 252
SWIDTH 555 0
DWIDTH 54 0
BBX 41 72 6 -2
BITMAP
00FFC1FFC000
00FFC1FFC000
00FFC1FFC000
00FFC1FFC000
00FFC1FFC000
00FFC1FFC000
00FFC1FFC000
00FFC1FFC000
00FFC1FFC000
00FFC1FFC000
000000000000
000000000000
000000000000
000000000000
000000000000
000000000000
000000000000
000000000000
000000000000
FF0000007F80
FF0000007F80
FF0000007F80
FF0000007F80
FF0000007F80
FF0000007F80
FF0000007F80
FF0000007F80
FF0000007F80
FF0000007F80
FF0000007F80
FF0000007F80
FF0000007F80
FF0000007F80
FF0000007F80
FF0000007F80
FF0000007F80
FF0000007F80
FF0000007F80
FF0000007F80
FF0000007F80
FF0000007F80
FF0000007F80
FF0000007F80
FF0000007F80
FF0000007F80
FF0000007F80
FF0000007F80
FF0000007F80
FF0000007F80
FF0000007F80
FF0000007F80
FF0000007F80
FF000000FF80
FF000000FF80
FF000000FF80
FF000000FF80
FF800001FF80
FF800001FF80
FF800003FF80
FF800003FF80
7FC00007FF80
7FE0000FFF80
7FF0001FFF80
7FF8007FBF80
3FFF03FF3F80
3FFFFFFF3F80
1FFFFFFE3F80
0FFFFFFC3F80
07FFFFF03F80
03FFFFE03F80
00FFFF800000
000FFC000000
ENDCHAR
STARTCHAR 00FD
ENCODING 253
SWIDTH 504 0
DWIDTH 49 0
BBX 44 93 2 -21
BITMAP
000000FFE000
000001FFC000
000001FF8000
000003FF0000
000007FE0000
000007FC0000
00000FF80000
00001FF00000
00001FE00000
00003FC00000
00003F800000
00007F000000
0000FE000000
0000FC000000
000100000000
000000000000
000000000000
000000000000
000000000000
000000000000
000000000000
FF8000000FF0
FF8000001FF0
7F8000001FF0
7FC000003FE0
7FC000003FE0
3FC000003FC0
3FE000007FC0
3FE000007FC0
1FE000007F80
1FF00000FF80
1FF00000FF80
0FF00000FF00
0FF80001FF00
0FF80001FE00
07F80001FE00
07FC0003FE00
07FC0003FC00
03FC0007FC00
03FE0007FC00
03FE0007F800
01FE000FF800
01FF000FF800
00FF000FF000
00FF001FF000
00FF801FE000
007F801FE000
007F803FE000
007FC03FC000
003FC03FC000
003FC07FC000
003FE07F8000
001FE0FF8000
001FE0FF0000
001FF0FF0000
000FF1FF0000
000FF1FE0000
000FF9FE0000
0007FBFE0000
0007FBFC0000
0007FFFC0000
0003FFFC0000
0003FFF80000
0003FFF80000
0001FFF00000
0001FFF00000
0001FFF00000
0000FFE00000
0000FFE00000
0000FFE00000
00007FC00000
00007FC00000
00007F800000
00007F800000
0000FF800000
0000FF000000
0001FF000000
0001FF000000
0001FE000000
0003FE000000
0003FE000000
0007FC000000
0007FC000000
000FF8000000
101FF8000000
1FFFF8000000
1FFFF0000000
1FFFE0000000
1FFFE0000000
1FFFC0000000
1FFF00000000
1FFE00000000
07F000000000
ENDCHAR
STARTCHAR 00FE
ENCODING 254
SWIDTH 555 0
DWIDTH 54 0
BBX 46 90 5 -21
BITMAP
FF0000000000
FF0000000000
FF0000000000
FF0000000000
FF0000000000
FF0000000000
FF0000000000
FF0000000000
FF0000000000
FF0000000000
FF0000000000
FF0000000000
FF0000000000
FF0000000000
FF0000000000
FF0000000000
FF0000000000
FF001FF80000
FF00FFFF0000
FF03FFFFC000
FF07FFFFF000
FF1FFFFFF800
FF3FFFFFFC00
FF7FFFFFFE00
FF7FFFFFFF00
FFFFC01FFF80
FFFF0007FF80
FFFC0001FFC0
FFF80000FFC0
FFF000007FE0
FFF000003FE0
FFE000003FF0
FFE000001FF0
FFC000001FF0
FFC000000FF8
FF8000000FF8
FF8000000FF8
FF80000007F8
FF80000007F8
FF80000007FC
FF80000007FC
FF00000007FC
FF00000007FC
FF00000007FC
FF00000007FC
FF00000007FC
FF00000007FC
FF80000007FC
FF80000007FC
FF80000007F8
FF80000007F8
FF8000000FF8
FFC000000FF8
FFC000000FF8
FFC000001FF0
FFE000001FF0
FFE000003FF0
FFF000003FE0
FFF800007FE0
FFF80000FFE0
FFFC0001FFC0
FFFF0003FF80
FFFFC00FFF80
FFFFFFFFFF00
FF7FFFFFFE00
FF3FFFFFFC00
FF1FFFFFF800
FF0FFFFFF000
FF03FFFFC000
FF00FFFF0000
FF001FF80000
FF0000000000
FF0000000000
FF0000000000
FF0000000000
FF0000000000
FF0000000000
FF0000000000
FF0000000000
FF0000000000
FF0000000000
FF0000000000
FF0000000000
FF0000000000
FF0000000000
FF0000000000
FF0000000000
FF0000000000
FF0000000000
FF0000000000
ENDCHAR
STARTCHAR 00FF
ENCODING 255
SWIDTH 504 0
DWIDTH 49 0
BBX 44 91 2 -21
BITMAP
007FE07FE000
007FE07FE000
007FE07FE000
007FE07FE000
007FE07FE000
007FE07FE000
007FE07FE000
007FE07FE000
007FE07FE000
007FE07FE000
000000000000
000000000000
000000000000
000000000000
000000000000
000000000000
000000000000
000000000000
000000000000
FF8000000FF0
FF8000001FF0
7F8000001FF0
7FC000003FE0
7FC000003FE0
3FC000003FC0
3FE000007FC0
3FE000007FC0
1FE000007F80
1FF00000FF80
1FF00000FF80
0FF00000FF00
0FF80001FF00
0FF80001FE00
07F80001FE00
07FC0003FE00
07FC0003FC00
03FC0007FC00
03FE0007FC00
03FE0007F800
01FE000FF800
01FF000FF800
00FF000FF000
00FF001FF000
00FF801FE000
007F801FE000
007F803FE000
007FC03FC000
003FC03FC000
003FC07FC000
003FE07F8000
001FE0FF8000
001FE0FF0000
001FF0FF0000
000FF1FF0000
000FF1FE0000
000FF9FE0000
0007FBFE0000
0007FBFC0000
0007FFFC0000
0003FFFC0000
0003FFF80000
0003FFF80000
0001FFF00000
0001FFF00000
0001FFF00000
0000FFE00000
0000FFE00000
0000FFE00000
00007FC00000
00007FC00000
00007F800000
00007F800000
0000FF800000
0000FF000000
0001FF000000
0001FF000000
0001FE000000
0003FE000000
0003FE000000
0007FC000000
0007FC000000
000FF8000000
101FF8000000
1FFFF8000000
1FFFF0000000
1FFFE0000000
1FFFE0000000
1FFFC0000000
1FFF00000000
1FFE00000000
07F000000000
ENDCHAR
STARTCHAR 0100
ENCODING 256
SWIDTH 668 0
DWIDTH 65 0
BBX 61 88 2 0
BITMAP
00007FFFFFF00000
00007FFFFFF00000
00007FFFFFF00000
00007FFFFFF00000
00007FFFFFF00000
00007FFFFFF00000
00007FFFFFF00000
0000000000000000
0000000000000000
0000000000000000
0000000000000000
0000000000000000
0000000000000000
0000000000000000
0000000000000000
0000000000000000
0000000000000000
0000007FF8000000
000000FFF8000000
000000FFF8000000
000000FFFC000000
000001FFFC000000
000001FFFE000000
000001FFFE000000
000003FFFE000000
000003FFFF000000
000003FFFF000000
000007FDFF000000
000007FDFF800000
00000FFCFF800000
00000FF8FF800000
00000FF8FFC00000
00001FF87FC00000
00001FF07FC00000
00001FF07FE00000
00003FE03FE00000
00003FE03FE00000
00003FE03FF00000
00007FC01FF00000
00007FC01FF00000
00007FC01FF80000
0000FF800FF80000
0000FF800FFC0000
0001FF800FFC0000
0001FF0007FC0000
0001FF0007FE0000
0003FF0007FE0000
0003FE0003FE0000
0003FE0003FF0000
0007FC0003FF0000
0007FC0001FF0000
0007FC0001FF8000
000FF80001FF8000
000FF80000FF8000
000FF80000FFC000
001FF00000FFC000
001FF000007FC000
001FF000007FE000
003FE000007FE000
003FFFFFFFFFF000
007FFFFFFFFFF000
007FFFFFFFFFF000
007FFFFFFFFFF800
00FFFFFFFFFFF800
00FFFFFFFFFFF800
00FFFFFFFFFFFC00
01FFFFFFFFFFFC00
01FF0000000FFC00
01FF00000007FE00
03FF00000007FE00
03FE00000007FE00
03FE00000003FF00
07FE00000003FF00
07FC00000003FF00
0FFC00000001FF80
0FFC00000001FF80
0FF800000001FF80
1FF800000000FFC0
1FF800000000FFC0
1FF000000000FFE0
3FF0000000007FE0
3FF0000000007FE0
3FE0000000007FF0
7FE0000000003FF0
7FC0000000003FF0
7FC0000000003FF8
FFC0000000001FF8
FF80000000001FF8
ENDCHAR
STARTCHAR 0101
ENCODING 257
SWIDTH 555 0
DWIDTH 54 0
BBX 48 70 4 -2
BITMAP
007FFFFFF000
007FFFFFF000
007FFFFFF000
007FFFFFF000
007FFFFFF000
007FFFFFF000
007FFFFFF000
000000000000
000000000000
000000000000
000000000000
000000000000
000000000000
000000000000
000000000000
000000000000
00007FF80000
0007FFFF8000
001FFFFFE000
007FFFFFF800
01FFFFFFFC00
03FFFFFFFE00
07FFFFFFFF00
07FFFFFFFF80
0FFF0007FF80
0FFC0001FF80
1FF80000FFC0
1FF000007FC0
1FF000007FC0
1FE000003FC0
3FE000003FC0
3FE000003FC0
000000003FC0
000000003FC0
000000003FC0
000000007FC0
00000000FFC0
00000001FFC0
0000003FFFC0
00001FFFFFC0
0007FFFFFFC0
007FFFFFFFC0
01FFFFFFFFC0
03FFFFFF3FC0
0FFFFFF83FC0
1FFFFC003FC0
1FFF80003FC0
3FFC00003FC0
7FF000003FC0
7FE000003FC0
7FC000003FC0
FF8000003FC0
FF8000003FC0
FF8000003FC0
FF8000007FC0
FF8000007FC0
FF800000FFC0
FF800000FFC0
FF800001FFC0
7FC00007FFC0
7FE0000FFFC0
7FF0003FFFE0
3FFE01FFFFF0
3FFFFFFFBFFF
1FFFFFFF3FFF
0FFFFFFC1FFF
07FFFFF81FFF
01FFFFE00FFF
007FFF8007FF
000FFC0001FC
ENDCHAR
STARTCHAR 0102
ENCODING 258
SWIDTH 668 0
DWIDTH 65 0
BBX 61 90 2 0
BITMAP
0000FC0001F80000
0000FC0001F80000
0000FE0001F80000
0000FE0003F80000
00007F0007F00000
00007FE01FF00000
00003FFFFFE00000
00003FFFFFE00000
00001FFFFFC00000
00000FFFFF800000
000003FFFE000000
000000FFF8000000
0000000FC0000000
0000000000000000
0000000000000000
0000000000000000
0000000000000000
0000000000000000
0000000000000000
0000007FF8000000
000000FFF8000000
000000FFF8000000
000000FFFC000000
000001FFFC000000
000001FFFE000000
000001FFFE000000
000003FFFE000000
000003FFFF000000
000003FFFF000000
000007FDFF000000
000007FDFF800000
00000FFCFF800000
00000FF8FF800000
00000FF8FFC00000
00001FF87FC00000
00001FF07FC00000
00001FF07FE00000
00003FE03FE00000
00003FE03FE00000
00003FE03FF00000
00007FC01FF00000
00007FC01FF00000
00007FC01FF80000
0000FF800FF80000
0000FF800FFC0000
0001FF800FFC0000
0001FF0007FC0000
0001FF0007FE0000
0003FF0007FE0000
0003FE0003FE0000
0003FE0003FF0000
0007FC0003FF0000
0007FC0001FF0000
0007FC0001FF8000
000FF80001FF8000
000FF80000FF8000
000FF80000FFC000
001FF00000FFC000
001FF000007FC000
001FF000007FE000
003FE000007FE000
003FFFFFFFFFF000
007FFFFFFFFFF000
007FFFFFFFFFF000
007FFFFFFFFFF800
00FFFFFFFFFFF800
00FFFFFFFFFFF800
00FFFFFFFFFFFC00
01FFFFFFFFFFFC00
01FF0000000FFC00
01FF00000007FE00
03FF00000007FE00
03FE00000007FE00
03FE00000003FF00
07FE00000003FF00
07FC00000003FF00
0FFC00000001FF80
0FFC00000001FF80
0FF800000001FF80
1FF800000000FFC0
1FF800000000FFC0
1FF000000000FFE0
3FF0000000007FE0
3FF0000000007FE0
3FE0000000007FF0
7FE0000000003FF0
7FC0000000003FF0
7FC0000000003FF8
FFC0000000001FF8
FF80000000001FF8
ENDCHAR
STARTCHAR 0103
ENCODING 259
SWIDTH 555 0
DWIDTH 54 0
BBX 48 73 4 -2
BITMAP
00FC0000F800
00FC0001F800
00FE0001F800
00FE0003F800
007F0007F800
007FC00FF000
003FFFFFF000
003FFFFFE000
001FFFFFC000
000FFFFF8000
0007FFFF0000
0001FFFC0000
00003FE00000
000000000000
000000000000
000000000000
000000000000
000000000000
000000000000
00007FF80000
0007FFFF8000
001FFFFFE000
007FFFFFF800
01FFFFFFFC00
03FFFFFFFE00
07FFFFFFFF00
07FFFFFFFF80
0FFF0007FF80
0FFC0001FF80
1FF80000FFC0
1FF000007FC0
1FF000007FC0
1FE000003FC0
3FE000003FC0
3FE000003FC0
000000003FC0
000000003FC0
000000003FC0
000000007FC0
00000000FFC0
00000001FFC0
0000003FFFC0
00001FFFFFC0
0007FFFFFFC0
007FFFFFFFC0
01FFFFFFFFC0
03FFFFFF3FC0
0FFFFFF83FC0
1FFFFC003FC0
1FFF80003FC0
3FFC00003FC0
7FF000003FC0
7FE000003FC0
7FC000003FC0
FF8000003FC0
FF8000003FC0
FF8000003FC0
FF8000007FC0
FF8000007FC0
FF800000FFC0
FF800000FFC0
FF800001FFC0
7FC00007FFC0
7FE0000FFFC0
7FF0003FFFE0
3FFE01FFFFF0
3FFFFFFFBFFF
1FFFFFFF3FFF
0FFFFFFC1FFF
07FFFFF81FFF
01FFFFE00FFF
007FFF8007FF
000FFC0001FC
ENDCHAR
STARTCHAR 0104
ENCODING 260
SWIDTH 668 0
DWIDTH 65 0
BBX 65 91 2 -20
BITMAP
0000007FF800000000
000000FFF800000000
000000FFF800000000
000000FFFC00000000
000001FFFC00000000
000001FFFE00000000
000001FFFE00000000
000003FFFE00000000
000003FFFF00000000
000003FFFF00000000
000007FDFF00000000
000007FDFF80000000
00000FFCFF80000000
00000FF8FF80000000
00000FF8FFC0000000
00001FF87FC0000000
00001FF07FC0000000
00001FF07FE0000000
00003FE03FE0000000
00003FE03FE0000000
00003FE03FF0000000
00007FC01FF0000000
00007FC01FF0000000
00007FC01FF8000000
0000FF800FF8000000
0000FF800FFC000000
0001FF800FFC000000
0001FF0007FC000000
0001FF0007FE000000
0003FF0007FE000000
0003FE0003FE000000
0003FE0003FF000000
0007FC0003FF000000
0007FC0001FF000000
0007FC0001FF800000
000FF80001FF800000
000FF80000FF800000
000FF80000FFC00000
001FF00000FFC00000
001FF000007FC00000
001FF000007FE00000
003FE000007FE00000
003FFFFFFFFFF00000
007FFFFFFFFFF00000
007FFFFFFFFFF00000
007FFFFFFFFFF80000
00FFFFFFFFFFF80000
00FFFFFFFFFFF80000
00FFFFFFFFFFFC0000
01FFFFFFFFFFFC0000
01FF0000000FFC0000
01FF00000007FE0000
03FF00000007FE0000
03FE00000007FE0000
03FE00000003FF0000
07FE00000003FF0000
07FC00000003FF0000
0FFC00000001FF8000
0FFC00000001FF8000
0FF800000001FF8000
1FF800000000FFC000
1FF800000000FFC000
1FF000000000FFE000
3FF0000000007FE000
3FF0000000007FE000
3FE0000000007FF000
7FE0000000003FF000
7FC0000000003FF000
7FC0000000003FF800
FFC0000000001FF800
FF80000000001FF800
00000000000003F000
0000000000000FE000
0000000000003F8000
0000000000007F0000
000000000000FE0000
000000000001FC0000
000000000003F80000
000000000003F80000
000000000007F00000
000000000007F00000
000000000007F00000
000000000007F00000
000000000007F80000
000000000007F80000
000000000003FC0000
000000000003FFC780
000000000001FFFF80
0000000000007FFF80
0000000000001FFF80
00000000000003FE00
ENDCHAR
STARTCHAR 0105
ENCODING 261
SWIDTH 555 0
DWIDTH 54 0
BBX 54 72 4 -20
BITMAP
00007FF8000000
0007FFFF800000
001FFFFFF00000
007FFFFFF80000
00FFFFFFFC0000
03FFFFFFFE0000
07FFFFFFFF0000
07FFFFFFFF8000
0FFF0007FF8000
0FFC0001FF8000
1FF80000FFC000
1FF000007FC000
1FF000007FC000
1FE000003FC000
1FE000003FC000
1FE000003FC000
000000003FC000
000000003FC000
000000003FC000
000000007FC000
000000007FC000
00000001FFC000
0000003FFFC000
00001FFFFFC000
0007FFFFFFC000
003FFFFFFFC000
00FFFFFFFFC000
03FFFFFF3FC000
07FFFFF83FC000
0FFFFC003FC000
1FFF80003FC000
3FFC00003FC000
3FF000003FC000
7FE000003FC000
7FC000003FC000
7F8000003FC000
FF8000003FC000
FF8000003FC000
FF8000007FC000
FF8000007FC000
FF800000FFC000
FF800000FFC000
7F800001FFC000
7FC00007FFC000
7FE0000FFFC000
7FF0003FFFE000
3FFE01FFFFF000
1FFFFFFFBFFF00
1FFFFFFF1FFF00
0FFFFFFE1FFF00
07FFFFF81FFF00
01FFFFE00FFF00
007FFF8007FF00
000FFC0001FE00
0000000000F800
0000000003F000
0000000007E000
000000000FC000
000000001FC000
000000003F8000
000000003F8000
000000003F8000
000000003F8000
000000003F8000
000000003F8000
000000003FC000
000000001FE000
000000001FFE3C
000000000FFFFC
0000000007FFFC
0000000001FFFC
00000000001FE0
ENDCHAR
STARTCHAR 0106
ENCODING 262
SWIDTH 720 0
DWIDTH 70 0
BBX 61 93 5 -2
BITMAP
000000003FF80000
000000007FF00000
000000007FE00000
00000000FFC00000
00000001FF800000
00000001FF000000
00000003FE000000
00000007FC000000
00000007F8000000
0000000FF0000000
0000001FE0000000
0000001FC0000000
0000003F80000000
0000003F00000000
0000000000000000
0000000000000000
0000000000000000
0000000000000000
0000000000000000
0000003FFE000000
000007FFFFE00000
00001FFFFFF80000
00007FFFFFFE0000
0001FFFFFFFF8000
0007FFFFFFFFC000
000FFFFFFFFFE000
001FFFFFFFFFF000
003FFFC00FFFF800
007FFE0000FFFC00
00FFF800003FFE00
01FFE000000FFE00
01FFC0000007FF00
03FF80000003FF00
07FF00000001FF80
07FE00000001FF80
0FFC00000000FFC0
0FFC00000000FFC0
1FF8000000007FC0
1FF0000000007FE0
1FF0000000003FE0
3FE0000000003FE0
3FE0000000003FE0
3FE0000000000000
7FC0000000000000
7FC0000000000000
7FC0000000000000
7FC0000000000000
FF80000000000000
FF80000000000000
FF80000000000000
FF80000000000000
FF80000000000000
FF80000000000000
FF80000000000000
FF80000000000000
FF80000000000000
FF80000000000000
FF80000000000000
FF80000000000000
FF80000000000000
FF80000000000000
FF80000000000000
FF80000000000000
FF80000000000000
FFC0000000000000
FFC0000000001FF8
7FC0000000001FF8
7FC0000000001FF0
7FE0000000001FF0
7FE0000000001FF0
3FE0000000003FF0
3FF0000000003FF0
3FF0000000003FE0
1FF8000000007FE0
1FF8000000007FE0
0FFC000000007FC0
0FFC00000000FFC0
07FE00000001FFC0
07FF00000001FF80
03FF80000003FF80
03FFC0000007FF00
01FFF000000FFF00
00FFF800003FFE00
007FFE0000FFFC00
003FFFE007FFF800
001FFFFFFFFFF000
000FFFFFFFFFE000
0007FFFFFFFFC000
0003FFFFFFFF8000
0000FFFFFFFE0000
00003FFFFFF80000
000007FFFFC00000
0000007FFC000000
ENDCHAR
STARTCHAR 0107
ENCODING 263
SWIDTH 504 0
DWIDTH 49 0
BBX 43 74 3 -2
BITMAP
0000003FF000
0000007FE000
000000FFC000
000000FFC000
000001FF8000
000001FF0000
000003FE0000
000007FC0000
000007F80000
00000FF00000
00001FE00000
00001FC00000
00003F800000
00007F000000
00007E000000
000000000000
000000000000
000000000000
000000000000
000000000000
00003FF00000
0003FFFE0000
000FFFFF8000
001FFFFFE000
007FFFFFF000
00FFFFFFFC00
01FFFFFFFE00
03FFFFFFFE00
07FF800FFF00
07FF0003FF80
0FFC0001FF80
0FF80000FF80
1FF000007FC0
1FF000007FC0
3FE000003FC0
3FE000003FC0
3FC000003FE0
7FC000003FE0
7FC000000000
7F8000000000
7F8000000000
FF8000000000
FF8000000000
FF8000000000
FF8000000000
FF8000000000
FF8000000000
FF0000000000
FF8000000000
FF8000000000
FF8000000000
FF8000000000
FF8000000000
FF8000000000
7F8000001FE0
7F8000001FE0
7FC000001FE0
7FC000001FE0
3FE000003FE0
3FE000003FE0
3FF000007FC0
1FF000007FC0
1FF80000FF80
0FFC0001FF80
0FFF0003FF80
07FFC00FFF00
03FFFFFFFE00
01FFFFFFFC00
00FFFFFFF800
007FFFFFF000
003FFFFFE000
000FFFFF8000
0003FFFE0000
00007FF00000
ENDCHAR
STARTCHAR 0108
ENCODING 264
SWIDTH 720 0
DWIDTH 70 0
BBX 61 93 5 -2
BITMAP
0000003FF0000000
0000003FF8000000
0000007FFC000000
000000FFFC000000
000000FFFE000000
000001FEFF000000
000003FC7F000000
000003F87F800000
000007F03FC00000
00000FE01FC00000
00000FE00FE00000
00001FC007F00000
00003F8003F00000
00003F0003F80000
0000000000000000
0000000000000000
0000000000000000
0000000000000000
0000000000000000
0000003FFE000000
000007FFFFE00000
00001FFFFFF80000
00007FFFFFFE0000
0001FFFFFFFF8000
0007FFFFFFFFC000
000FFFFFFFFFE000
001FFFFFFFFFF000
003FFFC00FFFF800
007FFE0000FFFC00
00FFF800003FFE00
01FFE000000FFE00
01FFC0000007FF00
03FF80000003FF00
07FF00000001FF80
07FE00000001FF80
0FFC00000000FFC0
0FFC00000000FFC0
1FF8000000007FC0
1FF0000000007FE0
1FF0000000003FE0
3FE0000000003FE0
3FE0000000003FE0
3FE0000000000000
7FC0000000000000
7FC0000000000000
7FC0000000000000
7FC0000000000000
FF80000000000000
FF80000000000000
FF80000000000000
FF80000000000000
FF80000000000000
FF80000000000000
FF80000000000000
FF80000000000000
FF80000000000000
FF80000000000000
FF80000000000000
FF80000000000000
FF80000000000000
FF80000000000000
FF80000000000000
FF80000000000000
FF80000000000000
FFC0000000000000
FFC0000000001FF8
7FC0000000001FF8
7FC0000000001FF0
7FE0000000001FF0
7FE0000000001FF0
3FE0000000003FF0
3FF0000000003FF0
3FF0000000003FE0
1FF8000000007FE0
1FF8000000007FE0
0FFC000000007FC0
0FFC00000000FFC0
07FE00000001FFC0
07FF00000001FF80
03FF80000003FF80
03FFC0000007FF00
01FFF000000FFF00
00FFF800003FFE00
007FFE0000FFFC00
003FFFE007FFF800
001FFFFFFFFFF000
000FFFFFFFFFE000
0007FFFFFFFFC000
0003FFFFFFFF8000
0000FFFFFFFE0000
00003FFFFFF80000
000007FFFFC00000
0000007FFC000000
ENDCHAR
STARTCHAR 0109
ENCODING 265
SWIDTH 504 0
DWIDTH 49 0
BBX 43 74 3 -2
BITMAP
00003FF00000
00007FF00000
00007FF80000
0000FFFC0000
0000FFFC0000
0001FFFE0000
0003FCFF0000
0003F87F0000
0007F03F8000
000FF03FC000
000FE01FC000
001FC00FE000
001F8007E000
003F0003F000
007F0003F800
000000000000
000000000000
000000000000
000000000000
000000000000
00003FF00000
0003FFFE0000
000FFFFF8000
001FFFFFE000
007FFFFFF000
00FFFFFFFC00
01FFFFFFFE00
03FFFFFFFE00
07FF800FFF00
07FF0003FF80
0FFC0001FF80
0FF80000FF80
1FF000007FC0
1FF000007FC0
3FE000003FC0
3FE000003FC0
3FC000003FE0
7FC000003FE0
7FC000000000
7F8000000000
7F8000000000
FF8000000000
FF8000000000
FF8000000000
FF8000000000
FF8000000000
FF8000000000
FF0000000000
FF8000000000
FF8000000000
FF8000000000
FF8000000000
FF8000000000
FF8000000000
7F8000001FE0
7F8000001FE0
7FC000001FE0
7FC000001FE0
3FE000003FE0
3FE000003FE0
3FF000007FC0
1FF000007FC0
1FF80000FF80
0FFC0001FF80
0FFF0003FF80
07FFC00FFF00
03FFFFFFFE00
01FFFFFFFC00
00FFFFFFF800
007FFFFFF000
003FFFFFE000
000FFFFF8000
0003FFFE0000
00007FF00000
ENDCHAR
STARTCHAR 010A
ENCODING 266
SWIDTH 720 0
DWIDTH 70 0
BBX 61 91 5 -2
BITMAP
0000001FF8000000
0000001FF8000000
0000001FF8000000
0000001FF8000000
0000001FF8000000
0000001FF8000000
0000001FF8000000
0000001FF8000000
0000001FF8000000
0000001FF8000000
0000000000000000
0000000000000000
0000000000000000
0000000000000000
0000000000000000
0000000000000000
0000000000000000
0000003FFE000000
000007FFFFE00000
00001FFFFFF80000
00007FFFFFFE0000
0001FFFFFFFF8000
0007FFFFFFFFC000
000FFFFFFFFFE000
001FFFFFFFFFF000
003FFFC00FFFF800
007FFE0000FFFC00
00FFF800003FFE00
01FFE000000FFE00
01FFC0000007FF00
03FF80000003FF00
07FF00000001FF80
07FE00000001FF80
0FFC00000000FFC0
0FFC00000000FFC0
1FF8000000007FC0
1FF0000000007FE0
1FF0000000003FE0
3FE0000000003FE0
3FE0000000003FE0
3FE0000000000000
7FC0000000000000
7FC0000000000000
7FC0000000000000
7FC0000000000000
FF80000000000000
FF80000000000000
FF80000000000000
FF80000000000000
FF80000000000000
FF80000000000000
FF80000000000000
FF80000000000000
FF80000000000000
FF80000000000000
FF80000000000000
FF80000000000000
FF80000000000000
FF80000000000000
FF80000000000000
FF80000000000000
FF80000000000000
FFC0000000000000
FFC0000000001FF8
7FC0000000001FF8
7FC0000000001FF0
7FE0000000001FF0
7FE0000000001FF0
3FE0000000003FF0
3FF0000000003FF0
3FF0000000003FE0
1FF8000000007FE0
1FF8000000007FE0
0FFC000000007FC0
0FFC00000000FFC0
07FE00000001FFC0
07FF00000001FF80
03FF80000003FF80
03FFC0000007FF00
01FFF000000FFF00
00FFF800003FFE00
007FFE0000FFFC00
003FFFE007FFF800
001FFFFFFFFFF000
000FFFFFFFFFE000
0007FFFFFFFFC000
0003FFFFFFFF8000
0000FFFFFFFE0000
00003FFFFFF80000
000007FFFFC00000
0000007FFC000000
ENDCHAR
ENDFONT
